NotoSansEthiopic-CondensedLight.ufo
<glyph name="dieresiscomb" format="2">
  <unicode hex="0308"/>
  <anchor x="1" y="536" name="_top"/>
  <anchor x="1" y="696" name="top"/>
  <outline>
    <contour>
      <point x="-95" y="663" type="curve" smooth="yes"/>
      <point x="-95" y="646"/>
      <point x="-86" y="631"/>
      <point x="-70" y="631" type="curve" smooth="yes"/>
      <point x="-56" y="631"/>
      <point x="-46" y="644"/>
      <point x="-46" y="663" type="curve" smooth="yes"/>
      <point x="-46" y="682"/>
      <point x="-56" y="696"/>
      <point x="-70" y="696" type="curve" smooth="yes"/>
      <point x="-86" y="696"/>
      <point x="-95" y="680"/>
    </contour>
    <contour>
      <point x="46" y="664" type="curve" smooth="yes"/>
      <point x="46" y="646"/>
      <point x="56" y="631"/>
      <point x="71" y="631" type="curve" smooth="yes"/>
      <point x="86" y="631"/>
      <point x="96" y="645"/>
      <point x="96" y="664" type="curve" smooth="yes"/>
      <point x="96" y="683"/>
      <point x="85" y="696"/>
      <point x="71" y="696" type="curve" smooth="yes"/>
      <point x="56" y="696"/>
      <point x="46" y="681"/>
    </contour>
  </outline>
</glyph>
<glyph name="dblverticallineabovecomb" format="2">
  <unicode hex="030E"/>
  <anchor x="-1" y="536" name="_top"/>
  <anchor x="-1" y="757" name="top"/>
  <outline>
    <contour>
      <point x="-34" y="757" type="line"/>
      <point x="-60" y="757" type="line"/>
      <point x="-60" y="596" type="line"/>
      <point x="-34" y="596" type="line"/>
    </contour>
    <contour>
      <point x="59" y="757" type="line"/>
      <point x="33" y="757" type="line"/>
      <point x="33" y="596" type="line"/>
      <point x="59" y="596" type="line"/>
    </contour>
  </outline>
</glyph>
<glyph name="ha.eth" format="2">
	<advance width="486"/>
	<unicode hex="1200"/>
	<anchor x="243" y="714" name="top"/>
	<note>
		uni1200
	</note>
	<outline>
		<contour>
			<point x="242" y="-10" type="curve" smooth="yes"/>
			<point x="357" y="-10"/>
			<point x="406" y="70"/>
			<point x="406" y="233" type="curve" smooth="yes"/>
			<point x="406" y="714" type="line"/>
			<point x="380" y="714" type="line"/>
			<point x="380" y="241" type="line" smooth="yes"/>
			<point x="380" y="88"/>
			<point x="344" y="15"/>
			<point x="242" y="15" type="curve" smooth="yes"/>
			<point x="141" y="15"/>
			<point x="106" y="87"/>
			<point x="106" y="240" type="curve" smooth="yes"/>
			<point x="106" y="714" type="line"/>
			<point x="80" y="714" type="line"/>
			<point x="80" y="236" type="line" smooth="yes"/>
			<point x="80" y="73"/>
			<point x="121" y="-10"/>
		</contour>
	</outline>
</glyph>
<glyph name="hi.eth" format="2">
  <advance width="378"/>
  <unicode hex="1202"/>
  <note>
uni1202
</note>
  <anchor x="204" y="714" name="top"/>
  <outline>
    <contour>
      <point x="110" y="0" type="line"/>
      <point x="128" y="0" type="line"/>
      <point x="363" y="714" type="line"/>
      <point x="335" y="714" type="line"/>
      <point x="228" y="378" type="line"/>
      <point x="122" y="391"/>
      <point x="71" y="459"/>
      <point x="71" y="599" type="curve" smooth="yes"/>
      <point x="71" y="714" type="line"/>
      <point x="45" y="714" type="line"/>
      <point x="45" y="597" type="line" smooth="yes"/>
      <point x="45" y="445"/>
      <point x="104" y="371"/>
      <point x="218" y="355" type="curve"/>
      <point x="110" y="24" type="line"/>
    </contour>
    <contour>
      <point x="122" y="0" type="line"/>
      <point x="185" y="0" type="line"/>
      <point x="185" y="25" type="line"/>
      <point x="122" y="25" type="line"/>
    </contour>
    <component base="rightdoubleflag" xOffset="148"/>
  </outline>
</glyph>
<glyph name="haa.eth" format="2">
  <advance width="392"/>
  <unicode hex="1203"/>
  <note>
uni1203
</note>
  <anchor x="203" y="714" name="top"/>
  <outline>
    <contour>
      <point x="102" y="0" type="line"/>
      <point x="129" y="1" type="line"/>
      <point x="362" y="714" type="line"/>
      <point x="335" y="714" type="line"/>
      <point x="228" y="378" type="line"/>
      <point x="122" y="391"/>
      <point x="71" y="459"/>
      <point x="71" y="599" type="curve" smooth="yes"/>
      <point x="71" y="714" type="line"/>
      <point x="45" y="714" type="line"/>
      <point x="45" y="597" type="line" smooth="yes"/>
      <point x="45" y="445"/>
      <point x="104" y="371"/>
      <point x="218" y="355" type="curve"/>
    </contour>
  </outline>
</glyph>
<glyph name="hee.eth" format="2">
  <advance width="394"/>
  <unicode hex="1204"/>
  <note>
uni1204
</note>
  <anchor x="210" y="714" name="top"/>
  <outline>
    <contour>
      <point x="108" y="0" type="line"/>
      <point x="129" y="0" type="line"/>
      <point x="362" y="714" type="line"/>
      <point x="335" y="714" type="line"/>
      <point x="228" y="378" type="line"/>
      <point x="122" y="391"/>
      <point x="71" y="459"/>
      <point x="71" y="599" type="curve" smooth="yes"/>
      <point x="71" y="714" type="line"/>
      <point x="45" y="714" type="line"/>
      <point x="45" y="597" type="line" smooth="yes"/>
      <point x="45" y="445"/>
      <point x="104" y="371"/>
      <point x="218" y="355" type="curve"/>
      <point x="108" y="23" type="line"/>
    </contour>
    <contour>
      <point x="135" y="24" type="line"/>
      <point x="193" y="205" type="line"/>
      <point x="267" y="205" type="line" smooth="yes"/>
      <point x="327" y="205"/>
      <point x="349" y="172"/>
      <point x="349" y="121" type="curve" smooth="yes"/>
      <point x="349" y="64"/>
      <point x="318" y="24"/>
      <point x="241" y="24" type="curve" smooth="yes"/>
    </contour>
    <contour>
      <point x="109" y="0" type="line" smooth="yes"/>
      <point x="242" y="0" type="line" smooth="yes"/>
      <point x="339" y="0"/>
      <point x="376" y="51"/>
      <point x="376" y="123" type="curve" smooth="yes"/>
      <point x="376" y="186"/>
      <point x="344" y="229"/>
      <point x="271" y="229" type="curve" smooth="yes"/>
      <point x="182" y="229" type="line"/>
    </contour>
  </outline>
</glyph>
<glyph name="he.eth" format="2">
  <advance width="580"/>
  <unicode hex="1205"/>
  <note>
uni1205
</note>
  <anchor x="275" y="714" name="top"/>
  <outline>
    <contour>
      <point x="336" y="-10" type="curve" smooth="yes"/>
      <point x="455" y="-10"/>
      <point x="500" y="70"/>
      <point x="500" y="233" type="curve" smooth="yes"/>
      <point x="500" y="714" type="line"/>
      <point x="474" y="714" type="line"/>
      <point x="474" y="241" type="line" smooth="yes"/>
      <point x="474" y="88"/>
      <point x="438" y="15"/>
      <point x="336" y="15" type="curve" smooth="yes"/>
      <point x="235" y="15"/>
      <point x="200" y="87"/>
      <point x="200" y="240" type="curve" smooth="yes"/>
      <point x="200" y="513" type="line"/>
      <point x="174" y="513" type="line"/>
      <point x="174" y="236" type="line" smooth="yes"/>
      <point x="174" y="73"/>
      <point x="215" y="-10"/>
    </contour>
    <contour>
      <point x="175" y="489" type="curve"/>
      <point x="200" y="513" type="line"/>
      <point x="173" y="513" type="line" smooth="yes"/>
      <point x="107" y="513"/>
      <point x="76" y="552"/>
      <point x="76" y="662" type="curve" smooth="yes"/>
      <point x="76" y="714" type="line"/>
      <point x="50" y="714" type="line"/>
      <point x="50" y="660" type="line" smooth="yes"/>
      <point x="50" y="536"/>
      <point x="93" y="489"/>
    </contour>
  </outline>
</glyph>
<glyph name="ho.eth" format="2">
  <advance width="620"/>
  <unicode hex="1206"/>
  <note>
uni1206
</note>
  <anchor x="341" y="725" name="top"/>
  <outline>
    <contour>
      <point x="241" y="-10" type="curve" smooth="yes"/>
      <point x="357" y="-10"/>
      <point x="406" y="69"/>
      <point x="406" y="233" type="curve" smooth="yes"/>
      <point x="406" y="694" type="line"/>
      <point x="380" y="694" type="line"/>
      <point x="380" y="241" type="line" smooth="yes"/>
      <point x="380" y="88"/>
      <point x="344" y="15"/>
      <point x="242" y="15" type="curve" smooth="yes"/>
      <point x="141" y="15"/>
      <point x="106" y="87"/>
      <point x="106" y="240" type="curve" smooth="yes"/>
      <point x="106" y="714" type="line"/>
      <point x="80" y="714" type="line"/>
      <point x="80" y="236" type="line" smooth="yes"/>
      <point x="80" y="74"/>
      <point x="121" y="-10"/>
    </contour>
    <contour>
      <point x="391" y="487" type="line"/>
      <point x="476" y="487" type="line" smooth="yes"/>
      <point x="563" y="487"/>
      <point x="602" y="532"/>
      <point x="602" y="611" type="curve" smooth="yes"/>
      <point x="602" y="682"/>
      <point x="571" y="725"/>
      <point x="495" y="725" type="curve" smooth="yes"/>
      <point x="451" y="725"/>
      <point x="411" y="711"/>
      <point x="380" y="694" type="curve"/>
    </contour>
    <contour>
      <point x="406" y="510" type="line"/>
      <point x="406" y="680" type="line"/>
      <point x="424" y="691"/>
      <point x="458" y="702"/>
      <point x="492" y="702" type="curve" smooth="yes"/>
      <point x="554" y="702"/>
      <point x="576" y="664"/>
      <point x="576" y="610" type="curve" smooth="yes"/>
      <point x="576" y="541"/>
      <point x="540" y="510"/>
      <point x="474" y="510" type="curve" smooth="yes"/>
    </contour>
  </outline>
</glyph>
<glyph name="la.eth" format="2">
  <advance width="431"/>
  <unicode hex="1208"/>
  <note>
uni1208
</note>
  <anchor x="218" y="714" name="top"/>
  <outline>
    <contour>
      <point x="35" y="0" type="curve"/>
      <point x="62" y="0" type="line"/>
      <point x="86" y="326"/>
      <point x="116" y="494"/>
      <point x="246" y="539" type="curve"/>
      <point x="374" y="0" type="line"/>
      <point x="401" y="0" type="line"/>
      <point x="230" y="714" type="line"/>
      <point x="203" y="714" type="line"/>
      <point x="240" y="562" type="line"/>
      <point x="97" y="514"/>
      <point x="60" y="350"/>
    </contour>
  </outline>
</glyph>
<glyph name="laa.eth" format="2">
  <advance width="413"/>
  <unicode hex="120B"/>
  <note>
uni120B
</note>
  <anchor x="209" y="714" name="top"/>
  <outline>
    <contour>
      <point x="356" y="0" type="line"/>
      <point x="383" y="0" type="line"/>
      <point x="212" y="714" type="line"/>
      <point x="185" y="714" type="line"/>
      <point x="222" y="562" type="line"/>
      <point x="109" y="523"/>
      <point x="62" y="413"/>
      <point x="35" y="193" type="curve"/>
      <point x="62" y="193" type="line"/>
      <point x="86" y="393"/>
      <point x="127" y="504"/>
      <point x="228" y="539" type="curve"/>
    </contour>
  </outline>
</glyph>
<glyph name="lee.eth" format="2">
  <advance width="593"/>
  <unicode hex="120C"/>
  <note>
uni120C
</note>
  <anchor x="305" y="714" name="top"/>
  <outline>
    <contour>
      <point x="35" y="0" type="curve"/>
      <point x="62" y="0" type="line"/>
      <point x="86" y="326"/>
      <point x="116" y="494"/>
      <point x="246" y="539" type="curve"/>
      <point x="374" y="0" type="line"/>
      <point x="401" y="0" type="line"/>
      <point x="397" y="17" type="line"/>
      <point x="230" y="714" type="line"/>
      <point x="203" y="714" type="line"/>
      <point x="240" y="562" type="line"/>
      <point x="97" y="514"/>
      <point x="60" y="350"/>
    </contour>
    <contour>
      <point x="392" y="24" type="line"/>
      <point x="349" y="205" type="line"/>
      <point x="466" y="205" type="line" smooth="yes"/>
      <point x="526" y="205"/>
      <point x="548" y="172"/>
      <point x="548" y="121" type="curve" smooth="yes"/>
      <point x="548" y="64"/>
      <point x="517" y="24"/>
      <point x="440" y="24" type="curve" smooth="yes"/>
    </contour>
    <contour>
      <point x="379" y="0" type="line"/>
      <point x="441" y="0" type="line" smooth="yes"/>
      <point x="538" y="0"/>
      <point x="575" y="51"/>
      <point x="575" y="123" type="curve" smooth="yes"/>
      <point x="575" y="186"/>
      <point x="543" y="229"/>
      <point x="470" y="229" type="curve" smooth="yes"/>
      <point x="325" y="229" type="line"/>
    </contour>
  </outline>
</glyph>
<glyph name="le.eth" format="2">
  <advance width="482"/>
  <unicode hex="120D"/>
  <note>
uni120D
</note>
  <anchor x="246" y="714" name="top"/>
  <outline>
    <contour>
      <point x="35" y="0" type="curve"/>
      <point x="169" y="0" type="line" smooth="yes"/>
      <point x="243" y="0"/>
      <point x="280" y="48"/>
      <point x="280" y="115" type="curve" smooth="yes"/>
      <point x="280" y="183"/>
      <point x="244" y="224"/>
      <point x="181" y="224" type="curve" smooth="yes"/>
      <point x="85" y="224" type="line"/>
      <point x="111" y="397"/>
      <point x="161" y="514"/>
      <point x="256" y="539" type="curve"/>
      <point x="430" y="0" type="line"/>
      <point x="457" y="0" type="line"/>
      <point x="225" y="714" type="line"/>
      <point x="198" y="714" type="line"/>
      <point x="248" y="561" type="line"/>
      <point x="112" y="515"/>
      <point x="62" y="351"/>
    </contour>
    <contour>
      <point x="62" y="23" type="line"/>
      <point x="65" y="66"/>
      <point x="74" y="153"/>
      <point x="81" y="201" type="curve"/>
      <point x="173" y="201" type="line" smooth="yes"/>
      <point x="228" y="201"/>
      <point x="253" y="170"/>
      <point x="253" y="114" type="curve" smooth="yes"/>
      <point x="253" y="59"/>
      <point x="224" y="23"/>
      <point x="163" y="23" type="curve" smooth="yes"/>
    </contour>
  </outline>
</glyph>
<glyph name="hha.eth" format="2">
  <advance width="574"/>
  <unicode hex="1210"/>
  <note>
uni1210
</note>
  <anchor x="287" y="714" name="top"/>
  <outline>
    <contour>
      <point x="55" y="0" type="line"/>
      <point x="81" y="0" type="line"/>
      <point x="81" y="145" type="line" smooth="yes"/>
      <point x="81" y="313"/>
      <point x="151" y="383"/>
      <point x="274" y="386" type="curve"/>
      <point x="274" y="0" type="line"/>
      <point x="300" y="0" type="line"/>
      <point x="300" y="386" type="line"/>
      <point x="422" y="383"/>
      <point x="493" y="312"/>
      <point x="493" y="145" type="curve" smooth="yes"/>
      <point x="493" y="0" type="line"/>
      <point x="519" y="0" type="line"/>
      <point x="519" y="151" type="line" smooth="yes"/>
      <point x="519" y="324"/>
      <point x="439" y="405"/>
      <point x="300" y="408" type="curve"/>
      <point x="300" y="714" type="line"/>
      <point x="274" y="714" type="line"/>
      <point x="274" y="408" type="line"/>
      <point x="139" y="405"/>
      <point x="55" y="326"/>
      <point x="55" y="151" type="curve" smooth="yes"/>
    </contour>
  </outline>
</glyph>
<glyph name="hhaa.eth" format="2">
  <advance width="574"/>
  <unicode hex="1213"/>
  <note>
uni1213
</note>
  <anchor x="287" y="714" name="top"/>
  <outline>
    <contour>
      <point x="493" y="0" type="line"/>
      <point x="519" y="0" type="line"/>
      <point x="519" y="167" type="line" smooth="yes"/>
      <point x="519" y="338"/>
      <point x="439" y="421"/>
      <point x="300" y="424" type="curve"/>
      <point x="300" y="714" type="line"/>
      <point x="274" y="714" type="line"/>
      <point x="274" y="424" type="line"/>
      <point x="139" y="421"/>
      <point x="55" y="343"/>
      <point x="55" y="167" type="curve" smooth="yes"/>
      <point x="55" y="155" type="line"/>
      <point x="81" y="155" type="line"/>
      <point x="81" y="161" type="line" smooth="yes"/>
      <point x="81" y="327"/>
      <point x="151" y="399"/>
      <point x="274" y="402" type="curve"/>
      <point x="274" y="155" type="line"/>
      <point x="300" y="155" type="line"/>
      <point x="300" y="402" type="line"/>
      <point x="422" y="399"/>
      <point x="493" y="326"/>
      <point x="493" y="161" type="curve" smooth="yes"/>
    </contour>
  </outline>
</glyph>
<glyph name="hhee.eth" format="2">
	<advance width="736"/>
	<unicode hex="1214"/>
	<anchor x="386" y="714" name="top"/>
	<note>
		uni1214
	</note>
	<outline>
		<contour>
			<point x="493" y="0" type="line"/>
			<point x="584" y="0" type="line" smooth="yes"/>
			<point x="681" y="0"/>
			<point x="718" y="51"/>
			<point x="718" y="123" type="curve" smooth="yes"/>
			<point x="718" y="186"/>
			<point x="686" y="229"/>
			<point x="613" y="229" type="curve" smooth="yes"/>
			<point x="493" y="229" type="line"/>
		</contour>
		<contour>
			<point x="519" y="24" type="line"/>
			<point x="509" y="205" type="line"/>
			<point x="609" y="205" type="line" smooth="yes"/>
			<point x="669" y="205"/>
			<point x="691" y="172"/>
			<point x="691" y="121" type="curve" smooth="yes"/>
			<point x="691" y="64"/>
			<point x="660" y="24"/>
			<point x="583" y="24" type="curve" smooth="yes"/>
		</contour>
		<component base="hha.eth"/>
	</outline>
</glyph>
<glyph name="ma.eth" format="2">
  <advance width="748"/>
  <unicode hex="1218"/>
  <note>
uni1218
</note>
  <anchor x="374" y="714" name="top"/>
  <outline>
    <contour>
      <point x="208" y="-10" type="curve" smooth="yes"/>
      <point x="266" y="-10"/>
      <point x="301" y="24"/>
      <point x="333" y="109" type="curve"/>
      <point x="333" y="690" type="line"/>
      <point x="437" y="690" type="line"/>
      <point x="437" y="73" type="line"/>
      <point x="497" y="73" type="line" smooth="yes"/>
      <point x="623" y="73"/>
      <point x="678" y="176"/>
      <point x="678" y="401" type="curve" smooth="yes"/>
      <point x="678" y="615"/>
      <point x="628" y="714"/>
      <point x="507" y="714" type="curve" smooth="yes"/>
      <point x="286" y="714" type="line" smooth="yes"/>
      <point x="170" y="714"/>
      <point x="70" y="619"/>
      <point x="70" y="296" type="curve" smooth="yes"/>
      <point x="70" y="70"/>
      <point x="119" y="-10"/>
    </contour>
    <contour>
      <point x="208" y="15" type="curve" smooth="yes"/>
      <point x="140" y="15"/>
      <point x="96" y="86"/>
      <point x="96" y="298" type="curve" smooth="yes"/>
      <point x="96" y="595"/>
      <point x="182" y="690"/>
      <point x="289" y="690" type="curve" smooth="yes"/>
      <point x="307" y="690" type="line"/>
      <point x="307" y="115" type="line"/>
      <point x="286" y="51"/>
      <point x="256" y="15"/>
    </contour>
    <contour>
      <point x="463" y="97" type="line"/>
      <point x="463" y="690" type="line"/>
      <point x="502" y="690" type="line" smooth="yes"/>
      <point x="613" y="690"/>
      <point x="652" y="591"/>
      <point x="652" y="398" type="curve" smooth="yes"/>
      <point x="652" y="196"/>
      <point x="609" y="97"/>
      <point x="492" y="97" type="curve" smooth="yes"/>
    </contour>
  </outline>
</glyph>
<glyph name="mu.eth" format="2">
  <advance width="855"/>
  <unicode hex="1219"/>
  <note>
uni1219
</note>
  <anchor x="455" y="714" name="top"/>
  <outline>
    <contour>
      <point x="208" y="-10" type="curve" smooth="yes"/>
      <point x="266" y="-10"/>
      <point x="301" y="24"/>
      <point x="333" y="109" type="curve"/>
      <point x="333" y="690" type="line"/>
      <point x="437" y="690" type="line"/>
      <point x="437" y="73" type="line"/>
      <point x="497" y="73" type="line" smooth="yes"/>
      <point x="623" y="73"/>
      <point x="678" y="176"/>
      <point x="678" y="401" type="curve" smooth="yes"/>
      <point x="678" y="615"/>
      <point x="628" y="714"/>
      <point x="507" y="714" type="curve" smooth="yes"/>
      <point x="286" y="714" type="line" smooth="yes"/>
      <point x="170" y="714"/>
      <point x="70" y="619"/>
      <point x="70" y="296" type="curve" smooth="yes"/>
      <point x="70" y="70"/>
      <point x="119" y="-10"/>
    </contour>
    <contour>
      <point x="208" y="15" type="curve" smooth="yes"/>
      <point x="140" y="15"/>
      <point x="96" y="86"/>
      <point x="96" y="298" type="curve" smooth="yes"/>
      <point x="96" y="595"/>
      <point x="182" y="690"/>
      <point x="289" y="690" type="curve" smooth="yes"/>
      <point x="307" y="690" type="line"/>
      <point x="307" y="115" type="line"/>
      <point x="286" y="51"/>
      <point x="256" y="15"/>
    </contour>
    <contour>
      <point x="463" y="97" type="line"/>
      <point x="463" y="690" type="line"/>
      <point x="502" y="690" type="line" smooth="yes"/>
      <point x="613" y="690"/>
      <point x="652" y="591"/>
      <point x="652" y="398" type="curve" smooth="yes"/>
      <point x="652" y="196"/>
      <point x="609" y="97"/>
      <point x="492" y="97" type="curve" smooth="yes"/>
    </contour>
    <component base="rightdoubleflag" xOffset="626" yOffset="373"/>
  </outline>
</glyph>
<glyph name="mi.eth" format="2">
  <advance width="734"/>
  <unicode hex="121A"/>
  <note>
uni121A
</note>
  <anchor x="379" y="714" name="top"/>
  <outline>
    <contour>
      <point x="487" y="0" type="line"/>
      <point x="506" y="0" type="line"/>
      <point x="637" y="401" type="line" smooth="yes"/>
      <point x="664" y="484"/>
      <point x="680" y="538"/>
      <point x="680" y="590" type="curve" smooth="yes"/>
      <point x="680" y="676"/>
      <point x="635" y="714"/>
      <point x="554" y="714" type="curve" smooth="yes"/>
      <point x="235" y="714" type="line" smooth="yes"/>
      <point x="116" y="714"/>
      <point x="40" y="632"/>
      <point x="40" y="486" type="curve" smooth="yes"/>
      <point x="40" y="367"/>
      <point x="90" y="299"/>
      <point x="175" y="299" type="curve" smooth="yes"/>
      <point x="231" y="299"/>
      <point x="272" y="329"/>
      <point x="308" y="373" type="curve"/>
      <point x="308" y="691" type="line"/>
      <point x="450" y="691" type="line"/>
      <point x="437" y="642"/>
      <point x="425" y="585"/>
      <point x="425" y="536" type="curve" smooth="yes"/>
      <point x="425" y="434"/>
      <point x="454" y="384"/>
      <point x="536" y="384" type="curve" smooth="yes"/>
      <point x="606" y="384" type="line"/>
      <point x="487" y="23" type="line"/>
    </contour>
    <contour>
      <point x="496" y="0" type="line"/>
      <point x="569" y="0" type="line"/>
      <point x="569" y="25" type="line"/>
      <point x="496" y="25" type="line"/>
    </contour>
    <contour>
      <point x="176" y="322" type="curve" smooth="yes"/>
      <point x="109" y="322"/>
      <point x="65" y="375"/>
      <point x="65" y="486" type="curve" smooth="yes"/>
      <point x="65" y="616"/>
      <point x="126" y="691"/>
      <point x="235" y="691" type="curve" smooth="yes"/>
      <point x="282" y="691" type="line"/>
      <point x="282" y="382" type="line"/>
      <point x="256" y="347"/>
      <point x="222" y="322"/>
    </contour>
    <contour>
      <point x="546" y="407" type="line" smooth="yes"/>
      <point x="473" y="407"/>
      <point x="451" y="441"/>
      <point x="451" y="536" type="curve" smooth="yes"/>
      <point x="451" y="577"/>
      <point x="460" y="641"/>
      <point x="475" y="691" type="curve"/>
      <point x="550" y="691" type="line" smooth="yes"/>
      <point x="616" y="691"/>
      <point x="654" y="663"/>
      <point x="654" y="587" type="curve" smooth="yes"/>
      <point x="654" y="543"/>
      <point x="641" y="487"/>
      <point x="622" y="433" type="curve" smooth="yes"/>
      <point x="613" y="407" type="line"/>
    </contour>
    <component base="rightdoubleflag" xOffset="505"/>
  </outline>
</glyph>
<glyph name="mee.eth" format="2">
  <advance width="769"/>
  <unicode hex="121C"/>
  <note>
uni121C
</note>
  <anchor x="395" y="714" name="top"/>
  <outline>
    <contour>
      <point x="488" y="0" type="line"/>
      <point x="507" y="0" type="line"/>
      <point x="637" y="401" type="line" smooth="yes"/>
      <point x="664" y="484"/>
      <point x="680" y="538"/>
      <point x="680" y="590" type="curve" smooth="yes"/>
      <point x="680" y="676"/>
      <point x="635" y="714"/>
      <point x="554" y="714" type="curve" smooth="yes"/>
      <point x="235" y="714" type="line" smooth="yes"/>
      <point x="116" y="714"/>
      <point x="40" y="632"/>
      <point x="40" y="486" type="curve" smooth="yes"/>
      <point x="40" y="367"/>
      <point x="90" y="299"/>
      <point x="175" y="299" type="curve" smooth="yes"/>
      <point x="231" y="299"/>
      <point x="272" y="329"/>
      <point x="308" y="373" type="curve"/>
      <point x="308" y="691" type="line"/>
      <point x="450" y="691" type="line"/>
      <point x="437" y="642"/>
      <point x="425" y="585"/>
      <point x="425" y="536" type="curve" smooth="yes"/>
      <point x="425" y="434"/>
      <point x="454" y="384"/>
      <point x="536" y="384" type="curve" smooth="yes"/>
      <point x="604" y="384" type="line"/>
      <point x="488" y="24" type="line"/>
    </contour>
    <contour>
      <point x="176" y="322" type="curve" smooth="yes"/>
      <point x="109" y="322"/>
      <point x="65" y="375"/>
      <point x="65" y="486" type="curve" smooth="yes"/>
      <point x="65" y="616"/>
      <point x="126" y="691"/>
      <point x="235" y="691" type="curve" smooth="yes"/>
      <point x="282" y="691" type="line"/>
      <point x="282" y="382" type="line"/>
      <point x="256" y="347"/>
      <point x="222" y="322"/>
    </contour>
    <contour>
      <point x="512" y="24" type="line"/>
      <point x="568" y="205" type="line"/>
      <point x="641" y="205" type="line" smooth="yes"/>
      <point x="700" y="205"/>
      <point x="723" y="171"/>
      <point x="723" y="121" type="curve" smooth="yes"/>
      <point x="723" y="65"/>
      <point x="695" y="24"/>
      <point x="615" y="24" type="curve" smooth="yes"/>
    </contour>
    <contour>
      <point x="495" y="0" type="line"/>
      <point x="617" y="0" type="line" smooth="yes"/>
      <point x="713" y="0"/>
      <point x="751" y="54"/>
      <point x="751" y="123" type="curve" smooth="yes"/>
      <point x="751" y="186"/>
      <point x="718" y="229"/>
      <point x="646" y="229" type="curve" smooth="yes"/>
      <point x="570" y="229" type="line"/>
    </contour>
    <contour>
      <point x="546" y="407" type="line" smooth="yes"/>
      <point x="473" y="407"/>
      <point x="451" y="441"/>
      <point x="451" y="536" type="curve" smooth="yes"/>
      <point x="451" y="577"/>
      <point x="460" y="641"/>
      <point x="475" y="691" type="curve"/>
      <point x="550" y="691" type="line" smooth="yes"/>
      <point x="616" y="691"/>
      <point x="654" y="663"/>
      <point x="654" y="587" type="curve" smooth="yes"/>
      <point x="654" y="543"/>
      <point x="641" y="487"/>
      <point x="622" y="433" type="curve" smooth="yes"/>
      <point x="613" y="407" type="line"/>
    </contour>
  </outline>
</glyph>
<glyph name="me.eth" format="2">
  <advance width="710"/>
  <unicode hex="121D"/>
  <note>
uni121D
</note>
  <anchor x="357" y="714" name="top"/>
  <outline>
    <contour>
      <point x="173" y="304" type="curve" smooth="yes"/>
      <point x="234" y="304"/>
      <point x="280" y="344"/>
      <point x="310" y="397" type="curve"/>
      <point x="310" y="691" type="line"/>
      <point x="440" y="691" type="line"/>
      <point x="440" y="395" type="line"/>
      <point x="516" y="395" type="line" smooth="yes"/>
      <point x="633" y="395"/>
      <point x="675" y="468"/>
      <point x="675" y="558" type="curve" smooth="yes"/>
      <point x="675" y="654"/>
      <point x="638" y="714"/>
      <point x="527" y="714" type="curve" smooth="yes"/>
      <point x="251" y="714" type="line" smooth="yes"/>
      <point x="117" y="714"/>
      <point x="40" y="633"/>
      <point x="40" y="483" type="curve" smooth="yes"/>
      <point x="40" y="369"/>
      <point x="95" y="304"/>
    </contour>
    <contour>
      <point x="156" y="0" type="line"/>
      <point x="183" y="0" type="line"/>
      <point x="310" y="397" type="line"/>
      <point x="285" y="397" type="line"/>
    </contour>
    <contour>
      <point x="175" y="327" type="curve" smooth="yes"/>
      <point x="109" y="327"/>
      <point x="65" y="383"/>
      <point x="65" y="484" type="curve" smooth="yes"/>
      <point x="65" y="618"/>
      <point x="132" y="691"/>
      <point x="255" y="691" type="curve" smooth="yes"/>
      <point x="284" y="691" type="line"/>
      <point x="284" y="403" type="line"/>
      <point x="263" y="362"/>
      <point x="228" y="327"/>
    </contour>
    <contour>
      <point x="466" y="419" type="line"/>
      <point x="466" y="691" type="line"/>
      <point x="524" y="691" type="line" smooth="yes"/>
      <point x="621" y="691"/>
      <point x="650" y="641"/>
      <point x="650" y="559" type="curve" smooth="yes"/>
      <point x="650" y="481"/>
      <point x="620" y="419"/>
      <point x="512" y="419" type="curve" smooth="yes"/>
    </contour>
  </outline>
</glyph>
<glyph name="mo.eth" format="2">
  <advance width="710"/>
  <unicode hex="121E"/>
  <note>
uni121E
</note>
  <anchor x="357" y="714" name="top"/>
  <outline>
    <contour>
      <point x="173" y="304" type="curve" smooth="yes"/>
      <point x="241" y="304"/>
      <point x="286" y="350"/>
      <point x="310" y="405" type="curve"/>
      <point x="310" y="691" type="line"/>
      <point x="440" y="691" type="line"/>
      <point x="440" y="395" type="line"/>
      <point x="516" y="395" type="line" smooth="yes"/>
      <point x="633" y="395"/>
      <point x="675" y="466"/>
      <point x="675" y="562" type="curve" smooth="yes"/>
      <point x="675" y="654"/>
      <point x="636" y="714"/>
      <point x="527" y="714" type="curve" smooth="yes"/>
      <point x="251" y="714" type="line" smooth="yes"/>
      <point x="117" y="714"/>
      <point x="40" y="631"/>
      <point x="40" y="487" type="curve" smooth="yes"/>
      <point x="40" y="366"/>
      <point x="97" y="304"/>
    </contour>
    <contour>
      <point x="284" y="0" type="line"/>
      <point x="310" y="0" type="line"/>
      <point x="310" y="426" type="line"/>
      <point x="284" y="426" type="line"/>
    </contour>
    <contour>
      <point x="175" y="327" type="curve" smooth="yes"/>
      <point x="109" y="327"/>
      <point x="65" y="382"/>
      <point x="65" y="487" type="curve" smooth="yes"/>
      <point x="65" y="617"/>
      <point x="132" y="691"/>
      <point x="255" y="691" type="curve" smooth="yes"/>
      <point x="284" y="691" type="line"/>
      <point x="284" y="403" type="line"/>
      <point x="263" y="362"/>
      <point x="228" y="327"/>
    </contour>
    <contour>
      <point x="466" y="419" type="line"/>
      <point x="466" y="691" type="line"/>
      <point x="524" y="691" type="line" smooth="yes"/>
      <point x="620" y="691"/>
      <point x="650" y="641"/>
      <point x="650" y="560" type="curve" smooth="yes"/>
      <point x="650" y="481"/>
      <point x="621" y="419"/>
      <point x="512" y="419" type="curve" smooth="yes"/>
    </contour>
  </outline>
</glyph>
<glyph name="sza.eth" format="2">
  <advance width="665"/>
  <unicode hex="1220"/>
  <note>
uni1220
</note>
  <anchor x="332" y="714" name="top"/>
  <outline>
    <contour>
      <point x="209" y="-10" type="curve" smooth="yes"/>
      <point x="305" y="-10"/>
      <point x="337" y="66"/>
      <point x="341" y="187" type="curve"/>
      <point x="357" y="134"/>
      <point x="389" y="98"/>
      <point x="454" y="98" type="curve" smooth="yes"/>
      <point x="548" y="98"/>
      <point x="585" y="171"/>
      <point x="585" y="315" type="curve" smooth="yes"/>
      <point x="585" y="714" type="line"/>
      <point x="559" y="714" type="line"/>
      <point x="559" y="319" type="line" smooth="yes"/>
      <point x="559" y="185"/>
      <point x="533" y="122"/>
      <point x="454" y="122" type="curve" smooth="yes"/>
      <point x="364" y="122"/>
      <point x="345" y="211"/>
      <point x="345" y="299" type="curve" smooth="yes"/>
      <point x="345" y="714" type="line"/>
      <point x="319" y="714" type="line"/>
      <point x="319" y="203" type="line" smooth="yes"/>
      <point x="319" y="70"/>
      <point x="279" y="14"/>
      <point x="210" y="14" type="curve" smooth="yes"/>
      <point x="145" y="14"/>
      <point x="106" y="65"/>
      <point x="106" y="201" type="curve" smooth="yes"/>
      <point x="106" y="714" type="line"/>
      <point x="80" y="714" type="line"/>
      <point x="80" y="195" type="line" smooth="yes"/>
      <point x="80" y="53"/>
      <point x="122" y="-10"/>
    </contour>
  </outline>
</glyph>
<glyph name="szi.eth" format="2">
  <advance width="628"/>
  <unicode hex="1222"/>
  <note>
uni1222
</note>
  <anchor x="351" y="714" name="top"/>
  <outline>
    <contour>
      <point x="390" y="0" type="line"/>
      <point x="409" y="0" type="line"/>
      <point x="571" y="496" type="line"/>
      <point x="546" y="497" type="line"/>
      <point x="390" y="23" type="line"/>
    </contour>
    <contour>
      <point x="400" y="0" type="line"/>
      <point x="473" y="0" type="line"/>
      <point x="473" y="25" type="line"/>
      <point x="400" y="25" type="line"/>
    </contour>
    <component base="shorttoploops"/>
    <component base="rightdoubleflag" xOffset="409"/>
  </outline>
</glyph>
<glyph name="szee.eth" format="2">
  <advance width="675"/>
  <unicode hex="1224"/>
  <note>
uni1224
</note>
  <anchor x="368" y="714" name="top"/>
  <outline>
    <contour>
      <point x="389" y="0" type="line"/>
      <point x="410" y="0" type="line"/>
      <point x="571" y="496" type="line"/>
      <point x="531" y="454" type="line"/>
      <point x="389" y="23" type="line"/>
    </contour>
    <contour>
      <point x="416" y="24" type="line"/>
      <point x="474" y="205" type="line"/>
      <point x="548" y="205" type="line" smooth="yes"/>
      <point x="608" y="205"/>
      <point x="630" y="172"/>
      <point x="630" y="121" type="curve" smooth="yes"/>
      <point x="630" y="64"/>
      <point x="599" y="24"/>
      <point x="522" y="24" type="curve" smooth="yes"/>
    </contour>
    <contour>
      <point x="390" y="0" type="line" smooth="yes"/>
      <point x="523" y="0" type="line" smooth="yes"/>
      <point x="620" y="0"/>
      <point x="657" y="51"/>
      <point x="657" y="123" type="curve" smooth="yes"/>
      <point x="657" y="186"/>
      <point x="625" y="229"/>
      <point x="552" y="229" type="curve" smooth="yes"/>
      <point x="463" y="229" type="line"/>
    </contour>
    <component base="shorttoploops"/>
  </outline>
</glyph>
<glyph name="sze.eth" format="2">
  <advance width="736"/>
  <unicode hex="1225"/>
  <note>
uni1225
</note>
  <anchor x="348" y="714" name="top"/>
  <outline>
    <contour>
      <point x="40" y="0" type="line"/>
      <point x="66" y="0" type="line"/>
      <point x="186" y="357" type="line"/>
      <point x="169" y="383" type="line"/>
    </contour>
    <component base="shorttoploops" xOffset="71"/>
  </outline>
</glyph>
<glyph name="szo.eth" format="2">
  <advance width="665"/>
  <unicode hex="1226"/>
  <note>
uni1226
</note>
  <anchor x="332" y="714" name="top"/>
  <outline>
    <contour>
      <point x="173" y="0" type="line"/>
      <point x="199" y="0" type="line"/>
      <point x="361" y="472" type="line"/>
      <point x="344" y="500" type="line"/>
    </contour>
    <component base="shorttoploops"/>
  </outline>
</glyph>
<glyph name="ru.eth" format="2">
  <advance width="499"/>
  <unicode hex="1229"/>
  <note>
uni1229
</note>
  <anchor x="268" y="714" name="top"/>
  <outline>
    <contour>
      <point x="281" y="0" type="line"/>
      <point x="307" y="0" type="line"/>
      <point x="307" y="203" type="line"/>
      <point x="393" y="203" type="line"/>
      <point x="375" y="228" type="line"/>
      <point x="203" y="228" type="line" smooth="yes"/>
      <point x="119" y="228"/>
      <point x="79" y="266"/>
      <point x="79" y="342" type="curve" smooth="yes"/>
      <point x="79" y="419"/>
      <point x="113" y="455"/>
      <point x="204" y="509" type="curve" smooth="yes"/>
      <point x="289" y="559"/>
      <point x="338" y="611"/>
      <point x="340" y="714" type="curve"/>
      <point x="314" y="714" type="line"/>
      <point x="312" y="618"/>
      <point x="268" y="576"/>
      <point x="190" y="530" type="curve" smooth="yes"/>
      <point x="93" y="473"/>
      <point x="52" y="429"/>
      <point x="52" y="341" type="curve" smooth="yes"/>
      <point x="52" y="250"/>
      <point x="101" y="203"/>
      <point x="200" y="203" type="curve" smooth="yes"/>
      <point x="281" y="203" type="line"/>
    </contour>
    <component base="rightsingleflag" xOffset="270" yOffset="-160"/>
  </outline>
</glyph>
<glyph name="ri.eth" format="2">
  <advance width="479"/>
  <unicode hex="122A"/>
  <note>
uni122A
</note>
  <anchor x="239" y="714" name="top"/>
  <outline>
    <contour>
      <point x="241" y="0" type="line"/>
      <point x="372" y="0"/>
      <point x="427" y="87"/>
      <point x="427" y="221" type="curve" smooth="yes"/>
      <point x="427" y="232" type="line"/>
      <point x="399" y="232" type="line"/>
      <point x="399" y="220" type="line" smooth="yes"/>
      <point x="399" y="91"/>
      <point x="350" y="25"/>
      <point x="241" y="25" type="curve"/>
    </contour>
    <component base="nose"/>
  </outline>
</glyph>
<glyph name="raa.eth" format="2">
  <advance width="516"/>
  <unicode hex="122B"/>
  <note>
uni122B
</note>
  <anchor x="276" y="714" name="top"/>
  <outline>
    <contour>
      <point x="240" y="0" type="line"/>
      <point x="292" y="0" type="line"/>
      <point x="296" y="173"/>
      <point x="320" y="261"/>
      <point x="447" y="261" type="curve"/>
      <point x="453" y="223"/>
      <point x="470" y="189"/>
      <point x="492" y="189" type="curve" smooth="yes"/>
      <point x="501" y="189" type="line"/>
      <point x="482" y="286" type="line"/>
      <point x="450" y="286" type="line" smooth="yes"/>
      <point x="297" y="286"/>
      <point x="273" y="176"/>
      <point x="267" y="25" type="curve"/>
      <point x="240" y="25" type="line"/>
    </contour>
    <component base="nose"/>
  </outline>
</glyph>
<glyph name="ree.eth" format="2">
  <advance width="517"/>
  <unicode hex="122C"/>
  <note>
uni122C
</note>
  <anchor x="273" y="714" name="top"/>
  <outline>
    <contour>
      <point x="239" y="0" type="line"/>
      <point x="389" y="0" type="line"/>
      <point x="389" y="7" type="line"/>
      <point x="333" y="25" type="line"/>
      <point x="239" y="25" type="line"/>
    </contour>
    <component base="nose"/>
    <component base="ballbig" xOffset="244" yOffset="-177"/>
  </outline>
</glyph>
<glyph name="re.eth" format="2">
  <advance width="406"/>
  <unicode hex="122D"/>
  <note>
uni122D
</note>
  <anchor x="230" y="714" name="top"/>
  <outline>
    <contour>
      <point x="382" y="-72" type="curve" smooth="yes"/>
      <point x="390" y="-72" type="line"/>
      <point x="373" y="13" type="line"/>
      <point x="389" y="96" type="line"/>
      <point x="382" y="96" type="line" smooth="yes"/>
      <point x="360" y="96"/>
      <point x="344" y="68"/>
      <point x="336" y="25" type="curve"/>
      <point x="259" y="25" type="line" smooth="yes"/>
      <point x="142" y="25"/>
      <point x="96" y="80"/>
      <point x="96" y="221" type="curve" smooth="yes"/>
      <point x="96" y="312" type="line" smooth="yes"/>
      <point x="96" y="598"/>
      <point x="173" y="689"/>
      <point x="307" y="689" type="curve" smooth="yes"/>
      <point x="337" y="689" type="line"/>
      <point x="345" y="643"/>
      <point x="362" y="617"/>
      <point x="384" y="617" type="curve" smooth="yes"/>
      <point x="391" y="617" type="line"/>
      <point x="372" y="714" type="line"/>
      <point x="306" y="714" type="line" smooth="yes"/>
      <point x="155" y="714"/>
      <point x="70" y="606"/>
      <point x="70" y="316" type="curve" smooth="yes"/>
      <point x="70" y="217" type="line" smooth="yes"/>
      <point x="70" y="62"/>
      <point x="123" y="0"/>
      <point x="255" y="0" type="curve" smooth="yes"/>
      <point x="336" y="0" type="line"/>
      <point x="344" y="-44"/>
      <point x="359" y="-72"/>
    </contour>
  </outline>
</glyph>
<glyph name="ro.eth" format="2">
  <advance width="486"/>
  <unicode hex="122E"/>
  <note>
uni122E
</note>
  <anchor x="267" y="714" name="top"/>
  <outline>
    <contour>
      <point x="382" y="-72" type="curve" smooth="yes"/>
      <point x="390" y="-72" type="line"/>
      <point x="373" y="13" type="line"/>
      <point x="389" y="96" type="line"/>
      <point x="382" y="96" type="line" smooth="yes"/>
      <point x="360" y="96"/>
      <point x="344" y="68"/>
      <point x="336" y="25" type="curve"/>
      <point x="259" y="25" type="line" smooth="yes"/>
      <point x="142" y="25"/>
      <point x="96" y="80"/>
      <point x="96" y="221" type="curve" smooth="yes"/>
      <point x="96" y="312" type="line" smooth="yes"/>
      <point x="96" y="598"/>
      <point x="174" y="690"/>
      <point x="308" y="690" type="curve"/>
      <point x="354" y="714" type="line"/>
      <point x="313" y="714" type="line" smooth="yes"/>
      <point x="151" y="714"/>
      <point x="70" y="606"/>
      <point x="70" y="316" type="curve" smooth="yes"/>
      <point x="70" y="217" type="line" smooth="yes"/>
      <point x="70" y="62"/>
      <point x="123" y="0"/>
      <point x="255" y="0" type="curve" smooth="yes"/>
      <point x="336" y="0" type="line"/>
      <point x="344" y="-44"/>
      <point x="359" y="-72"/>
    </contour>
    <component base="ballbig" xOffset="213" yOffset="292"/>
  </outline>
</glyph>
<glyph name="sa.eth" format="2">
	<advance width="486"/>
	<unicode hex="1230"/>
	<anchor x="243" y="760" name="top"/>
	<note>
		uni1230
	</note>
	<outline>
		<contour>
			<point x="231" y="590" type="line"/>
			<point x="257" y="590" type="line"/>
			<point x="257" y="760" type="line"/>
			<point x="231" y="760" type="line"/>
		</contour>
		<component base="shortnarch"/>
	</outline>
</glyph>
<glyph name="saa.eth" format="2">
  <advance width="486"/>
  <unicode hex="1233"/>
  <note>
uni1233
</note>
  <anchor x="243" y="760" name="top"/>
  <outline>
    <contour>
      <point x="224" y="590" type="line"/>
      <point x="250" y="590" type="line"/>
      <point x="250" y="760" type="line"/>
      <point x="224" y="760" type="line"/>
    </contour>
    <component base="baashort" xOffset="12"/>
  </outline>
</glyph>
<glyph name="se.eth" format="2">
	<advance width="486"/>
	<unicode hex="1235"/>
	<anchor x="243" y="760" name="top"/>
	<note>
		uni1235
	</note>
	<outline>
		<contour>
			<point x="232" y="590" type="line"/>
			<point x="260" y="590" type="line"/>
			<point x="195" y="760" type="line"/>
			<point x="167" y="760" type="line"/>
		</contour>
		<component base="shortnarch"/>
	</outline>
</glyph>
<glyph name="qe.eth" format="2">
	<advance width="488"/>
	<unicode hex="1245"/>
	<anchor x="244" y="845" name="top"/>
	<note>
		uni1245
	</note>
	<outline>
		<contour>
			<point x="231" y="705" type="line"/>
			<point x="257" y="705" type="line"/>
			<point x="257" y="773" type="line"/>
			<point x="231" y="773" type="line"/>
		</contour>
		<component base="qa.eth"/>
		<component base="leftsingleflag" yScale="-1" xOffset="50" yOffset="1136"/>
	</outline>
</glyph>
<glyph name="qwi.eth" format="2">
  <advance width="751"/>
  <unicode hex="124A"/>
  <note>
uni124A
</note>
  <anchor x="388" y="714" name="top"/>
  <outline>
    <contour>
      <point x="728" y="234" type="curve" smooth="yes"/>
      <point x="736" y="234" type="line"/>
      <point x="717" y="331" type="line"/>
      <point x="568" y="331" type="line"/>
      <point x="568" y="306" type="line"/>
      <point x="682" y="306" type="line"/>
      <point x="690" y="260"/>
      <point x="707" y="234"/>
    </contour>
    <contour>
      <point x="430" y="393" type="line"/>
      <point x="579" y="393" type="line"/>
      <point x="579" y="418" type="line"/>
      <point x="430" y="418" type="line"/>
    </contour>
    <contour>
      <point x="568" y="306" type="line"/>
      <point x="594" y="306" type="line"/>
      <point x="594" y="505" type="line"/>
      <point x="568" y="505" type="line"/>
    </contour>
    <component base="qa.eth"/>
  </outline>
</glyph>
<glyph name="qwaa.eth" format="2">
  <advance width="488"/>
  <unicode hex="124B"/>
  <note>
uni124B
</note>
  <anchor x="244" y="713" name="top"/>
  <outline>
    <contour>
      <point x="161" y="130" type="line"/>
      <point x="429" y="130" type="line"/>
      <point x="429" y="155" type="line"/>
      <point x="161" y="155" type="line"/>
    </contour>
    <contour>
      <point x="404" y="0" type="line"/>
      <point x="430" y="0" type="line"/>
      <point x="430" y="155" type="line"/>
      <point x="404" y="155" type="line"/>
    </contour>
    <component base="midring" yOffset="46"/>
    <component base="leftsingleflag" xOffset="34" yOffset="-233"/>
    <component base="stem1" yScale="0.785" xOffset="167" yOffset="153"/>
  </outline>
</glyph>
<glyph name="qwe.eth" format="2">
  <advance width="735"/>
  <unicode hex="124D"/>
  <note>
uni124D
</note>
  <anchor x="380" y="714" name="top"/>
  <outline>
    <contour>
      <point x="560" y="378" type="line"/>
      <point x="586" y="378" type="line"/>
      <point x="586" y="557" type="line"/>
      <point x="560" y="557" type="line"/>
    </contour>
    <contour>
      <point x="432" y="378" type="line"/>
      <point x="571" y="378" type="line"/>
      <point x="571" y="403" type="line"/>
      <point x="432" y="403" type="line"/>
    </contour>
    <component base="rightsingleflag" xOffset="506" yOffset="15"/>
    <component base="qa.eth"/>
  </outline>
</glyph>
<glyph name="qha.eth" format="2">
  <advance width="488"/>
  <unicode hex="1250"/>
  <note>
uni1250
</note>
  <anchor x="244" y="844" name="top"/>
  <outline>
    <contour>
      <point x="231" y="696" type="line"/>
      <point x="257" y="696" type="line"/>
      <point x="257" y="766" type="line"/>
      <point x="231" y="766" type="line"/>
    </contour>
    <component base="qa.eth"/>
    <component base="bonemiddle" xOffset="26"/>
  </outline>
</glyph>
<glyph name="qhu.eth" format="2">
  <advance width="492"/>
  <unicode hex="1251"/>
  <note>
uni1251
</note>
  <anchor x="246" y="844" name="top"/>
  <outline>
    <contour>
      <point x="235" y="696" type="line"/>
      <point x="261" y="696" type="line"/>
      <point x="261" y="766" type="line"/>
      <point x="235" y="766" type="line"/>
    </contour>
    <component base="qu.eth" xOffset="4"/>
    <component base="bonemiddle" xOffset="25"/>
  </outline>
</glyph>
<glyph name="qhaa.eth" format="2">
	<advance width="510"/>
	<unicode hex="1253"/>
	<anchor x="255" y="844" name="top"/>
	<note>
		uni1253
	</note>
	<outline>
		<contour>
			<point x="253" y="696" type="line"/>
			<point x="279" y="696" type="line"/>
			<point x="279" y="766" type="line"/>
			<point x="253" y="766" type="line"/>
		</contour>
		<component base="qaa.eth" xOffset="25"/>
		<component base="bonemiddle" xOffset="48"/>
	</outline>
</glyph>
<glyph name="qhe.eth" format="2">
  <advance width="628"/>
  <unicode hex="1255"/>
  <note>
uni1255
</note>
  <anchor x="301" y="844" name="top"/>
  <outline>
    <contour>
      <point x="371" y="0" type="line"/>
      <point x="397" y="0" type="line"/>
      <point x="397" y="581" type="line"/>
      <point x="372" y="581" type="line" smooth="yes"/>
      <point x="259" y="581"/>
      <point x="215" y="622"/>
      <point x="215" y="737" type="curve" smooth="yes"/>
      <point x="215" y="764" type="line"/>
      <point x="189" y="764" type="line"/>
      <point x="189" y="735" type="line" smooth="yes"/>
      <point x="189" y="610"/>
      <point x="239" y="556"/>
      <point x="371" y="556" type="curve"/>
    </contour>
    <component base="midringshort" xOffset="140" yOffset="-104"/>
    <component base="bone"/>
  </outline>
</glyph>
<glyph name="qhwa.eth" format="2">
  <advance width="535"/>
  <unicode hex="1258"/>
  <note>
uni1258
</note>
  <anchor x="276" y="844" name="top"/>
  <outline>
    <contour>
      <point x="235" y="696" type="line"/>
      <point x="261" y="696" type="line"/>
      <point x="261" y="766" type="line"/>
      <point x="235" y="766" type="line"/>
    </contour>
    <component base="stem1" xOffset="171"/>
    <component base="rightbulbsmall" xOffset="248" yOffset="-195"/>
    <component base="midringshort" xOffset="2" yOffset="47"/>
    <component base="bonemiddle" xOffset="25"/>
  </outline>
</glyph>
<glyph name="qhwi.eth" format="2">
  <advance width="756"/>
  <unicode hex="125A"/>
  <note>
uni125A
</note>
  <anchor x="390" y="844" name="top"/>
  <outline>
    <contour>
      <point x="733" y="234" type="curve" smooth="yes"/>
      <point x="741" y="234" type="line"/>
      <point x="722" y="331" type="line"/>
      <point x="573" y="331" type="line"/>
      <point x="573" y="306" type="line"/>
      <point x="687" y="306" type="line"/>
      <point x="695" y="260"/>
      <point x="712" y="234"/>
    </contour>
    <contour>
      <point x="435" y="393" type="line"/>
      <point x="584" y="393" type="line"/>
      <point x="584" y="418" type="line"/>
      <point x="435" y="418" type="line"/>
    </contour>
    <contour>
      <point x="573" y="306" type="line"/>
      <point x="599" y="306" type="line"/>
      <point x="599" y="505" type="line"/>
      <point x="573" y="505" type="line"/>
    </contour>
    <component base="qha.eth"/>
  </outline>
</glyph>
<glyph name="qhwaa.eth" format="2">
  <advance width="490"/>
  <unicode hex="125B"/>
  <note>
uni125B
</note>
  <anchor x="245" y="844" name="top"/>
  <outline>
    <contour>
      <point x="161" y="130" type="line"/>
      <point x="404" y="130" type="line"/>
      <point x="404" y="155" type="line"/>
      <point x="161" y="155" type="line"/>
    </contour>
    <contour>
      <point x="379" y="0" type="line"/>
      <point x="405" y="0" type="line"/>
      <point x="405" y="155" type="line"/>
      <point x="379" y="155" type="line"/>
    </contour>
    <component base="midringshort" xOffset="2" yOffset="49"/>
    <component base="bonemiddle" xOffset="25"/>
    <component base="stem1" yScale="0.882" xOffset="172" yOffset="132"/>
    <component base="leftsingleflag" xOffset="34" yOffset="-233"/>
  </outline>
</glyph>
<glyph name="baa.eth" format="2">
  <advance width="479"/>
  <unicode hex="1263"/>
  <note>
uni1263
</note>
  <anchor x="236" y="724" name="top"/>
  <outline>
    <contour>
      <point x="373" y="0" type="line"/>
      <point x="399" y="0" type="line"/>
      <point x="399" y="498" type="line" smooth="yes"/>
      <point x="399" y="648"/>
      <point x="350" y="724"/>
      <point x="236" y="724" type="curve" smooth="yes"/>
      <point x="126" y="724"/>
      <point x="73" y="651"/>
      <point x="73" y="499" type="curve" smooth="yes"/>
      <point x="73" y="240" type="line"/>
      <point x="99" y="240" type="line"/>
      <point x="99" y="491" type="line" smooth="yes"/>
      <point x="99" y="630"/>
      <point x="142" y="700"/>
      <point x="236" y="700" type="curve" smooth="yes"/>
      <point x="330" y="700"/>
      <point x="373" y="631"/>
      <point x="373" y="492" type="curve" smooth="yes"/>
    </contour>
  </outline>
</glyph>
<glyph name="te.eth" format="2">
  <advance width="448"/>
  <unicode hex="1275"/>
  <note>
uni1275
</note>
  <anchor x="224" y="805" name="top"/>
  <outline>
    <contour>
      <point x="216" y="0" type="line"/>
      <point x="242" y="0" type="line"/>
      <point x="242" y="611" type="line"/>
      <point x="218" y="611" type="line" smooth="yes"/>
      <point x="131" y="611"/>
      <point x="97" y="653"/>
      <point x="97" y="769" type="curve" smooth="yes"/>
      <point x="97" y="805" type="line"/>
      <point x="71" y="805" type="line"/>
      <point x="71" y="768" type="line" smooth="yes"/>
      <point x="71" y="642"/>
      <point x="112" y="588"/>
      <point x="216" y="588" type="curve"/>
    </contour>
    <component base="footmiddle" yOffset="410"/>
  </outline>
</glyph>
<glyph name="caa.eth" format="2">
  <advance width="465"/>
  <unicode hex="127B"/>
  <note>
uni127B
</note>
  <anchor x="232" y="844" name="top"/>
  <outline>
    <contour>
      <point x="228" y="688" type="line"/>
      <point x="254" y="688" type="line"/>
      <point x="254" y="758" type="line"/>
      <point x="228" y="758" type="line"/>
    </contour>
    <component base="jstem"/>
    <component base="footmiddle" xOffset="17" yOffset="462"/>
    <component base="bonemiddle" xOffset="23"/>
  </outline>
</glyph>
<glyph name="cee.eth" format="2">
  <advance width="451"/>
  <unicode hex="127C"/>
  <note>
uni127C
</note>
  <anchor x="225" y="844" name="top"/>
  <outline>
    <contour>
      <point x="211" y="678" type="line"/>
      <point x="237" y="678" type="line"/>
      <point x="237" y="769" type="line"/>
      <point x="211" y="769" type="line"/>
    </contour>
    <component base="stem1" xOffset="147"/>
    <component base="baselinebowl" xOffset="171"/>
    <component base="bonemiddle" xOffset="6"/>
    <component base="footmiddle" yOffset="485"/>
  </outline>
</glyph>
<glyph name="ce.eth" format="2">
  <advance width="571"/>
  <unicode hex="127D"/>
  <note>
uni127D
</note>
  <anchor x="285" y="844" name="top"/>
  <outline>
    <contour>
      <point x="337" y="0" type="line"/>
      <point x="363" y="0" type="line"/>
      <point x="363" y="579" type="line"/>
      <point x="339" y="579" type="line" smooth="yes"/>
      <point x="252" y="579"/>
      <point x="218" y="621"/>
      <point x="218" y="737" type="curve" smooth="yes"/>
      <point x="218" y="773" type="line"/>
      <point x="192" y="773" type="line"/>
      <point x="192" y="736" type="line" smooth="yes"/>
      <point x="192" y="610"/>
      <point x="233" y="556"/>
      <point x="337" y="556" type="curve"/>
    </contour>
    <contour>
      <point x="34" y="748" type="line"/>
      <point x="331" y="748" type="line"/>
      <point x="339" y="705"/>
      <point x="354" y="676"/>
      <point x="377" y="676" type="curve" smooth="yes"/>
      <point x="385" y="676" type="line"/>
      <point x="368" y="762" type="line"/>
      <point x="384" y="844" type="line"/>
      <point x="377" y="844" type="line" smooth="yes"/>
      <point x="354" y="844"/>
      <point x="339" y="815"/>
      <point x="331" y="773" type="curve"/>
      <point x="68" y="773" type="line"/>
      <point x="60" y="815"/>
      <point x="45" y="844"/>
      <point x="22" y="844" type="curve" smooth="yes"/>
      <point x="15" y="844" type="line"/>
    </contour>
    <component base="footmiddle" xOffset="123" yOffset="436"/>
  </outline>
</glyph>
<glyph name="co.eth" format="2">
  <advance width="477"/>
  <unicode hex="127E"/>
  <note>
uni127E
</note>
  <anchor x="238" y="845" name="top"/>
  <outline>
    <contour>
      <point x="186" y="750" type="line"/>
      <point x="290" y="750" type="line"/>
      <point x="290" y="773" type="line"/>
      <point x="186" y="773" type="line"/>
    </contour>
    <component base="to.eth" xOffset="14"/>
    <component base="leftdoubleflag" xOffset="24" yOffset="748"/>
    <component base="rightsingleflag" yScale="-1" xOffset="234" yOffset="1136"/>
  </outline>
</glyph>
<glyph name="xaa.eth" format="2">
  <advance width="410"/>
  <unicode hex="1283"/>
  <note>
uni1283
</note>
  <anchor x="167" y="714" name="top"/>
  <outline>
    <contour>
      <point x="19" y="-72" type="line"/>
      <point x="28" y="-72" type="line" smooth="yes"/>
      <point x="48" y="-72"/>
      <point x="66" y="-44"/>
      <point x="73" y="0" type="curve"/>
      <point x="169" y="0" type="line" smooth="yes"/>
      <point x="273" y="0"/>
      <point x="320" y="67"/>
      <point x="320" y="214" type="curve" smooth="yes"/>
      <point x="320" y="384" type="line"/>
      <point x="294" y="384" type="line"/>
      <point x="294" y="219" type="line" smooth="yes"/>
      <point x="294" y="80"/>
      <point x="259" y="25"/>
      <point x="165" y="25" type="curve" smooth="yes"/>
      <point x="38" y="25" type="line"/>
    </contour>
    <contour>
      <point x="294" y="308" type="line"/>
      <point x="320" y="308" type="line"/>
      <point x="320" y="521" type="line"/>
      <point x="298" y="521" type="line" smooth="yes"/>
      <point x="230" y="521"/>
      <point x="202" y="562"/>
      <point x="202" y="677" type="curve" smooth="yes"/>
      <point x="202" y="714" type="line"/>
      <point x="176" y="714" type="line"/>
      <point x="176" y="675" type="line" smooth="yes"/>
      <point x="176" y="550"/>
      <point x="211" y="496"/>
      <point x="294" y="496" type="curve"/>
    </contour>
    <component base="leftsingleflag" yOffset="237"/>
  </outline>
</glyph>
<glyph name="xe.eth" format="2">
	<advance width="407"/>
	<unicode hex="1285"/>
	<anchor x="172" y="714" name="top"/>
	<note>
		uni1285
	</note>
	<outline>
		<contour>
			<point x="28" y="401" type="curve"/>
			<point x="55" y="401" type="line"/>
			<point x="56" y="551"/>
			<point x="100" y="612"/>
			<point x="163" y="626" type="curve"/>
			<point x="160" y="650" type="line"/>
			<point x="82" y="635"/>
			<point x="29" y="563"/>
		</contour>
		<component base="na.eth" xOffset="96"/>
	</outline>
</glyph>
<glyph name="xwi.eth" format="2">
  <advance width="642"/>
  <unicode hex="128A"/>
  <note>
uni128A
</note>
  <anchor x="321" y="714" name="top"/>
  <outline>
    <contour>
      <point x="619" y="130" type="curve" smooth="yes"/>
      <point x="627" y="130" type="line"/>
      <point x="608" y="227" type="line"/>
      <point x="459" y="227" type="line"/>
      <point x="459" y="202" type="line"/>
      <point x="573" y="202" type="line"/>
      <point x="581" y="156"/>
      <point x="598" y="130"/>
    </contour>
    <contour>
      <point x="321" y="289" type="line"/>
      <point x="470" y="289" type="line"/>
      <point x="470" y="314" type="line"/>
      <point x="321" y="314" type="line"/>
    </contour>
    <contour>
      <point x="459" y="202" type="line"/>
      <point x="485" y="202" type="line"/>
      <point x="485" y="401" type="line"/>
      <point x="459" y="401" type="line"/>
    </contour>
    <component base="xa.eth"/>
  </outline>
</glyph>
<glyph name="xwaa.eth" format="2">
  <advance width="458"/>
  <unicode hex="128B"/>
  <note>
uni128B
</note>
  <anchor x="227" y="714" name="top"/>
  <outline>
    <contour>
      <point x="317" y="139" type="line"/>
      <point x="343" y="139" type="line"/>
      <point x="343" y="520" type="line"/>
      <point x="319" y="520" type="line" smooth="yes"/>
      <point x="232" y="520"/>
      <point x="198" y="562"/>
      <point x="198" y="678" type="curve" smooth="yes"/>
      <point x="198" y="714" type="line"/>
      <point x="172" y="714" type="line"/>
      <point x="172" y="677" type="line" smooth="yes"/>
      <point x="172" y="551"/>
      <point x="213" y="497"/>
      <point x="317" y="497" type="curve"/>
    </contour>
    <contour>
      <point x="158" y="130" type="line"/>
      <point x="440" y="130" type="line"/>
      <point x="440" y="155" type="line"/>
      <point x="158" y="155" type="line"/>
    </contour>
    <contour>
      <point x="414" y="0" type="line"/>
      <point x="440" y="0" type="line"/>
      <point x="440" y="155" type="line"/>
      <point x="414" y="155" type="line"/>
    </contour>
    <component base="leftsingleflag" xOffset="16" yOffset="-233"/>
    <component base="leftsingleflag" yOffset="237"/>
  </outline>
</glyph>
<glyph name="xwee.eth" format="2">
	<advance width="561"/>
	<unicode hex="128C"/>
	<anchor x="279" y="714" name="top"/>
	<note>
		uni128C
	</note>
	<outline>
		<contour>
			<point x="304" y="0" type="line"/>
			<point x="362" y="0" type="line"/>
			<point x="362" y="25" type="line"/>
			<point x="304" y="25" type="line"/>
		</contour>
		<component base="xee.eth"/>
		<component base="leftsingleflag" xOffset="125" yOffset="-363"/>
	</outline>
</glyph>
<glyph name="xwe.eth" format="2">
  <advance width="627"/>
  <unicode hex="128D"/>
  <note>
uni128D
</note>
  <anchor x="313" y="714" name="top"/>
  <outline>
    <contour>
      <point x="324" y="287" type="line"/>
      <point x="463" y="287" type="line"/>
      <point x="463" y="312" type="line"/>
      <point x="324" y="312" type="line"/>
    </contour>
    <contour>
      <point x="452" y="287" type="line"/>
      <point x="478" y="287" type="line"/>
      <point x="478" y="413" type="line"/>
      <point x="452" y="413" type="line"/>
    </contour>
    <component base="xa.eth"/>
    <component base="rightsingleflag" xOffset="398" yOffset="-76"/>
  </outline>
</glyph>
<glyph name="na.eth" format="2">
  <advance width="311"/>
  <unicode hex="1290"/>
  <note>
uni1290
</note>
  <anchor x="135" y="714" name="top"/>
  <outline>
    <contour>
      <point x="195" y="0" type="line"/>
      <point x="221" y="0" type="line"/>
      <point x="221" y="520" type="line"/>
      <point x="197" y="520" type="line" smooth="yes"/>
      <point x="110" y="520"/>
      <point x="76" y="562"/>
      <point x="76" y="678" type="curve" smooth="yes"/>
      <point x="76" y="714" type="line"/>
      <point x="50" y="714" type="line"/>
      <point x="50" y="677" type="line" smooth="yes"/>
      <point x="50" y="551"/>
      <point x="91" y="497"/>
      <point x="195" y="497" type="curve"/>
    </contour>
  </outline>
</glyph>
<glyph name="naa.eth" format="2">
  <advance width="411"/>
  <unicode hex="1293"/>
  <note>
uni1293
</note>
  <anchor x="235" y="714" name="top"/>
  <outline>
    <contour>
      <point x="75" y="285" type="line"/>
      <point x="101" y="289" type="line"/>
      <point x="101" y="312" type="line" smooth="yes"/>
      <point x="101" y="598"/>
      <point x="180" y="689"/>
      <point x="314" y="689" type="curve" smooth="yes"/>
      <point x="342" y="689" type="line"/>
      <point x="350" y="643"/>
      <point x="367" y="617"/>
      <point x="388" y="617" type="curve" smooth="yes"/>
      <point x="396" y="617" type="line"/>
      <point x="377" y="714" type="line"/>
      <point x="311" y="714" type="line" smooth="yes"/>
      <point x="160" y="714"/>
      <point x="75" y="606"/>
      <point x="75" y="316" type="curve" smooth="yes"/>
    </contour>
    <contour>
      <point x="233" y="0" type="line"/>
      <point x="259" y="0" type="line"/>
      <point x="259" y="308" type="line"/>
      <point x="89" y="308" type="line"/>
      <point x="75" y="285" type="line"/>
      <point x="233" y="285" type="line"/>
    </contour>
  </outline>
</glyph>
<glyph name="nee.eth" format="2">
  <advance width="343"/>
  <unicode hex="1294"/>
  <note>
uni1294
</note>
  <anchor x="191" y="714" name="top"/>
  <outline>
    <contour>
      <point x="64" y="0" type="line"/>
      <point x="80" y="0" type="line"/>
      <point x="254" y="520" type="line"/>
      <point x="218" y="520" type="line" smooth="yes"/>
      <point x="121" y="520"/>
      <point x="84" y="569"/>
      <point x="84" y="680" type="curve" smooth="yes"/>
      <point x="84" y="714" type="line"/>
      <point x="58" y="714" type="line"/>
      <point x="58" y="678" type="line" smooth="yes"/>
      <point x="58" y="557"/>
      <point x="107" y="498"/>
      <point x="222" y="498" type="curve"/>
      <point x="64" y="24" type="line"/>
    </contour>
    <contour>
      <point x="85" y="24" type="line"/>
      <point x="141" y="205" type="line"/>
      <point x="215" y="205" type="line" smooth="yes"/>
      <point x="276" y="205"/>
      <point x="298" y="172"/>
      <point x="298" y="121" type="curve" smooth="yes"/>
      <point x="298" y="64"/>
      <point x="269" y="24"/>
      <point x="188" y="24" type="curve" smooth="yes"/>
    </contour>
    <contour>
      <point x="70" y="0" type="line"/>
      <point x="190" y="0" type="line" smooth="yes"/>
      <point x="287" y="0"/>
      <point x="325" y="51"/>
      <point x="325" y="123" type="curve" smooth="yes"/>
      <point x="325" y="189"/>
      <point x="291" y="229"/>
      <point x="219" y="229" type="curve" smooth="yes"/>
      <point x="143" y="229" type="line"/>
    </contour>
  </outline>
</glyph>
<glyph name="ne.eth" format="2">
  <advance width="353"/>
  <unicode hex="1295"/>
  <note>
uni1295
</note>
  <anchor x="164" y="714" name="top"/>
  <outline>
    <contour>
      <point x="126" y="0" type="line"/>
      <point x="153" y="0" type="line"/>
      <point x="314" y="481" type="line"/>
      <point x="217" y="481" type="line"/>
      <point x="217" y="551" type="line" smooth="yes"/>
      <point x="217" y="679"/>
      <point x="175" y="714"/>
      <point x="82" y="714" type="curve" smooth="yes"/>
      <point x="34" y="714" type="line"/>
      <point x="15" y="617" type="line"/>
      <point x="23" y="617" type="line" smooth="yes"/>
      <point x="44" y="617"/>
      <point x="62" y="645"/>
      <point x="69" y="689" type="curve"/>
      <point x="82" y="689" type="line" smooth="yes"/>
      <point x="154" y="689"/>
      <point x="191" y="667"/>
      <point x="191" y="552" type="curve" smooth="yes"/>
      <point x="191" y="456" type="line"/>
      <point x="276" y="456" type="line"/>
    </contour>
  </outline>
</glyph>
<glyph name="no.eth" format="2">
  <advance width="484"/>
  <unicode hex="1296"/>
  <note>
uni1296
</note>
  <anchor x="268" y="714" name="top"/>
  <outline>
    <contour>
      <point x="247" y="0" type="line"/>
      <point x="273" y="0" type="line"/>
      <point x="273" y="318" type="line"/>
      <point x="101" y="318" type="line"/>
      <point x="102" y="576"/>
      <point x="162" y="668"/>
      <point x="279" y="689" type="curve"/>
      <point x="352" y="714" type="line"/>
      <point x="342" y="714" type="line" smooth="yes"/>
      <point x="153" y="714"/>
      <point x="75" y="612"/>
      <point x="75" y="322" type="curve" smooth="yes"/>
      <point x="75" y="295" type="line"/>
      <point x="247" y="295" type="line"/>
    </contour>
    <component base="ballbig" xOffset="211" yOffset="292"/>
  </outline>
</glyph>
<glyph name="nya.eth" format="2">
  <advance width="441"/>
  <unicode hex="1298"/>
  <note>
uni1298
</note>
  <anchor x="200" y="785" name="top"/>
  <outline>
    <contour>
      <point x="335" y="0" type="line"/>
      <point x="361" y="0" type="line"/>
      <point x="361" y="490" type="line"/>
      <point x="337" y="490" type="line" smooth="yes"/>
      <point x="250" y="490"/>
      <point x="216" y="532"/>
      <point x="216" y="648" type="curve" smooth="yes"/>
      <point x="216" y="714" type="line"/>
      <point x="190" y="714" type="line"/>
      <point x="190" y="647" type="line" smooth="yes"/>
      <point x="190" y="521"/>
      <point x="231" y="467"/>
      <point x="335" y="467" type="curve"/>
    </contour>
    <component base="bone" yOffset="-59"/>
  </outline>
</glyph>
<glyph name="nyaa.eth" format="2">
  <advance width="436"/>
  <unicode hex="129B"/>
  <note>
uni129B
</note>
  <anchor x="218" y="791" name="top"/>
  <outline>
    <contour>
      <point x="66" y="230" type="line"/>
      <point x="92" y="235" type="line"/>
      <point x="92" y="277" type="line" smooth="yes"/>
      <point x="92" y="460"/>
      <point x="169" y="525"/>
      <point x="275" y="525" type="curve" smooth="yes"/>
      <point x="281" y="525" type="line"/>
      <point x="289" y="480"/>
      <point x="305" y="453"/>
      <point x="327" y="453" type="curve" smooth="yes"/>
      <point x="335" y="453" type="line"/>
      <point x="316" y="550" type="line"/>
      <point x="271" y="550" type="line" smooth="yes"/>
      <point x="146" y="550"/>
      <point x="66" y="467"/>
      <point x="66" y="286" type="curve" smooth="yes"/>
    </contour>
    <contour>
      <point x="224" y="0" type="line"/>
      <point x="250" y="0" type="line"/>
      <point x="250" y="254" type="line"/>
      <point x="81" y="254" type="line"/>
      <point x="66" y="230" type="line"/>
      <point x="224" y="230" type="line"/>
    </contour>
    <contour>
      <point x="212" y="537" type="line"/>
      <point x="238" y="537" type="line"/>
      <point x="238" y="709" type="line"/>
      <point x="212" y="709" type="line"/>
    </contour>
    <component base="bonemiddle" yOffset="-53"/>
  </outline>
</glyph>
<glyph name="nyee.eth" format="2">
  <advance width="439"/>
  <unicode hex="129C"/>
  <note>
uni129C
</note>
  <anchor x="218" y="794" name="top"/>
  <outline>
    <contour>
      <point x="150" y="0" type="line"/>
      <point x="168" y="0" type="line"/>
      <point x="332" y="481" type="line"/>
      <point x="234" y="481" type="line"/>
      <point x="234" y="714" type="line"/>
      <point x="208" y="712" type="line"/>
      <point x="208" y="456" type="line"/>
      <point x="295" y="456" type="line"/>
      <point x="150" y="24" type="line"/>
    </contour>
    <contour>
      <point x="171" y="24" type="line"/>
      <point x="232" y="205" type="line"/>
      <point x="302" y="205" type="line" smooth="yes"/>
      <point x="362" y="205"/>
      <point x="384" y="172"/>
      <point x="384" y="121" type="curve" smooth="yes"/>
      <point x="384" y="64"/>
      <point x="353" y="24"/>
      <point x="276" y="24" type="curve" smooth="yes"/>
    </contour>
    <contour>
      <point x="153" y="0" type="line"/>
      <point x="277" y="0" type="line" smooth="yes"/>
      <point x="374" y="0"/>
      <point x="411" y="51"/>
      <point x="411" y="123" type="curve" smooth="yes"/>
      <point x="411" y="186"/>
      <point x="379" y="229"/>
      <point x="306" y="229" type="curve" smooth="yes"/>
      <point x="222" y="229" type="line"/>
    </contour>
    <component base="bonemiddle" yOffset="-50"/>
  </outline>
</glyph>
<glyph name="nye.eth" format="2">
  <advance width="401"/>
  <unicode hex="129D"/>
  <note>
uni129D
</note>
  <anchor x="189" y="786" name="top"/>
  <outline>
    <contour>
      <point x="197" y="0" type="line"/>
      <point x="224" y="0" type="line"/>
      <point x="361" y="399" type="line"/>
      <point x="265" y="399" type="line"/>
      <point x="265" y="404" type="line" smooth="yes"/>
      <point x="265" y="505"/>
      <point x="222" y="553"/>
      <point x="142" y="553" type="curve" smooth="yes"/>
      <point x="92" y="553" type="line"/>
      <point x="73" y="456" type="line"/>
      <point x="81" y="456" type="line" smooth="yes"/>
      <point x="102" y="456"/>
      <point x="119" y="482"/>
      <point x="127" y="528" type="curve"/>
      <point x="138" y="528" type="line" smooth="yes"/>
      <point x="205" y="528"/>
      <point x="238" y="494"/>
      <point x="238" y="401" type="curve" smooth="yes"/>
      <point x="238" y="376" type="line"/>
      <point x="325" y="376" type="line"/>
    </contour>
    <contour>
      <point x="171" y="532" type="line"/>
      <point x="198" y="532" type="line"/>
      <point x="198" y="703" type="line"/>
      <point x="171" y="703" type="line"/>
    </contour>
    <component base="footshort" xScale="-1" yScale="-1" xOffset="378" yOffset="714"/>
  </outline>
</glyph>
<glyph name="nyo.eth" format="2">
  <advance width="490"/>
  <unicode hex="129E"/>
  <note>
uni129E
</note>
  <anchor x="246" y="795" name="top"/>
  <outline>
    <contour>
      <point x="220" y="0" type="line"/>
      <point x="246" y="0" type="line"/>
      <point x="246" y="259" type="line"/>
      <point x="125" y="259" type="line"/>
      <point x="126" y="428"/>
      <point x="173" y="519"/>
      <point x="309" y="519" type="curve"/>
      <point x="353" y="544" type="line"/>
      <point x="308" y="544" type="line" smooth="yes"/>
      <point x="157" y="544"/>
      <point x="99" y="439"/>
      <point x="99" y="262" type="curve" smooth="yes"/>
      <point x="99" y="234" type="line"/>
      <point x="220" y="234" type="line"/>
    </contour>
    <contour>
      <point x="352" y="299" type="curve" smooth="yes"/>
      <point x="428" y="299"/>
      <point x="468" y="350"/>
      <point x="468" y="424" type="curve" smooth="yes"/>
      <point x="468" y="498"/>
      <point x="428" y="544"/>
      <point x="355" y="544" type="curve" smooth="yes"/>
      <point x="282" y="544"/>
      <point x="239" y="498"/>
      <point x="239" y="421" type="curve" smooth="yes"/>
      <point x="239" y="347"/>
      <point x="279" y="299"/>
    </contour>
    <contour>
      <point x="217" y="521" type="line"/>
      <point x="243" y="521" type="line"/>
      <point x="243" y="714" type="line"/>
      <point x="217" y="714" type="line"/>
    </contour>
    <contour>
      <point x="353" y="322" type="curve" smooth="yes"/>
      <point x="295" y="322"/>
      <point x="265" y="361"/>
      <point x="265" y="422" type="curve" smooth="yes"/>
      <point x="265" y="479"/>
      <point x="292" y="521"/>
      <point x="354" y="521" type="curve" smooth="yes"/>
      <point x="415" y="521"/>
      <point x="441" y="480"/>
      <point x="441" y="423" type="curve" smooth="yes"/>
      <point x="441" y="363"/>
      <point x="413" y="322"/>
    </contour>
    <component base="bonemiddle" xOffset="10" yOffset="-49"/>
  </outline>
</glyph>
<glyph name="aGlottal.eth" format="2">
  <advance width="430"/>
  <unicode hex="12A0"/>
  <note>
uni12A0
</note>
  <anchor x="227" y="714" name="top"/>
  <outline>
    <contour>
      <point x="54" y="0" type="line"/>
      <point x="81" y="0" type="line"/>
      <point x="250" y="520" type="line"/>
      <point x="218" y="520" type="line" smooth="yes"/>
      <point x="124" y="520"/>
      <point x="84" y="569"/>
      <point x="84" y="680" type="curve" smooth="yes"/>
      <point x="84" y="714" type="line"/>
      <point x="58" y="714" type="line"/>
      <point x="58" y="678" type="line" smooth="yes"/>
      <point x="58" y="557"/>
      <point x="106" y="498"/>
      <point x="218" y="498" type="curve"/>
    </contour>
    <contour>
      <point x="374" y="0" type="curve"/>
      <point x="400" y="0" type="line"/>
      <point x="381" y="208"/>
      <point x="319" y="329"/>
      <point x="198" y="375" type="curve"/>
      <point x="190" y="353" type="line"/>
      <point x="305" y="306"/>
      <point x="355" y="191"/>
    </contour>
  </outline>
</glyph>
<glyph name="aaGlottal.eth" format="2">
  <advance width="426"/>
  <unicode hex="12A3"/>
  <note>
uni12A3
</note>
  <anchor x="225" y="714" name="top"/>
  <outline>
    <contour>
      <point x="103" y="162" type="line"/>
      <point x="130" y="162" type="line"/>
      <point x="246" y="521" type="line"/>
      <point x="214" y="521" type="line" smooth="yes"/>
      <point x="117" y="521"/>
      <point x="80" y="569"/>
      <point x="80" y="680" type="curve" smooth="yes"/>
      <point x="80" y="714" type="line"/>
      <point x="54" y="714" type="line"/>
      <point x="54" y="678" type="line" smooth="yes"/>
      <point x="54" y="557"/>
      <point x="102" y="498"/>
      <point x="213" y="498" type="curve"/>
    </contour>
    <contour>
      <point x="370" y="0" type="curve"/>
      <point x="396" y="0" type="line"/>
      <point x="377" y="208"/>
      <point x="314" y="329"/>
      <point x="194" y="375" type="curve"/>
      <point x="186" y="353" type="line"/>
      <point x="301" y="306"/>
      <point x="350" y="191"/>
    </contour>
  </outline>
</glyph>
<glyph name="eeGlottal.eth" format="2">
  <advance width="595"/>
  <unicode hex="12A4"/>
  <note>
uni12A4
</note>
  <anchor x="315" y="714" name="top"/>
  <outline>
    <contour>
      <point x="387" y="0" type="line"/>
      <point x="443" y="0" type="line" smooth="yes"/>
      <point x="540" y="0"/>
      <point x="577" y="51"/>
      <point x="577" y="123" type="curve" smooth="yes"/>
      <point x="577" y="186"/>
      <point x="545" y="229"/>
      <point x="472" y="229" type="curve" smooth="yes"/>
      <point x="336" y="229" type="line"/>
    </contour>
    <contour>
      <point x="393" y="24" type="line"/>
      <point x="353" y="205" type="line"/>
      <point x="468" y="205" type="line" smooth="yes"/>
      <point x="528" y="205"/>
      <point x="550" y="172"/>
      <point x="550" y="121" type="curve" smooth="yes"/>
      <point x="550" y="64"/>
      <point x="519" y="24"/>
      <point x="442" y="24" type="curve" smooth="yes"/>
    </contour>
    <component base="aGlottal.eth"/>
  </outline>
</glyph>
<glyph name="eGlottal.eth" format="2">
  <advance width="430"/>
  <unicode hex="12A5"/>
  <note>
uni12A5
</note>
  <anchor x="227" y="714" name="top"/>
  <outline>
    <contour>
      <point x="54" y="0" type="line"/>
      <point x="81" y="0" type="line"/>
      <point x="196" y="350" type="line"/>
      <point x="305" y="301"/>
      <point x="355" y="188"/>
      <point x="373" y="0" type="curve"/>
      <point x="400" y="0" type="line"/>
      <point x="381" y="207"/>
      <point x="321" y="322"/>
      <point x="205" y="372" type="curve"/>
      <point x="240" y="474" type="line"/>
      <point x="151" y="474" type="line"/>
      <point x="194" y="591" type="line"/>
      <point x="171" y="591" type="line" smooth="yes"/>
      <point x="111" y="591"/>
      <point x="80" y="616"/>
      <point x="80" y="707" type="curve" smooth="yes"/>
      <point x="80" y="714" type="line"/>
      <point x="55" y="714" type="line"/>
      <point x="55" y="706" type="line" smooth="yes"/>
      <point x="55" y="606"/>
      <point x="94" y="571"/>
      <point x="160" y="568" type="curve"/>
      <point x="118" y="451" type="line"/>
      <point x="204" y="451" type="line"/>
    </contour>
  </outline>
</glyph>
<glyph name="oGlottal.eth" format="2">
  <advance width="406"/>
  <unicode hex="12A6"/>
  <note>
uni12A6
</note>
  <anchor x="215" y="714" name="top"/>
  <outline>
    <contour>
      <point x="54" y="0" type="line"/>
      <point x="81" y="0" type="line"/>
      <point x="250" y="521" type="line"/>
      <point x="218" y="521" type="line" smooth="yes"/>
      <point x="121" y="521"/>
      <point x="84" y="569"/>
      <point x="84" y="680" type="curve" smooth="yes"/>
      <point x="84" y="714" type="line"/>
      <point x="58" y="714" type="line"/>
      <point x="58" y="678" type="line" smooth="yes"/>
      <point x="58" y="557"/>
      <point x="106" y="498"/>
      <point x="218" y="498" type="curve"/>
    </contour>
    <contour>
      <point x="350" y="148" type="curve"/>
      <point x="376" y="148" type="line"/>
      <point x="344" y="267"/>
      <point x="288" y="341"/>
      <point x="198" y="375" type="curve"/>
      <point x="191" y="352" type="line"/>
      <point x="272" y="323"/>
      <point x="322" y="253"/>
    </contour>
  </outline>
</glyph>
<glyph name="waGlottal.eth" format="2">
  <advance width="467"/>
  <unicode hex="12A7"/>
  <note>
uni12A7
</note>
  <anchor x="226" y="785" name="top"/>
  <outline>
    <contour>
      <point x="91" y="0" type="line"/>
      <point x="118" y="0" type="line"/>
      <point x="233" y="350" type="line"/>
      <point x="343" y="301"/>
      <point x="392" y="180"/>
      <point x="410" y="0" type="curve"/>
      <point x="437" y="0" type="line"/>
      <point x="415" y="212"/>
      <point x="354" y="324"/>
      <point x="243" y="373" type="curve"/>
      <point x="291" y="522" type="line"/>
      <point x="216" y="522" type="line"/>
      <point x="216" y="710" type="line"/>
      <point x="190" y="710" type="line"/>
      <point x="190" y="497" type="line"/>
      <point x="255" y="497" type="line"/>
    </contour>
    <component base="bone" yOffset="-59"/>
  </outline>
</glyph>
<glyph name="ka.eth" format="2">
  <advance width="507"/>
  <unicode hex="12A8"/>
  <note>
uni12A8
</note>
  <anchor x="238" y="760" name="top"/>
  <outline>
    <contour>
      <point x="141" y="517" type="curve"/>
      <point x="153" y="538" type="line"/>
      <point x="103" y="559"/>
      <point x="76" y="590"/>
      <point x="76" y="677" type="curve" smooth="yes"/>
      <point x="76" y="760" type="line"/>
      <point x="50" y="760" type="line"/>
      <point x="50" y="676" type="line" smooth="yes"/>
      <point x="50" y="579"/>
      <point x="83" y="539"/>
    </contour>
    <component base="shortnarch" xOffset="21"/>
  </outline>
</glyph>
<glyph name="kaa.eth" format="2">
  <advance width="491"/>
  <unicode hex="12AB"/>
  <note>
uni12AB
</note>
  <anchor x="230" y="760" name="top"/>
  <outline>
    <contour>
      <point x="125" y="518" type="curve"/>
      <point x="137" y="539" type="line"/>
      <point x="99" y="560"/>
      <point x="76" y="589"/>
      <point x="76" y="678" type="curve" smooth="yes"/>
      <point x="76" y="760" type="line"/>
      <point x="50" y="760" type="line"/>
      <point x="50" y="677" type="line" smooth="yes"/>
      <point x="50" y="580"/>
      <point x="77" y="540"/>
    </contour>
    <component base="baashort" xOffset="17"/>
  </outline>
</glyph>
<glyph name="ke.eth" format="2">
  <advance width="489"/>
  <unicode hex="12AD"/>
  <note>
uni12AD
</note>
  <anchor x="229" y="760" name="top"/>
  <outline>
    <contour>
      <point x="384" y="0" type="line"/>
      <point x="409" y="0" type="line"/>
      <point x="409" y="355" type="line" smooth="yes"/>
      <point x="409" y="518"/>
      <point x="358" y="600"/>
      <point x="247" y="600" type="curve" smooth="yes"/>
      <point x="141" y="600"/>
      <point x="84" y="520"/>
      <point x="84" y="358" type="curve" smooth="yes"/>
      <point x="84" y="286" type="line"/>
      <point x="110" y="286" type="line"/>
      <point x="110" y="350" type="line" smooth="yes"/>
      <point x="110" y="503"/>
      <point x="153" y="578"/>
      <point x="247" y="578" type="curve" smooth="yes"/>
      <point x="340" y="578"/>
      <point x="384" y="503"/>
      <point x="384" y="351" type="curve" smooth="yes"/>
    </contour>
    <contour>
      <point x="85" y="0" type="line"/>
      <point x="111" y="0" type="line"/>
      <point x="111" y="174" type="line" smooth="yes"/>
      <point x="111" y="298"/>
      <point x="144" y="336"/>
      <point x="222" y="336" type="curve"/>
      <point x="222" y="359" type="line"/>
      <point x="127" y="359"/>
      <point x="85" y="309"/>
      <point x="85" y="175" type="curve" smooth="yes"/>
    </contour>
    <contour>
      <point x="125" y="518" type="curve"/>
      <point x="137" y="539" type="line"/>
      <point x="99" y="560"/>
      <point x="76" y="589"/>
      <point x="76" y="678" type="curve" smooth="yes"/>
      <point x="76" y="760" type="line"/>
      <point x="50" y="760" type="line"/>
      <point x="50" y="677" type="line" smooth="yes"/>
      <point x="50" y="580"/>
      <point x="77" y="540"/>
    </contour>
  </outline>
</glyph>
<glyph name="ko.eth" format="2">
  <advance width="480"/>
  <unicode hex="12AE"/>
  <note>
uni12AE
</note>
  <anchor x="230" y="760" name="top"/>
  <outline>
    <contour>
      <point x="125" y="518" type="curve"/>
      <point x="137" y="539" type="line"/>
      <point x="99" y="560"/>
      <point x="76" y="589"/>
      <point x="76" y="678" type="curve" smooth="yes"/>
      <point x="76" y="760" type="line"/>
      <point x="50" y="760" type="line"/>
      <point x="50" y="677" type="line" smooth="yes"/>
      <point x="50" y="580"/>
      <point x="77" y="540"/>
    </contour>
    <component base="baashort" xScale="-1" xOffset="479"/>
  </outline>
</glyph>
<glyph name="kwi.eth" format="2">
  <advance width="727"/>
  <unicode hex="12B2"/>
  <note>
uni12B2
</note>
  <anchor x="375" y="760" name="top"/>
  <outline>
    <contour>
      <point x="704" y="194" type="curve" smooth="yes"/>
      <point x="712" y="194" type="line"/>
      <point x="693" y="291" type="line"/>
      <point x="544" y="291" type="line"/>
      <point x="544" y="266" type="line"/>
      <point x="658" y="266" type="line"/>
      <point x="666" y="220"/>
      <point x="683" y="194"/>
    </contour>
    <contour>
      <point x="406" y="353" type="line"/>
      <point x="555" y="353" type="line"/>
      <point x="555" y="378" type="line"/>
      <point x="406" y="378" type="line"/>
    </contour>
    <contour>
      <point x="544" y="266" type="line"/>
      <point x="570" y="266" type="line"/>
      <point x="570" y="465" type="line"/>
      <point x="544" y="465" type="line"/>
    </contour>
    <component base="ka.eth"/>
  </outline>
</glyph>
<glyph name="kwaa.eth" format="2">
  <advance width="517"/>
  <unicode hex="12B3"/>
  <note>
uni12B3
</note>
  <anchor x="266" y="760" name="top"/>
  <outline>
    <contour>
      <point x="376" y="134" type="line"/>
      <point x="401" y="134" type="line"/>
      <point x="401" y="355" type="line" smooth="yes"/>
      <point x="401" y="518"/>
      <point x="350" y="600"/>
      <point x="239" y="600" type="curve" smooth="yes"/>
      <point x="133" y="600"/>
      <point x="76" y="520"/>
      <point x="76" y="358" type="curve" smooth="yes"/>
      <point x="76" y="308" type="line"/>
      <point x="102" y="308" type="line"/>
      <point x="102" y="350" type="line" smooth="yes"/>
      <point x="102" y="503"/>
      <point x="145" y="578"/>
      <point x="239" y="578" type="curve" smooth="yes"/>
      <point x="332" y="578"/>
      <point x="376" y="503"/>
      <point x="376" y="351" type="curve" smooth="yes"/>
    </contour>
    <contour>
      <point x="278" y="125" type="line"/>
      <point x="471" y="125" type="line"/>
      <point x="471" y="150" type="line"/>
      <point x="278" y="150" type="line"/>
    </contour>
    <contour>
      <point x="125" y="518" type="curve"/>
      <point x="137" y="539" type="line"/>
      <point x="99" y="560"/>
      <point x="76" y="589"/>
      <point x="76" y="678" type="curve" smooth="yes"/>
      <point x="76" y="760" type="line"/>
      <point x="50" y="760" type="line"/>
      <point x="50" y="677" type="line" smooth="yes"/>
      <point x="50" y="580"/>
      <point x="77" y="540"/>
    </contour>
    <contour>
      <point x="456" y="0" type="line"/>
      <point x="482" y="0" type="line"/>
      <point x="482" y="150" type="line"/>
      <point x="456" y="150" type="line"/>
    </contour>
    <component base="leftsingleflag" xOffset="107" yOffset="-238"/>
  </outline>
</glyph>
<glyph name="kwee.eth" format="2">
  <advance width="628"/>
  <unicode hex="12B4"/>
  <note>
uni12B4
</note>
  <anchor x="330" y="760" name="top"/>
  <outline>
    <contour>
      <point x="288" y="0" type="line"/>
      <point x="400" y="0" type="line"/>
      <point x="400" y="25" type="line"/>
      <point x="288" y="25" type="line"/>
    </contour>
    <component base="kaa.eth"/>
    <component base="baselinebowl" xOffset="345"/>
    <component base="leftsingleflag" xOffset="155" yOffset="-363"/>
  </outline>
</glyph>
<glyph name="kwe.eth" format="2">
  <advance width="669"/>
  <unicode hex="12B5"/>
  <note>
uni12B5
</note>
  <anchor x="347" y="760" name="top"/>
  <outline>
    <contour>
      <point x="504" y="395" type="line"/>
      <point x="530" y="395" type="line"/>
      <point x="530" y="574" type="line"/>
      <point x="504" y="574" type="line"/>
    </contour>
    <contour>
      <point x="406" y="395" type="line"/>
      <point x="515" y="395" type="line"/>
      <point x="515" y="420" type="line"/>
      <point x="406" y="420" type="line"/>
    </contour>
    <component base="ka.eth"/>
    <component base="rightsingleflag" xOffset="440" yOffset="32"/>
  </outline>
</glyph>
<glyph name="kxaa.eth" format="2">
  <advance width="637"/>
  <unicode hex="12BB"/>
  <note>
uni12BB
</note>
  <anchor x="286" y="844" name="top"/>
  <outline>
    <contour>
      <point x="531" y="0" type="line"/>
      <point x="557" y="0" type="line"/>
      <point x="557" y="315" type="line" smooth="yes"/>
      <point x="557" y="478"/>
      <point x="506" y="560"/>
      <point x="394" y="560" type="curve" smooth="yes"/>
      <point x="288" y="560"/>
      <point x="231" y="480"/>
      <point x="231" y="318" type="curve" smooth="yes"/>
      <point x="231" y="268" type="line"/>
      <point x="257" y="268" type="line"/>
      <point x="257" y="310" type="line" smooth="yes"/>
      <point x="257" y="462"/>
      <point x="300" y="536"/>
      <point x="394" y="536" type="curve" smooth="yes"/>
      <point x="487" y="536"/>
      <point x="531" y="462"/>
      <point x="531" y="311" type="curve" smooth="yes"/>
    </contour>
    <contour>
      <point x="281" y="477" type="curve"/>
      <point x="293" y="498" type="line"/>
      <point x="243" y="519"/>
      <point x="216" y="550"/>
      <point x="216" y="637" type="curve" smooth="yes"/>
      <point x="216" y="760" type="line"/>
      <point x="190" y="760" type="line"/>
      <point x="190" y="636" type="line" smooth="yes"/>
      <point x="190" y="539"/>
      <point x="223" y="499"/>
    </contour>
    <component base="bone"/>
  </outline>
</glyph>
<glyph name="kxe.eth" format="2">
  <advance width="629"/>
  <unicode hex="12BD"/>
  <note>
uni12BD
</note>
  <anchor x="282" y="844" name="top"/>
  <outline>
    <contour>
      <point x="524" y="0" type="line"/>
      <point x="549" y="0" type="line"/>
      <point x="549" y="335" type="line" smooth="yes"/>
      <point x="549" y="498"/>
      <point x="498" y="580"/>
      <point x="387" y="580" type="curve" smooth="yes"/>
      <point x="281" y="580"/>
      <point x="224" y="500"/>
      <point x="224" y="338" type="curve" smooth="yes"/>
      <point x="224" y="266" type="line"/>
      <point x="250" y="266" type="line"/>
      <point x="250" y="330" type="line" smooth="yes"/>
      <point x="250" y="483"/>
      <point x="293" y="558"/>
      <point x="387" y="558" type="curve" smooth="yes"/>
      <point x="480" y="558"/>
      <point x="524" y="483"/>
      <point x="524" y="331" type="curve" smooth="yes"/>
    </contour>
    <contour>
      <point x="225" y="0" type="line"/>
      <point x="251" y="0" type="line"/>
      <point x="251" y="154" type="line" smooth="yes"/>
      <point x="251" y="278"/>
      <point x="284" y="316"/>
      <point x="362" y="316" type="curve"/>
      <point x="362" y="339" type="line"/>
      <point x="267" y="339"/>
      <point x="225" y="289"/>
      <point x="225" y="155" type="curve" smooth="yes"/>
    </contour>
    <contour>
      <point x="265" y="498" type="curve"/>
      <point x="277" y="519" type="line"/>
      <point x="239" y="540"/>
      <point x="216" y="569"/>
      <point x="216" y="658" type="curve" smooth="yes"/>
      <point x="216" y="760" type="line"/>
      <point x="190" y="760" type="line"/>
      <point x="190" y="657" type="line" smooth="yes"/>
      <point x="190" y="560"/>
      <point x="217" y="520"/>
    </contour>
    <component base="bone"/>
  </outline>
</glyph>
<glyph name="kxo.eth" format="2">
  <advance width="627"/>
  <unicode hex="12BE"/>
  <note>
uni12BE
</note>
  <anchor x="287" y="844" name="top"/>
  <outline>
    <contour>
      <point x="233" y="0" type="line"/>
      <point x="259" y="0" type="line"/>
      <point x="259" y="311" type="line" smooth="yes"/>
      <point x="259" y="462"/>
      <point x="303" y="537"/>
      <point x="396" y="537" type="curve" smooth="yes"/>
      <point x="490" y="537"/>
      <point x="533" y="462"/>
      <point x="533" y="310" type="curve" smooth="yes"/>
      <point x="533" y="200" type="line"/>
      <point x="559" y="200" type="line"/>
      <point x="559" y="318" type="line" smooth="yes"/>
      <point x="559" y="480"/>
      <point x="502" y="560"/>
      <point x="396" y="560" type="curve" smooth="yes"/>
      <point x="284" y="560"/>
      <point x="233" y="478"/>
      <point x="233" y="315" type="curve" smooth="yes"/>
    </contour>
    <contour>
      <point x="264" y="478" type="curve"/>
      <point x="276" y="499" type="line"/>
      <point x="238" y="520"/>
      <point x="215" y="549"/>
      <point x="215" y="638" type="curve" smooth="yes"/>
      <point x="215" y="760" type="line"/>
      <point x="189" y="760" type="line"/>
      <point x="189" y="637" type="line" smooth="yes"/>
      <point x="189" y="540"/>
      <point x="216" y="500"/>
    </contour>
    <component base="bone"/>
  </outline>
</glyph>
<glyph name="kxwi.eth" format="2">
  <advance width="859"/>
  <unicode hex="12C2"/>
  <note>
uni12C2
</note>
  <anchor x="429" y="844" name="top"/>
  <outline>
    <contour>
      <point x="836" y="168" type="curve" smooth="yes"/>
      <point x="844" y="168" type="line"/>
      <point x="825" y="265" type="line"/>
      <point x="676" y="265" type="line"/>
      <point x="676" y="240" type="line"/>
      <point x="790" y="240" type="line"/>
      <point x="798" y="194"/>
      <point x="815" y="168"/>
    </contour>
    <contour>
      <point x="538" y="327" type="line"/>
      <point x="687" y="327" type="line"/>
      <point x="687" y="352" type="line"/>
      <point x="538" y="352" type="line"/>
    </contour>
    <contour>
      <point x="676" y="240" type="line"/>
      <point x="702" y="240" type="line"/>
      <point x="702" y="439" type="line"/>
      <point x="676" y="439" type="line"/>
    </contour>
    <component base="kxa.eth"/>
  </outline>
</glyph>
<glyph name="kxwaa.eth" format="2">
  <advance width="698"/>
  <unicode hex="12C3"/>
  <note>
uni12C3
</note>
  <anchor x="349" y="845" name="top"/>
  <outline>
    <contour>
      <point x="519" y="0" type="line"/>
      <point x="545" y="0" type="line"/>
      <point x="545" y="315" type="line" smooth="yes"/>
      <point x="545" y="478"/>
      <point x="494" y="560"/>
      <point x="382" y="560" type="curve" smooth="yes"/>
      <point x="276" y="560"/>
      <point x="219" y="480"/>
      <point x="219" y="318" type="curve" smooth="yes"/>
      <point x="219" y="268" type="line"/>
      <point x="245" y="268" type="line"/>
      <point x="245" y="310" type="line" smooth="yes"/>
      <point x="245" y="462"/>
      <point x="288" y="536"/>
      <point x="382" y="536" type="curve" smooth="yes"/>
      <point x="475" y="536"/>
      <point x="519" y="462"/>
      <point x="519" y="311" type="curve" smooth="yes"/>
    </contour>
    <contour>
      <point x="269" y="477" type="curve"/>
      <point x="281" y="498" type="line"/>
      <point x="231" y="519"/>
      <point x="204" y="550"/>
      <point x="204" y="637" type="curve" smooth="yes"/>
      <point x="204" y="760" type="line"/>
      <point x="178" y="760" type="line"/>
      <point x="178" y="636" type="line" smooth="yes"/>
      <point x="178" y="539"/>
      <point x="211" y="499"/>
    </contour>
    <component base="footright" xOffset="243"/>
    <component base="footshort" xScale="-1" yScale="-1" xOffset="378" yOffset="773"/>
  </outline>
</glyph>
<glyph name="kxwee.eth" format="2">
  <advance width="774"/>
  <unicode hex="12C4"/>
  <note>
uni12C4
</note>
  <anchor x="385" y="844" name="top"/>
  <outline>
    <contour>
      <point x="452" y="0" type="line"/>
      <point x="544" y="0" type="line"/>
      <point x="544" y="25" type="line"/>
      <point x="452" y="25" type="line"/>
    </contour>
    <component base="baselinebowl" xOffset="491"/>
    <component base="leftsingleflag" xOffset="329" yOffset="-363"/>
    <component base="kxaa.eth"/>
  </outline>
</glyph>
<glyph name="kxwe.eth" format="2">
  <advance width="806"/>
  <unicode hex="12C5"/>
  <note>
uni12C5
</note>
  <anchor x="403" y="844" name="top"/>
  <outline>
    <contour>
      <point x="651" y="378" type="line"/>
      <point x="677" y="378" type="line"/>
      <point x="677" y="557" type="line"/>
      <point x="651" y="557" type="line"/>
    </contour>
    <contour>
      <point x="543" y="378" type="line"/>
      <point x="662" y="378" type="line"/>
      <point x="662" y="403" type="line"/>
      <point x="543" y="403" type="line"/>
    </contour>
    <component base="kxa.eth"/>
    <component base="rightsingleflag" xOffset="577" yOffset="15"/>
  </outline>
</glyph>
<glyph name="wa.eth" format="2">
  <advance width="618"/>
  <unicode hex="12C8"/>
  <note>
uni12C8
</note>
  <anchor x="309" y="714" name="top"/>
  <outline>
    <contour>
      <point x="208" y="-10" type="curve" smooth="yes"/>
      <point x="257" y="-10"/>
      <point x="291" y="15"/>
      <point x="319" y="73" type="curve"/>
      <point x="367" y="73" type="line" smooth="yes"/>
      <point x="493" y="73"/>
      <point x="548" y="176"/>
      <point x="548" y="401" type="curve" smooth="yes"/>
      <point x="548" y="615"/>
      <point x="498" y="714"/>
      <point x="377" y="714" type="curve" smooth="yes"/>
      <point x="286" y="714" type="line" smooth="yes"/>
      <point x="170" y="714"/>
      <point x="70" y="619"/>
      <point x="70" y="296" type="curve" smooth="yes"/>
      <point x="70" y="70"/>
      <point x="119" y="-10"/>
    </contour>
    <contour>
      <point x="208" y="15" type="curve" smooth="yes"/>
      <point x="140" y="15"/>
      <point x="96" y="86"/>
      <point x="96" y="298" type="curve" smooth="yes"/>
      <point x="96" y="595"/>
      <point x="182" y="690"/>
      <point x="289" y="690" type="curve" smooth="yes"/>
      <point x="307" y="690" type="line"/>
      <point x="307" y="115" type="line"/>
      <point x="286" y="51"/>
      <point x="256" y="15"/>
    </contour>
    <contour>
      <point x="333" y="98" type="line"/>
      <point x="333" y="690" type="line"/>
      <point x="372" y="690" type="line" smooth="yes"/>
      <point x="483" y="690"/>
      <point x="522" y="591"/>
      <point x="522" y="398" type="curve" smooth="yes"/>
      <point x="522" y="197"/>
      <point x="479" y="98"/>
      <point x="362" y="98" type="curve" smooth="yes"/>
    </contour>
  </outline>
</glyph>
<glyph name="waa.eth" format="2">
  <advance width="571"/>
  <unicode hex="12CB"/>
  <note>
uni12CB
</note>
  <anchor x="288" y="714" name="top"/>
  <outline>
    <contour>
      <point x="179" y="303" type="curve" smooth="yes"/>
      <point x="239" y="303"/>
      <point x="279" y="330"/>
      <point x="310" y="377" type="curve"/>
      <point x="370" y="377" type="line" smooth="yes"/>
      <point x="493" y="377"/>
      <point x="536" y="458"/>
      <point x="536" y="548" type="curve" smooth="yes"/>
      <point x="536" y="647"/>
      <point x="499" y="714"/>
      <point x="384" y="714" type="curve" smooth="yes"/>
      <point x="251" y="714" type="line" smooth="yes"/>
      <point x="117" y="714"/>
      <point x="40" y="633"/>
      <point x="40" y="483" type="curve" smooth="yes"/>
      <point x="40" y="363"/>
      <point x="100" y="303"/>
    </contour>
    <contour>
      <point x="289" y="0" type="line"/>
      <point x="315" y="0" type="line"/>
      <point x="315" y="380" type="line"/>
      <point x="289" y="380" type="line"/>
    </contour>
    <contour>
      <point x="182" y="327" type="curve" smooth="yes"/>
      <point x="115" y="327"/>
      <point x="65" y="377"/>
      <point x="65" y="484" type="curve" smooth="yes"/>
      <point x="65" y="618"/>
      <point x="132" y="691"/>
      <point x="255" y="691" type="curve" smooth="yes"/>
      <point x="289" y="691" type="line"/>
      <point x="289" y="387" type="line"/>
      <point x="267" y="358"/>
      <point x="236" y="327"/>
    </contour>
    <contour>
      <point x="315" y="401" type="line"/>
      <point x="315" y="691" type="line"/>
      <point x="380" y="691" type="line" smooth="yes"/>
      <point x="479" y="691"/>
      <point x="511" y="638"/>
      <point x="511" y="548" type="curve" smooth="yes"/>
      <point x="511" y="471"/>
      <point x="479" y="401"/>
      <point x="368" y="401" type="curve" smooth="yes"/>
    </contour>
  </outline>
</glyph>
<glyph name="wo.eth" format="2">
  <advance width="571"/>
  <unicode hex="12CE"/>
  <note>
uni12CB
</note>
  <anchor x="288" y="714" name="top"/>
  <outline>
    <contour>
      <point x="179" y="303" type="curve" smooth="yes"/>
      <point x="239" y="303"/>
      <point x="279" y="330"/>
      <point x="310" y="377" type="curve"/>
      <point x="370" y="377" type="line" smooth="yes"/>
      <point x="493" y="377"/>
      <point x="536" y="458"/>
      <point x="536" y="548" type="curve" smooth="yes"/>
      <point x="536" y="647"/>
      <point x="499" y="714"/>
      <point x="384" y="714" type="curve" smooth="yes"/>
      <point x="251" y="714" type="line" smooth="yes"/>
      <point x="117" y="714"/>
      <point x="40" y="633"/>
      <point x="40" y="483" type="curve" smooth="yes"/>
      <point x="40" y="363"/>
      <point x="100" y="303"/>
    </contour>
    <contour>
      <point x="147" y="0" type="line"/>
      <point x="174" y="0" type="line"/>
      <point x="316" y="380" type="line"/>
      <point x="292" y="380" type="line"/>
    </contour>
    <contour>
      <point x="182" y="326" type="curve" smooth="yes"/>
      <point x="115" y="326"/>
      <point x="65" y="376"/>
      <point x="65" y="484" type="curve" smooth="yes"/>
      <point x="65" y="618"/>
      <point x="132" y="691"/>
      <point x="255" y="691" type="curve" smooth="yes"/>
      <point x="289" y="691" type="line"/>
      <point x="289" y="386" type="line"/>
      <point x="267" y="356"/>
      <point x="236" y="326"/>
    </contour>
    <contour>
      <point x="315" y="400" type="line"/>
      <point x="315" y="691" type="line"/>
      <point x="380" y="691" type="line" smooth="yes"/>
      <point x="479" y="691"/>
      <point x="510" y="638"/>
      <point x="510" y="548" type="curve" smooth="yes"/>
      <point x="510" y="470"/>
      <point x="479" y="400"/>
      <point x="368" y="400" type="curve" smooth="yes"/>
    </contour>
  </outline>
</glyph>
<glyph name="aPhr.eth" format="2">
  <advance width="483"/>
  <unicode hex="12D0"/>
  <note>
uni12D0
</note>
  <anchor x="241" y="725" name="top"/>
  <outline>
    <contour>
      <point x="241" y="-10" type="curve" smooth="yes"/>
      <point x="354" y="-10"/>
      <point x="413" y="80"/>
      <point x="413" y="247" type="curve" smooth="yes"/>
      <point x="413" y="466" type="line" smooth="yes"/>
      <point x="413" y="636"/>
      <point x="354" y="725"/>
      <point x="241" y="725" type="curve" smooth="yes"/>
      <point x="127" y="725"/>
      <point x="70" y="633"/>
      <point x="70" y="466" type="curve" smooth="yes"/>
      <point x="70" y="247" type="line" smooth="yes"/>
      <point x="70" y="80"/>
      <point x="127" y="-10"/>
    </contour>
    <contour>
      <point x="242" y="14" type="curve" smooth="yes"/>
      <point x="143" y="14"/>
      <point x="96" y="99"/>
      <point x="96" y="250" type="curve" smooth="yes"/>
      <point x="96" y="463" type="line" smooth="yes"/>
      <point x="96" y="616"/>
      <point x="143" y="701"/>
      <point x="242" y="701" type="curve" smooth="yes"/>
      <point x="340" y="701"/>
      <point x="387" y="616"/>
      <point x="387" y="462" type="curve" smooth="yes"/>
      <point x="387" y="251" type="line" smooth="yes"/>
      <point x="387" y="99"/>
      <point x="340" y="14"/>
    </contour>
  </outline>
</glyph>
<glyph name="iPhr.eth" format="2">
  <advance width="534"/>
  <unicode hex="12D2"/>
  <note>
uni12D2
</note>
  <anchor x="279" y="724" name="top"/>
  <outline>
    <contour>
      <point x="260" y="0" type="line"/>
      <point x="279" y="0" type="line"/>
      <point x="395" y="343" type="line"/>
      <point x="294" y="343" type="line"/>
      <point x="306" y="362"/>
      <point x="314" y="405"/>
      <point x="314" y="448" type="curve" smooth="yes"/>
      <point x="314" y="560" type="line" smooth="yes"/>
      <point x="314" y="663"/>
      <point x="270" y="724"/>
      <point x="178" y="724" type="curve" smooth="yes"/>
      <point x="90" y="724"/>
      <point x="40" y="663"/>
      <point x="40" y="560" type="curve" smooth="yes"/>
      <point x="40" y="448" type="line" smooth="yes"/>
      <point x="40" y="345"/>
      <point x="84" y="281"/>
      <point x="178" y="281" type="curve" smooth="yes"/>
      <point x="227" y="281"/>
      <point x="259" y="300"/>
      <point x="277" y="319" type="curve"/>
      <point x="359" y="319" type="line"/>
      <point x="260" y="23" type="line"/>
    </contour>
    <contour>
      <point x="270" y="0" type="line"/>
      <point x="429" y="0" type="line"/>
      <point x="429" y="25" type="line"/>
      <point x="270" y="25" type="line"/>
    </contour>
    <contour>
      <point x="178" y="306" type="curve" smooth="yes"/>
      <point x="101" y="306"/>
      <point x="66" y="360"/>
      <point x="66" y="455" type="curve" smooth="yes"/>
      <point x="66" y="559" type="line" smooth="yes"/>
      <point x="66" y="650"/>
      <point x="104" y="700"/>
      <point x="178" y="700" type="curve" smooth="yes"/>
      <point x="253" y="700"/>
      <point x="288" y="650"/>
      <point x="288" y="559" type="curve" smooth="yes"/>
      <point x="288" y="455" type="line" smooth="yes"/>
      <point x="288" y="360"/>
      <point x="259" y="306"/>
    </contour>
    <component base="rightdoubleflag" xOffset="305"/>
  </outline>
</glyph>
<glyph name="eePhr.eth" format="2">
  <advance width="504"/>
  <unicode hex="12D4"/>
  <note>
uni12D4
</note>
  <anchor x="263" y="724" name="top"/>
  <outline>
    <contour>
      <point x="260" y="0" type="line"/>
      <point x="279" y="0" type="line"/>
      <point x="395" y="343" type="line"/>
      <point x="294" y="343" type="line"/>
      <point x="306" y="362"/>
      <point x="314" y="405"/>
      <point x="314" y="448" type="curve" smooth="yes"/>
      <point x="314" y="560" type="line" smooth="yes"/>
      <point x="314" y="663"/>
      <point x="270" y="724"/>
      <point x="178" y="724" type="curve" smooth="yes"/>
      <point x="90" y="724"/>
      <point x="40" y="663"/>
      <point x="40" y="560" type="curve" smooth="yes"/>
      <point x="40" y="448" type="line" smooth="yes"/>
      <point x="40" y="345"/>
      <point x="84" y="281"/>
      <point x="178" y="281" type="curve" smooth="yes"/>
      <point x="227" y="281"/>
      <point x="259" y="300"/>
      <point x="277" y="319" type="curve"/>
      <point x="359" y="319" type="line"/>
      <point x="260" y="23" type="line"/>
    </contour>
    <contour>
      <point x="284" y="24" type="line"/>
      <point x="346" y="205" type="line"/>
      <point x="377" y="205" type="line" smooth="yes"/>
      <point x="437" y="205"/>
      <point x="459" y="172"/>
      <point x="459" y="121" type="curve" smooth="yes"/>
      <point x="459" y="64"/>
      <point x="428" y="24"/>
      <point x="351" y="24" type="curve" smooth="yes"/>
    </contour>
    <contour>
      <point x="261" y="0" type="line"/>
      <point x="352" y="0" type="line" smooth="yes"/>
      <point x="449" y="0"/>
      <point x="486" y="51"/>
      <point x="486" y="123" type="curve" smooth="yes"/>
      <point x="486" y="186"/>
      <point x="454" y="229"/>
      <point x="381" y="229" type="curve" smooth="yes"/>
      <point x="339" y="229" type="line"/>
    </contour>
    <contour>
      <point x="178" y="306" type="curve" smooth="yes"/>
      <point x="101" y="306"/>
      <point x="66" y="360"/>
      <point x="66" y="455" type="curve" smooth="yes"/>
      <point x="66" y="559" type="line" smooth="yes"/>
      <point x="66" y="650"/>
      <point x="104" y="700"/>
      <point x="178" y="700" type="curve" smooth="yes"/>
      <point x="253" y="700"/>
      <point x="288" y="650"/>
      <point x="288" y="559" type="curve" smooth="yes"/>
      <point x="288" y="455" type="line" smooth="yes"/>
      <point x="288" y="360"/>
      <point x="259" y="306"/>
    </contour>
  </outline>
</glyph>
<glyph name="ePhr.eth" format="2">
  <advance width="483"/>
  <unicode hex="12D5"/>
  <note>
uni12D5
</note>
  <anchor x="241" y="760" name="top"/>
  <outline>
    <contour>
      <point x="241" y="-10" type="curve" smooth="yes"/>
      <point x="354" y="-10"/>
      <point x="413" y="80"/>
      <point x="413" y="247" type="curve" smooth="yes"/>
      <point x="413" y="351" type="line" smooth="yes"/>
      <point x="413" y="521"/>
      <point x="354" y="610"/>
      <point x="241" y="610" type="curve" smooth="yes"/>
      <point x="127" y="610"/>
      <point x="70" y="518"/>
      <point x="70" y="351" type="curve" smooth="yes"/>
      <point x="70" y="247" type="line" smooth="yes"/>
      <point x="70" y="80"/>
      <point x="127" y="-10"/>
    </contour>
    <contour>
      <point x="242" y="14" type="curve" smooth="yes"/>
      <point x="143" y="14"/>
      <point x="96" y="99"/>
      <point x="96" y="250" type="curve" smooth="yes"/>
      <point x="96" y="348" type="line" smooth="yes"/>
      <point x="96" y="501"/>
      <point x="143" y="586"/>
      <point x="242" y="586" type="curve" smooth="yes"/>
      <point x="340" y="586"/>
      <point x="387" y="501"/>
      <point x="387" y="347" type="curve" smooth="yes"/>
      <point x="387" y="251" type="line" smooth="yes"/>
      <point x="387" y="99"/>
      <point x="340" y="14"/>
    </contour>
    <contour>
      <point x="228" y="599" type="line"/>
      <point x="254" y="599" type="line"/>
      <point x="254" y="760" type="line"/>
      <point x="228" y="760" type="line"/>
    </contour>
  </outline>
</glyph>
<glyph name="oPhr.eth" format="2">
  <advance width="392"/>
  <unicode hex="12D6"/>
  <note>
uni12D6
</note>
  <anchor x="196" y="725" name="top"/>
  <outline>
    <contour>
      <point x="40" y="0" type="curve"/>
      <point x="66" y="0" type="line"/>
      <point x="67" y="181"/>
      <point x="104" y="247"/>
      <point x="214" y="330" type="curve" smooth="yes"/>
      <point x="321" y="410"/>
      <point x="352" y="464"/>
      <point x="352" y="561" type="curve" smooth="yes"/>
      <point x="352" y="666"/>
      <point x="305" y="725"/>
      <point x="225" y="725" type="curve" smooth="yes"/>
      <point x="148" y="725"/>
      <point x="95" y="664"/>
      <point x="95" y="555" type="curve" smooth="yes"/>
      <point x="95" y="451"/>
      <point x="142" y="390"/>
      <point x="215" y="362" type="curve"/>
      <point x="78" y="259"/>
      <point x="41" y="192"/>
    </contour>
    <contour>
      <point x="237" y="377" type="curve"/>
      <point x="161" y="403"/>
      <point x="121" y="467"/>
      <point x="121" y="551" type="curve" smooth="yes"/>
      <point x="121" y="645"/>
      <point x="159" y="701"/>
      <point x="225" y="701" type="curve" smooth="yes"/>
      <point x="289" y="701"/>
      <point x="326" y="649"/>
      <point x="326" y="557" type="curve" smooth="yes"/>
      <point x="326" y="490"/>
      <point x="302" y="428"/>
    </contour>
  </outline>
</glyph>
<glyph name="za.eth" format="2">
  <advance width="442"/>
  <unicode hex="12D8"/>
  <note>
uni12D8
</note>
  <anchor x="221" y="714" name="top"/>
  <outline>
    <contour>
      <point x="90" y="0" type="line"/>
      <point x="116" y="0" type="line"/>
      <point x="116" y="363" type="line"/>
      <point x="326" y="363" type="line"/>
      <point x="326" y="0" type="line"/>
      <point x="352" y="0" type="line"/>
      <point x="352" y="714" type="line"/>
      <point x="326" y="714" type="line"/>
      <point x="326" y="388" type="line"/>
      <point x="116" y="388" type="line"/>
      <point x="116" y="714" type="line"/>
      <point x="90" y="714" type="line"/>
    </contour>
  </outline>
</glyph>
<glyph name="zaa.eth" format="2">
  <advance width="442"/>
  <unicode hex="12DB"/>
  <note>
uni12DB
</note>
  <anchor x="221" y="714" name="top"/>
  <outline>
    <contour>
      <point x="326" y="0" type="line"/>
      <point x="352" y="0" type="line"/>
      <point x="352" y="714" type="line"/>
      <point x="326" y="714" type="line"/>
      <point x="326" y="388" type="line"/>
      <point x="116" y="388" type="line"/>
      <point x="116" y="714" type="line"/>
      <point x="90" y="714" type="line"/>
      <point x="90" y="193" type="line"/>
      <point x="116" y="193" type="line"/>
      <point x="116" y="363" type="line"/>
      <point x="326" y="363" type="line"/>
    </contour>
  </outline>
</glyph>
<glyph name="ze.eth" format="2">
  <advance width="546"/>
  <unicode hex="12DD"/>
  <note>
uni12DD
</note>
  <anchor x="235" y="714" name="top"/>
  <outline>
    <contour>
      <point x="194" y="0" type="line"/>
      <point x="220" y="0" type="line"/>
      <point x="220" y="363" type="line"/>
      <point x="430" y="363" type="line"/>
      <point x="430" y="0" type="line"/>
      <point x="456" y="0" type="line"/>
      <point x="456" y="714" type="line"/>
      <point x="430" y="714" type="line"/>
      <point x="430" y="388" type="line"/>
      <point x="220" y="388" type="line"/>
      <point x="220" y="533" type="line" smooth="yes"/>
      <point x="220" y="662"/>
      <point x="175" y="714"/>
      <point x="90" y="714" type="curve" smooth="yes"/>
      <point x="34" y="714" type="line"/>
      <point x="15" y="617" type="line"/>
      <point x="23" y="617" type="line" smooth="yes"/>
      <point x="44" y="617"/>
      <point x="61" y="643"/>
      <point x="69" y="689" type="curve"/>
      <point x="86" y="689" type="line" smooth="yes"/>
      <point x="155" y="689"/>
      <point x="194" y="652"/>
      <point x="194" y="528" type="curve" smooth="yes"/>
    </contour>
  </outline>
</glyph>
<glyph name="zhaa.eth" format="2">
  <advance width="650"/>
  <unicode hex="12E3"/>
  <note>
uni12E3
</note>
  <anchor x="325" y="714" name="top"/>
  <outline>
    <contour>
      <point x="430" y="0" type="line"/>
      <point x="456" y="0" type="line"/>
      <point x="456" y="528" type="line" smooth="yes"/>
      <point x="456" y="651"/>
      <point x="495" y="689"/>
      <point x="564" y="689" type="curve" smooth="yes"/>
      <point x="581" y="689" type="line"/>
      <point x="589" y="643"/>
      <point x="606" y="617"/>
      <point x="627" y="617" type="curve" smooth="yes"/>
      <point x="635" y="617" type="line"/>
      <point x="616" y="714" type="line"/>
      <point x="560" y="714" type="line" smooth="yes"/>
      <point x="475" y="714"/>
      <point x="430" y="662"/>
      <point x="430" y="533" type="curve" smooth="yes"/>
      <point x="430" y="388" type="line"/>
      <point x="220" y="388" type="line"/>
      <point x="220" y="533" type="line" smooth="yes"/>
      <point x="220" y="662"/>
      <point x="175" y="714"/>
      <point x="90" y="714" type="curve" smooth="yes"/>
      <point x="34" y="714" type="line"/>
      <point x="15" y="617" type="line"/>
      <point x="23" y="617" type="line" smooth="yes"/>
      <point x="44" y="617"/>
      <point x="61" y="643"/>
      <point x="69" y="689" type="curve"/>
      <point x="86" y="689" type="line" smooth="yes"/>
      <point x="155" y="689"/>
      <point x="194" y="652"/>
      <point x="194" y="528" type="curve" smooth="yes"/>
      <point x="194" y="196" type="line"/>
      <point x="220" y="196" type="line"/>
      <point x="220" y="363" type="line"/>
      <point x="430" y="363" type="line"/>
    </contour>
  </outline>
</glyph>
<glyph name="zhe.eth" format="2">
  <advance width="660"/>
  <unicode hex="12E5"/>
  <note>
uni12E5
</note>
  <anchor x="330" y="845" name="top"/>
  <outline>
    <contour>
      <point x="204" y="0" type="line"/>
      <point x="230" y="0" type="line"/>
      <point x="230" y="265" type="line"/>
      <point x="440" y="265" type="line"/>
      <point x="440" y="0" type="line"/>
      <point x="466" y="0" type="line"/>
      <point x="466" y="360" type="line" smooth="yes"/>
      <point x="466" y="483"/>
      <point x="505" y="521"/>
      <point x="574" y="521" type="curve" smooth="yes"/>
      <point x="591" y="521" type="line"/>
      <point x="599" y="475"/>
      <point x="616" y="449"/>
      <point x="637" y="449" type="curve" smooth="yes"/>
      <point x="645" y="449" type="line"/>
      <point x="626" y="546" type="line"/>
      <point x="570" y="546" type="line" smooth="yes"/>
      <point x="485" y="546"/>
      <point x="440" y="494"/>
      <point x="440" y="365" type="curve" smooth="yes"/>
      <point x="440" y="290" type="line"/>
      <point x="230" y="290" type="line"/>
      <point x="230" y="365" type="line" smooth="yes"/>
      <point x="230" y="494"/>
      <point x="185" y="546"/>
      <point x="100" y="546" type="curve" smooth="yes"/>
      <point x="44" y="546" type="line"/>
      <point x="25" y="449" type="line"/>
      <point x="33" y="449" type="line" smooth="yes"/>
      <point x="54" y="449"/>
      <point x="71" y="475"/>
      <point x="79" y="521" type="curve"/>
      <point x="96" y="521" type="line" smooth="yes"/>
      <point x="165" y="521"/>
      <point x="204" y="484"/>
      <point x="204" y="360" type="curve" smooth="yes"/>
    </contour>
    <contour>
      <point x="203" y="466" type="line"/>
      <point x="203" y="764" type="line"/>
      <point x="177" y="764" type="line"/>
      <point x="177" y="492" type="line"/>
    </contour>
    <component base="footshort" xScale="-1" yScale="-1" xOffset="378" yOffset="773"/>
  </outline>
</glyph>
<glyph name="ya.eth" format="2">
  <advance width="350"/>
  <unicode hex="12E8"/>
  <note>
uni12E8
</note>
  <anchor x="185" y="724" name="top"/>
  <outline>
    <contour>
      <point x="176" y="0" type="line"/>
      <point x="203" y="0" type="line"/>
      <point x="203" y="88" type="line" smooth="yes"/>
      <point x="203" y="206"/>
      <point x="189" y="275"/>
      <point x="147" y="370" type="curve"/>
      <point x="243" y="397"/>
      <point x="315" y="454"/>
      <point x="315" y="575" type="curve" smooth="yes"/>
      <point x="315" y="660"/>
      <point x="274" y="724"/>
      <point x="189" y="724" type="curve" smooth="yes"/>
      <point x="101" y="724"/>
      <point x="55" y="657"/>
      <point x="55" y="564" type="curve" smooth="yes"/>
      <point x="55" y="481"/>
      <point x="88" y="433"/>
      <point x="121" y="361" type="curve" smooth="yes"/>
      <point x="163" y="268"/>
      <point x="176" y="190"/>
      <point x="176" y="84" type="curve" smooth="yes"/>
    </contour>
    <contour>
      <point x="136" y="390" type="curve"/>
      <point x="107" y="450"/>
      <point x="81" y="494"/>
      <point x="81" y="566" type="curve" smooth="yes"/>
      <point x="81" y="645"/>
      <point x="119" y="700"/>
      <point x="188" y="700" type="curve" smooth="yes"/>
      <point x="255" y="700"/>
      <point x="289" y="644"/>
      <point x="289" y="575" type="curve" smooth="yes"/>
      <point x="289" y="471"/>
      <point x="227" y="416"/>
    </contour>
  </outline>
</glyph>
<glyph name="yi.eth" format="2">
  <advance width="508"/>
  <unicode hex="12EA"/>
  <note>
uni12EA
</note>
  <anchor x="274" y="724" name="top"/>
  <outline>
    <contour>
      <point x="485" y="31" type="curve" smooth="yes"/>
      <point x="493" y="31" type="line"/>
      <point x="474" y="128" type="line"/>
      <point x="325" y="128" type="line"/>
      <point x="325" y="103" type="line"/>
      <point x="439" y="103" type="line"/>
      <point x="447" y="57"/>
      <point x="464" y="31"/>
    </contour>
    <contour>
      <point x="187" y="190" type="line"/>
      <point x="336" y="190" type="line"/>
      <point x="336" y="215" type="line"/>
      <point x="187" y="215" type="line"/>
    </contour>
    <contour>
      <point x="325" y="103" type="line"/>
      <point x="351" y="103" type="line"/>
      <point x="351" y="302" type="line"/>
      <point x="325" y="302" type="line"/>
    </contour>
    <component base="ya.eth"/>
  </outline>
</glyph>
<glyph name="ye.eth" format="2">
  <advance width="541"/>
  <unicode hex="12ED"/>
  <note>
uni12ED
</note>
  <anchor x="273" y="725" name="top"/>
  <outline>
    <contour>
      <point x="356" y="0" type="curve" smooth="yes"/>
      <point x="455" y="0"/>
      <point x="516" y="78"/>
      <point x="516" y="221" type="curve" smooth="yes"/>
      <point x="516" y="232" type="line"/>
      <point x="490" y="232" type="line"/>
      <point x="490" y="221" type="line" smooth="yes"/>
      <point x="490" y="93"/>
      <point x="440" y="25"/>
      <point x="358" y="25" type="curve" smooth="yes"/>
      <point x="224" y="25"/>
      <point x="145" y="204"/>
      <point x="140" y="420" type="curve"/>
      <point x="306" y="420"/>
      <point x="386" y="469"/>
      <point x="386" y="590" type="curve" smooth="yes"/>
      <point x="386" y="676"/>
      <point x="345" y="725"/>
      <point x="269" y="725" type="curve" smooth="yes"/>
      <point x="172" y="725"/>
      <point x="113" y="644"/>
      <point x="113" y="443" type="curve" smooth="yes"/>
      <point x="113" y="204"/>
      <point x="197" y="0"/>
    </contour>
    <contour>
      <point x="173" y="0" type="line"/>
      <point x="355" y="0" type="line"/>
      <point x="319" y="25" type="line"/>
      <point x="173" y="25" type="line"/>
    </contour>
    <contour>
      <point x="139" y="445" type="curve"/>
      <point x="139" y="457"/>
      <point x="139" y="460"/>
      <point x="139" y="472" type="curve" smooth="yes"/>
      <point x="139" y="621"/>
      <point x="190" y="700"/>
      <point x="269" y="700" type="curve" smooth="yes"/>
      <point x="325" y="700"/>
      <point x="360" y="660"/>
      <point x="360" y="588" type="curve" smooth="yes"/>
      <point x="360" y="479"/>
      <point x="279" y="445"/>
    </contour>
    <component base="leftsingleflag" xOffset="15" yOffset="-363"/>
  </outline>
</glyph>
<glyph name="da.eth" format="2">
  <advance width="448"/>
  <unicode hex="12F0"/>
  <note>
uni12F0
</note>
  <anchor x="224" y="725" name="top"/>
  <outline>
    <contour>
      <point x="221" y="96" type="curve"/>
      <point x="254" y="96" type="line"/>
      <point x="193" y="170"/>
      <point x="152" y="288"/>
      <point x="147" y="421" type="curve"/>
      <point x="312" y="421"/>
      <point x="393" y="469"/>
      <point x="393" y="590" type="curve" smooth="yes"/>
      <point x="393" y="676"/>
      <point x="352" y="725"/>
      <point x="278" y="725" type="curve" smooth="yes"/>
      <point x="179" y="725"/>
      <point x="120" y="638"/>
      <point x="120" y="461" type="curve" smooth="yes"/>
      <point x="120" y="311"/>
      <point x="162" y="179"/>
    </contour>
    <contour>
      <point x="146" y="444" type="curve"/>
      <point x="146" y="453"/>
      <point x="146" y="463"/>
      <point x="146" y="472" type="curve" smooth="yes"/>
      <point x="146" y="622"/>
      <point x="198" y="702"/>
      <point x="276" y="702" type="curve" smooth="yes"/>
      <point x="332" y="702"/>
      <point x="367" y="661"/>
      <point x="367" y="588" type="curve" smooth="yes"/>
      <point x="367" y="478"/>
      <point x="286" y="444"/>
    </contour>
    <component base="footmiddle" yOffset="72"/>
  </outline>
</glyph>
<glyph name="daa.eth" format="2">
  <advance width="561"/>
  <unicode hex="12F3"/>
  <note>
uni12F3
</note>
  <anchor x="253" y="725" name="top"/>
  <outline>
    <contour>
      <point x="378" y="251" type="curve"/>
      <point x="401" y="266" type="line"/>
      <point x="276" y="285"/>
      <point x="178" y="356"/>
      <point x="178" y="528" type="curve" smooth="yes"/>
      <point x="178" y="640"/>
      <point x="220" y="700"/>
      <point x="291" y="700" type="curve" smooth="yes"/>
      <point x="348" y="700"/>
      <point x="381" y="661"/>
      <point x="381" y="592" type="curve" smooth="yes"/>
      <point x="381" y="485"/>
      <point x="301" y="455"/>
      <point x="171" y="455" type="curve"/>
      <point x="174" y="430" type="line"/>
      <point x="327" y="431"/>
      <point x="407" y="475"/>
      <point x="407" y="592" type="curve" smooth="yes"/>
      <point x="407" y="673"/>
      <point x="369" y="725"/>
      <point x="293" y="725" type="curve" smooth="yes"/>
      <point x="201" y="725"/>
      <point x="151" y="650"/>
      <point x="151" y="527" type="curve" smooth="yes"/>
      <point x="151" y="335"/>
      <point x="272" y="260"/>
    </contour>
    <contour>
      <point x="465" y="0" type="line"/>
      <point x="491" y="0" type="line"/>
      <point x="491" y="267" type="line"/>
      <point x="155" y="267" type="line"/>
      <point x="163" y="242" type="line"/>
      <point x="465" y="242" type="line"/>
    </contour>
    <component base="leftsingleflag" yOffset="-121"/>
  </outline>
</glyph>
<glyph name="dee.eth" format="2">
  <advance width="549"/>
  <unicode hex="12F4"/>
  <note>
uni12F4
</note>
  <anchor x="271" y="725" name="top"/>
  <outline>
    <contour>
      <point x="96" y="160" type="line"/>
      <point x="386" y="160" type="line"/>
      <point x="423" y="185" type="line"/>
      <point x="275" y="185" type="line"/>
      <point x="215" y="246"/>
      <point x="169" y="322"/>
      <point x="157" y="425" type="curve"/>
      <point x="324" y="425"/>
      <point x="400" y="474"/>
      <point x="400" y="592" type="curve" smooth="yes"/>
      <point x="400" y="674"/>
      <point x="358" y="725"/>
      <point x="284" y="725" type="curve" smooth="yes"/>
      <point x="185" y="725"/>
      <point x="126" y="640"/>
      <point x="126" y="481" type="curve" smooth="yes"/>
      <point x="126" y="348"/>
      <point x="175" y="254"/>
      <point x="236" y="185" type="curve"/>
      <point x="96" y="185" type="line"/>
    </contour>
    <contour>
      <point x="154" y="450" type="curve"/>
      <point x="153" y="460"/>
      <point x="153" y="470"/>
      <point x="153" y="484" type="curve" smooth="yes"/>
      <point x="153" y="627"/>
      <point x="201" y="700"/>
      <point x="282" y="700" type="curve" smooth="yes"/>
      <point x="336" y="700"/>
      <point x="373" y="660"/>
      <point x="373" y="589" type="curve" smooth="yes"/>
      <point x="373" y="484"/>
      <point x="294" y="450"/>
    </contour>
    <component base="ballsmall" xOffset="304" yOffset="-222"/>
    <component base="leftsingleflag" yOffset="-203"/>
  </outline>
</glyph>
<glyph name="do.eth" format="2">
  <advance width="535"/>
  <unicode hex="12F6"/>
  <note>
uni12F6
</note>
  <anchor x="267" y="725" name="top"/>
  <outline>
    <contour>
      <point x="347" y="251" type="curve"/>
      <point x="370" y="266" type="line"/>
      <point x="245" y="285"/>
      <point x="147" y="356"/>
      <point x="147" y="528" type="curve" smooth="yes"/>
      <point x="147" y="640"/>
      <point x="189" y="700"/>
      <point x="260" y="700" type="curve" smooth="yes"/>
      <point x="317" y="700"/>
      <point x="350" y="661"/>
      <point x="350" y="592" type="curve" smooth="yes"/>
      <point x="350" y="485"/>
      <point x="270" y="455"/>
      <point x="140" y="455" type="curve"/>
      <point x="143" y="430" type="line"/>
      <point x="296" y="431"/>
      <point x="376" y="475"/>
      <point x="376" y="592" type="curve" smooth="yes"/>
      <point x="376" y="673"/>
      <point x="338" y="725"/>
      <point x="262" y="725" type="curve" smooth="yes"/>
      <point x="170" y="725"/>
      <point x="120" y="650"/>
      <point x="120" y="527" type="curve" smooth="yes"/>
      <point x="120" y="335"/>
      <point x="241" y="260"/>
    </contour>
    <contour>
      <point x="15" y="0" type="line"/>
      <point x="42" y="0" type="line"/>
      <point x="42" y="101" type="line" smooth="yes"/>
      <point x="42" y="213"/>
      <point x="76" y="242"/>
      <point x="152" y="242" type="curve" smooth="yes"/>
      <point x="405" y="242" type="line"/>
      <point x="405" y="267" type="line"/>
      <point x="146" y="267" type="line" smooth="yes"/>
      <point x="59" y="267"/>
      <point x="15" y="222"/>
      <point x="15" y="106" type="curve" smooth="yes"/>
    </contour>
    <component base="rightsingleflag" xOffset="306" yOffset="-121"/>
  </outline>
</glyph>
<glyph name="dwa.eth" format="2">
  <advance width="541"/>
  <unicode hex="12F7"/>
  <note>
uni12F7
</note>
  <anchor x="270" y="725" name="top"/>
  <outline>
    <contour>
      <point x="313" y="251" type="curve"/>
      <point x="336" y="266" type="line"/>
      <point x="211" y="285"/>
      <point x="113" y="356"/>
      <point x="113" y="528" type="curve" smooth="yes"/>
      <point x="113" y="640"/>
      <point x="155" y="700"/>
      <point x="226" y="700" type="curve" smooth="yes"/>
      <point x="283" y="700"/>
      <point x="316" y="661"/>
      <point x="316" y="592" type="curve" smooth="yes"/>
      <point x="316" y="485"/>
      <point x="236" y="455"/>
      <point x="106" y="455" type="curve"/>
      <point x="109" y="430" type="line"/>
      <point x="262" y="431"/>
      <point x="342" y="475"/>
      <point x="342" y="592" type="curve" smooth="yes"/>
      <point x="342" y="673"/>
      <point x="304" y="725"/>
      <point x="228" y="725" type="curve" smooth="yes"/>
      <point x="136" y="725"/>
      <point x="86" y="650"/>
      <point x="86" y="527" type="curve" smooth="yes"/>
      <point x="86" y="335"/>
      <point x="207" y="260"/>
    </contour>
    <contour>
      <point x="352" y="0" type="line"/>
      <point x="378" y="0" type="line"/>
      <point x="378" y="267" type="line"/>
      <point x="138" y="267" type="line"/>
      <point x="146" y="242" type="line"/>
      <point x="352" y="242" type="line"/>
    </contour>
    <component base="leftsingleflag" yOffset="-121"/>
    <component base="footright" xOffset="86"/>
  </outline>
</glyph>
<glyph name="dda.eth" format="2">
  <advance width="448"/>
  <unicode hex="12F8"/>
  <note>
uni12F8
</note>
  <anchor x="224" y="762" name="top"/>
  <outline>
    <contour>
      <point x="220" y="95" type="curve"/>
      <point x="252" y="95" type="line"/>
      <point x="208" y="149"/>
      <point x="161" y="223"/>
      <point x="150" y="320" type="curve"/>
      <point x="314" y="320"/>
      <point x="388" y="365"/>
      <point x="388" y="486" type="curve" smooth="yes"/>
      <point x="388" y="567"/>
      <point x="343" y="621"/>
      <point x="270" y="621" type="curve" smooth="yes"/>
      <point x="177" y="621"/>
      <point x="119" y="536"/>
      <point x="119" y="378" type="curve" smooth="yes"/>
      <point x="119" y="235"/>
      <point x="179" y="152"/>
    </contour>
    <contour>
      <point x="147" y="345" type="curve"/>
      <point x="146" y="354"/>
      <point x="145" y="369"/>
      <point x="145" y="378" type="curve" smooth="yes"/>
      <point x="145" y="529"/>
      <point x="194" y="596"/>
      <point x="270" y="596" type="curve" smooth="yes"/>
      <point x="325" y="596"/>
      <point x="362" y="554"/>
      <point x="362" y="485" type="curve" smooth="yes"/>
      <point x="362" y="377"/>
      <point x="293" y="345"/>
    </contour>
    <contour>
      <point x="251" y="607" type="line"/>
      <point x="277" y="607" type="line"/>
      <point x="277" y="762" type="line"/>
      <point x="251" y="762" type="line"/>
    </contour>
    <component base="footmiddle" yOffset="72"/>
  </outline>
</glyph>
<glyph name="ddaa.eth" format="2">
  <advance width="569"/>
  <unicode hex="12FB"/>
  <note>
uni12FB
</note>
  <anchor x="257" y="759" name="top"/>
  <outline>
    <contour>
      <point x="385" y="216" type="curve"/>
      <point x="407" y="231" type="line"/>
      <point x="283" y="250"/>
      <point x="194" y="301"/>
      <point x="194" y="463" type="curve" smooth="yes"/>
      <point x="194" y="553"/>
      <point x="233" y="613"/>
      <point x="306" y="613" type="curve" smooth="yes"/>
      <point x="363" y="613"/>
      <point x="396" y="567"/>
      <point x="396" y="504" type="curve" smooth="yes"/>
      <point x="396" y="411"/>
      <point x="334" y="366"/>
      <point x="201" y="365" type="curve"/>
      <point x="212" y="340" type="line"/>
      <point x="361" y="342"/>
      <point x="423" y="404"/>
      <point x="423" y="505" type="curve" smooth="yes"/>
      <point x="423" y="579"/>
      <point x="385" y="638"/>
      <point x="307" y="638" type="curve" smooth="yes"/>
      <point x="212" y="638"/>
      <point x="167" y="563"/>
      <point x="167" y="463" type="curve" smooth="yes"/>
      <point x="167" y="288"/>
      <point x="274" y="225"/>
    </contour>
    <contour>
      <point x="473" y="0" type="line"/>
      <point x="499" y="0" type="line"/>
      <point x="499" y="232" type="line"/>
      <point x="124" y="232" type="line"/>
      <point x="124" y="207" type="line"/>
      <point x="473" y="207" type="line"/>
    </contour>
    <contour>
      <point x="293" y="626" type="line"/>
      <point x="319" y="626" type="line"/>
      <point x="319" y="759" type="line"/>
      <point x="293" y="759" type="line"/>
    </contour>
    <component base="leftsingleflag" yOffset="-156"/>
  </outline>
</glyph>
<glyph name="ddee.eth" format="2">
  <advance width="535"/>
  <unicode hex="12FC"/>
  <note>
uni12FC
</note>
  <anchor x="264" y="762" name="top"/>
  <outline>
    <contour>
      <point x="230" y="183" type="curve"/>
      <point x="275" y="183" type="line"/>
      <point x="224" y="223"/>
      <point x="183" y="293"/>
      <point x="173" y="350" type="curve"/>
      <point x="327" y="350"/>
      <point x="398" y="393"/>
      <point x="398" y="509" type="curve" smooth="yes"/>
      <point x="398" y="592"/>
      <point x="355" y="642"/>
      <point x="287" y="642" type="curve" smooth="yes"/>
      <point x="195" y="642"/>
      <point x="136" y="571"/>
      <point x="136" y="426" type="curve" smooth="yes"/>
      <point x="136" y="312"/>
      <point x="184" y="229"/>
    </contour>
    <contour>
      <point x="184" y="160" type="line"/>
      <point x="393" y="160" type="line"/>
      <point x="412" y="185" type="line"/>
      <point x="184" y="185" type="line"/>
    </contour>
    <contour>
      <point x="167" y="375" type="curve"/>
      <point x="165" y="389"/>
      <point x="163" y="408"/>
      <point x="163" y="428" type="curve" smooth="yes"/>
      <point x="163" y="556"/>
      <point x="213" y="617"/>
      <point x="285" y="617" type="curve" smooth="yes"/>
      <point x="333" y="617"/>
      <point x="372" y="578"/>
      <point x="372" y="508" type="curve" smooth="yes"/>
      <point x="372" y="400"/>
      <point x="298" y="375"/>
    </contour>
    <contour>
      <point x="273" y="629" type="line"/>
      <point x="301" y="629" type="line"/>
      <point x="301" y="762" type="line"/>
      <point x="273" y="762" type="line"/>
    </contour>
    <component base="ballsmall" xOffset="290" yOffset="-222"/>
    <component base="leftsingleflag" yOffset="-203"/>
  </outline>
</glyph>
<glyph name="ddo.eth" format="2">
  <advance width="535"/>
  <unicode hex="12FE"/>
  <note>
uni12FE
</note>
  <anchor x="267" y="762" name="top"/>
  <outline>
    <contour>
      <point x="347" y="144" type="curve"/>
      <point x="370" y="159" type="line"/>
      <point x="245" y="178"/>
      <point x="147" y="249"/>
      <point x="147" y="421" type="curve" smooth="yes"/>
      <point x="147" y="533"/>
      <point x="189" y="593"/>
      <point x="260" y="593" type="curve" smooth="yes"/>
      <point x="317" y="593"/>
      <point x="350" y="554"/>
      <point x="350" y="485" type="curve" smooth="yes"/>
      <point x="350" y="378"/>
      <point x="270" y="348"/>
      <point x="140" y="348" type="curve"/>
      <point x="143" y="323" type="line"/>
      <point x="296" y="324"/>
      <point x="376" y="368"/>
      <point x="376" y="485" type="curve" smooth="yes"/>
      <point x="376" y="566"/>
      <point x="338" y="618"/>
      <point x="262" y="618" type="curve" smooth="yes"/>
      <point x="170" y="618"/>
      <point x="120" y="543"/>
      <point x="120" y="420" type="curve" smooth="yes"/>
      <point x="120" y="228"/>
      <point x="241" y="153"/>
    </contour>
    <contour>
      <point x="15" y="0" type="line"/>
      <point x="42" y="0" type="line"/>
      <point x="42" y="14" type="line" smooth="yes"/>
      <point x="42" y="110"/>
      <point x="76" y="135"/>
      <point x="152" y="135" type="curve" smooth="yes"/>
      <point x="405" y="135" type="line"/>
      <point x="405" y="160" type="line"/>
      <point x="146" y="160" type="line" smooth="yes"/>
      <point x="59" y="160"/>
      <point x="15" y="121"/>
      <point x="15" y="19" type="curve" smooth="yes"/>
    </contour>
    <contour>
      <point x="249" y="607" type="line"/>
      <point x="277" y="607" type="line"/>
      <point x="277" y="762" type="line"/>
      <point x="249" y="762" type="line"/>
    </contour>
    <component base="rightsingleflag" xOffset="306" yOffset="-228"/>
  </outline>
</glyph>
<glyph name="ddwa.eth" format="2">
  <advance width="617"/>
  <unicode hex="12FF"/>
  <note>
uni12FF
</note>
  <anchor x="308" y="759" name="top"/>
  <outline>
    <contour>
      <point x="354" y="216" type="curve"/>
      <point x="376" y="231" type="line"/>
      <point x="252" y="250"/>
      <point x="163" y="301"/>
      <point x="163" y="463" type="curve" smooth="yes"/>
      <point x="163" y="553"/>
      <point x="202" y="613"/>
      <point x="275" y="613" type="curve" smooth="yes"/>
      <point x="333" y="613"/>
      <point x="366" y="567"/>
      <point x="366" y="504" type="curve" smooth="yes"/>
      <point x="366" y="411"/>
      <point x="304" y="366"/>
      <point x="170" y="365" type="curve"/>
      <point x="181" y="340" type="line"/>
      <point x="330" y="342"/>
      <point x="392" y="404"/>
      <point x="392" y="505" type="curve" smooth="yes"/>
      <point x="392" y="579"/>
      <point x="354" y="638"/>
      <point x="276" y="638" type="curve" smooth="yes"/>
      <point x="181" y="638"/>
      <point x="136" y="563"/>
      <point x="136" y="463" type="curve" smooth="yes"/>
      <point x="136" y="288"/>
      <point x="243" y="225"/>
    </contour>
    <contour>
      <point x="432" y="0" type="line"/>
      <point x="458" y="0" type="line"/>
      <point x="458" y="232" type="line"/>
      <point x="123" y="232" type="line"/>
      <point x="123" y="207" type="line"/>
      <point x="432" y="207" type="line"/>
    </contour>
    <contour>
      <point x="262" y="626" type="line"/>
      <point x="288" y="626" type="line"/>
      <point x="288" y="759" type="line"/>
      <point x="262" y="759" type="line"/>
    </contour>
    <component base="footright" xOffset="162"/>
    <component base="leftsingleflag" yOffset="-156"/>
  </outline>
</glyph>
<glyph name="ja.eth" format="2">
  <advance width="448"/>
  <unicode hex="1300"/>
  <note>
uni1300
</note>
  <anchor x="224" y="792" name="top"/>
  <outline>
    <contour>
      <point x="199" y="96" type="curve"/>
      <point x="232" y="96" type="line"/>
      <point x="190" y="138"/>
      <point x="145" y="205"/>
      <point x="127" y="293" type="curve"/>
      <point x="291" y="293"/>
      <point x="361" y="338"/>
      <point x="361" y="452" type="curve" smooth="yes"/>
      <point x="361" y="527"/>
      <point x="316" y="581"/>
      <point x="243" y="581" type="curve" smooth="yes"/>
      <point x="150" y="581"/>
      <point x="92" y="496"/>
      <point x="92" y="371" type="curve" smooth="yes"/>
      <point x="92" y="227"/>
      <point x="166" y="135"/>
    </contour>
    <contour>
      <point x="122" y="318" type="curve"/>
      <point x="120" y="331"/>
      <point x="118" y="344"/>
      <point x="118" y="371" type="curve" smooth="yes"/>
      <point x="118" y="489"/>
      <point x="167" y="556"/>
      <point x="243" y="556" type="curve" smooth="yes"/>
      <point x="298" y="556"/>
      <point x="335" y="514"/>
      <point x="335" y="451" type="curve" smooth="yes"/>
      <point x="335" y="350"/>
      <point x="268" y="318"/>
    </contour>
    <contour>
      <point x="216" y="567" type="line"/>
      <point x="242" y="567" type="line"/>
      <point x="242" y="711" type="line"/>
      <point x="216" y="711" type="line"/>
    </contour>
    <component base="footmiddle" yOffset="72"/>
    <component base="bonemiddle" xOffset="11" yOffset="-52"/>
  </outline>
</glyph>
<glyph name="jaa.eth" format="2">
  <advance width="555"/>
  <unicode hex="1303"/>
  <note>
uni1303
</note>
  <anchor x="267" y="788" name="top"/>
  <outline>
    <contour>
      <point x="377" y="182" type="curve"/>
      <point x="407" y="197" type="line"/>
      <point x="283" y="216"/>
      <point x="194" y="275"/>
      <point x="194" y="429" type="curve" smooth="yes"/>
      <point x="194" y="523"/>
      <point x="236" y="579"/>
      <point x="306" y="579" type="curve" smooth="yes"/>
      <point x="364" y="579"/>
      <point x="397" y="533"/>
      <point x="397" y="470" type="curve" smooth="yes"/>
      <point x="397" y="368"/>
      <point x="335" y="332"/>
      <point x="201" y="331" type="curve"/>
      <point x="212" y="306" type="line"/>
      <point x="361" y="308"/>
      <point x="423" y="361"/>
      <point x="423" y="471" type="curve" smooth="yes"/>
      <point x="423" y="545"/>
      <point x="385" y="604"/>
      <point x="307" y="604" type="curve" smooth="yes"/>
      <point x="218" y="604"/>
      <point x="167" y="533"/>
      <point x="167" y="429" type="curve" smooth="yes"/>
      <point x="167" y="253"/>
      <point x="271" y="191"/>
    </contour>
    <contour>
      <point x="473" y="0" type="line"/>
      <point x="499" y="0" type="line"/>
      <point x="499" y="198" type="line"/>
      <point x="124" y="198" type="line"/>
      <point x="124" y="173" type="line"/>
      <point x="473" y="173" type="line"/>
    </contour>
    <contour>
      <point x="292" y="592" type="line"/>
      <point x="319" y="592" type="line"/>
      <point x="319" y="710" type="line"/>
      <point x="292" y="710" type="line"/>
    </contour>
    <component base="leftsingleflag" yOffset="-190"/>
    <component base="bonelong" xOffset="48" yOffset="-56"/>
  </outline>
</glyph>
<glyph name="jee.eth" format="2">
  <advance width="590"/>
  <unicode hex="1304"/>
  <note>
uni1304
</note>
  <anchor x="291" y="787" name="top"/>
  <outline>
    <contour>
      <point x="377" y="181" type="curve"/>
      <point x="407" y="196" type="line"/>
      <point x="283" y="215"/>
      <point x="194" y="274"/>
      <point x="194" y="428" type="curve" smooth="yes"/>
      <point x="194" y="522"/>
      <point x="236" y="578"/>
      <point x="306" y="578" type="curve" smooth="yes"/>
      <point x="364" y="578"/>
      <point x="397" y="532"/>
      <point x="397" y="469" type="curve" smooth="yes"/>
      <point x="397" y="367"/>
      <point x="335" y="331"/>
      <point x="201" y="330" type="curve"/>
      <point x="212" y="305" type="line"/>
      <point x="361" y="307"/>
      <point x="423" y="360"/>
      <point x="423" y="470" type="curve" smooth="yes"/>
      <point x="423" y="544"/>
      <point x="385" y="603"/>
      <point x="307" y="603" type="curve" smooth="yes"/>
      <point x="218" y="603"/>
      <point x="167" y="532"/>
      <point x="167" y="428" type="curve" smooth="yes"/>
      <point x="167" y="252"/>
      <point x="271" y="190"/>
    </contour>
    <contour>
      <point x="124" y="172" type="line"/>
      <point x="429" y="172" type="line"/>
      <point x="462" y="197" type="line"/>
      <point x="124" y="197" type="line"/>
    </contour>
    <contour>
      <point x="292" y="591" type="line"/>
      <point x="319" y="591" type="line"/>
      <point x="319" y="709" type="line"/>
      <point x="292" y="709" type="line"/>
    </contour>
    <component base="ballsmall" xOffset="345" yOffset="-210"/>
    <component base="leftsingleflag" yOffset="-191"/>
    <component base="bonelong" xOffset="58" yOffset="-57"/>
  </outline>
</glyph>
<glyph name="jo.eth" format="2">
  <advance width="535"/>
  <unicode hex="1306"/>
  <note>
uni1306
</note>
  <anchor x="267" y="788" name="top"/>
  <outline>
    <contour>
      <point x="352" y="182" type="curve"/>
      <point x="382" y="197" type="line"/>
      <point x="258" y="216"/>
      <point x="169" y="275"/>
      <point x="169" y="429" type="curve" smooth="yes"/>
      <point x="169" y="523"/>
      <point x="211" y="579"/>
      <point x="281" y="579" type="curve" smooth="yes"/>
      <point x="339" y="579"/>
      <point x="372" y="533"/>
      <point x="372" y="470" type="curve" smooth="yes"/>
      <point x="372" y="368"/>
      <point x="310" y="332"/>
      <point x="176" y="331" type="curve"/>
      <point x="187" y="306" type="line"/>
      <point x="336" y="308"/>
      <point x="398" y="361"/>
      <point x="398" y="471" type="curve" smooth="yes"/>
      <point x="398" y="545"/>
      <point x="360" y="604"/>
      <point x="282" y="604" type="curve" smooth="yes"/>
      <point x="193" y="604"/>
      <point x="142" y="533"/>
      <point x="142" y="429" type="curve" smooth="yes"/>
      <point x="142" y="253"/>
      <point x="246" y="191"/>
    </contour>
    <contour>
      <point x="15" y="0" type="line"/>
      <point x="42" y="0" type="line"/>
      <point x="42" y="51" type="line" smooth="yes"/>
      <point x="42" y="147"/>
      <point x="76" y="172"/>
      <point x="152" y="172" type="curve" smooth="yes"/>
      <point x="405" y="172" type="line"/>
      <point x="405" y="197" type="line"/>
      <point x="146" y="197" type="line" smooth="yes"/>
      <point x="59" y="197"/>
      <point x="15" y="158"/>
      <point x="15" y="56" type="curve" smooth="yes"/>
    </contour>
    <contour>
      <point x="267" y="592" type="line"/>
      <point x="294" y="592" type="line"/>
      <point x="294" y="710" type="line"/>
      <point x="267" y="710" type="line"/>
    </contour>
    <component base="bonelong" xOffset="35" yOffset="-56"/>
    <component base="rightsingleflag" xOffset="306" yOffset="-191"/>
  </outline>
</glyph>
<glyph name="ga.eth" format="2">
  <advance width="445"/>
  <unicode hex="1308"/>
  <note>
uni1308
</note>
  <anchor x="190" y="714" name="top"/>
  <outline>
    <contour>
      <point x="339" y="0" type="line"/>
      <point x="365" y="0" type="line"/>
      <point x="365" y="408" type="line" smooth="yes"/>
      <point x="365" y="638"/>
      <point x="285" y="714"/>
      <point x="87" y="714" type="curve" smooth="yes"/>
      <point x="34" y="714" type="line"/>
      <point x="15" y="617" type="line"/>
      <point x="23" y="617" type="line" smooth="yes"/>
      <point x="46" y="617"/>
      <point x="63" y="651"/>
      <point x="69" y="689" type="curve"/>
      <point x="83" y="689" type="line" smooth="yes"/>
      <point x="269" y="689"/>
      <point x="339" y="623"/>
      <point x="339" y="403" type="curve" smooth="yes"/>
    </contour>
  </outline>
</glyph>
<glyph name="gaa.eth" format="2">
  <advance width="456"/>
  <unicode hex="130B"/>
  <note>
uni130B
</note>
  <anchor x="195" y="714" name="top"/>
  <outline>
    <contour>
      <point x="15" y="-72" type="line"/>
      <point x="23" y="-72" type="line" smooth="yes"/>
      <point x="44" y="-72"/>
      <point x="61" y="-46"/>
      <point x="69" y="0" type="curve"/>
      <point x="194" y="0" type="line" smooth="yes"/>
      <point x="318" y="0"/>
      <point x="376" y="66"/>
      <point x="376" y="214" type="curve" smooth="yes"/>
      <point x="376" y="408" type="line" smooth="yes"/>
      <point x="376" y="638"/>
      <point x="295" y="714"/>
      <point x="98" y="714" type="curve" smooth="yes"/>
      <point x="46" y="714" type="line"/>
      <point x="27" y="617" type="line"/>
      <point x="35" y="617" type="line" smooth="yes"/>
      <point x="58" y="617"/>
      <point x="75" y="650"/>
      <point x="81" y="689" type="curve"/>
      <point x="94" y="689" type="line" smooth="yes"/>
      <point x="280" y="689"/>
      <point x="350" y="615"/>
      <point x="350" y="403" type="curve" smooth="yes"/>
      <point x="350" y="218" type="line" smooth="yes"/>
      <point x="350" y="79"/>
      <point x="307" y="25"/>
      <point x="191" y="25" type="curve" smooth="yes"/>
      <point x="34" y="25" type="line"/>
    </contour>
  </outline>
</glyph>
<glyph name="ge.eth" format="2">
  <advance width="595"/>
  <unicode hex="130D"/>
  <note>
uni130D
</note>
  <anchor x="268" y="714" name="top"/>
  <outline>
    <contour>
      <point x="489" y="0" type="line"/>
      <point x="515" y="0" type="line"/>
      <point x="515" y="408" type="line" smooth="yes"/>
      <point x="515" y="638"/>
      <point x="435" y="714"/>
      <point x="238" y="714" type="curve" smooth="yes"/>
      <point x="137" y="714" type="line"/>
      <point x="197" y="691" type="line"/>
      <point x="235" y="691" type="line" smooth="yes"/>
      <point x="421" y="691"/>
      <point x="489" y="614"/>
      <point x="489" y="403" type="curve" smooth="yes"/>
    </contour>
    <component base="ballbig" yOffset="292"/>
  </outline>
</glyph>
<glyph name="go.eth" format="2">
  <advance width="445"/>
  <unicode hex="130E"/>
  <note>
uni130E
</note>
  <anchor x="190" y="762" name="top"/>
  <outline>
    <contour>
      <point x="339" y="0" type="line"/>
      <point x="365" y="0" type="line"/>
      <point x="365" y="303" type="line" smooth="yes"/>
      <point x="365" y="533"/>
      <point x="284" y="609"/>
      <point x="87" y="609" type="curve" smooth="yes"/>
      <point x="34" y="609" type="line"/>
      <point x="15" y="512" type="line"/>
      <point x="23" y="512" type="line" smooth="yes"/>
      <point x="46" y="512"/>
      <point x="63" y="545"/>
      <point x="69" y="584" type="curve"/>
      <point x="83" y="584" type="line" smooth="yes"/>
      <point x="269" y="584"/>
      <point x="339" y="518"/>
      <point x="339" y="298" type="curve" smooth="yes"/>
    </contour>
    <contour>
      <point x="175" y="587" type="line"/>
      <point x="201" y="587" type="line"/>
      <point x="201" y="762" type="line"/>
      <point x="175" y="762" type="line"/>
    </contour>
  </outline>
</glyph>
<glyph name="goa.eth" format="2">
  <advance width="474"/>
  <unicode hex="130F"/>
  <note>
uni130F
</note>
  <anchor x="216" y="762" name="top"/>
  <outline>
    <contour>
      <point x="183" y="0" type="line"/>
      <point x="384" y="0" type="line"/>
      <point x="384" y="25" type="line"/>
      <point x="183" y="25" type="line"/>
    </contour>
    <component base="go.eth" xOffset="29"/>
    <component base="leftdoubleflag" xOffset="24"/>
  </outline>
</glyph>
<glyph name="gwi.eth" format="2">
  <advance width="664"/>
  <unicode hex="1312"/>
  <note>
uni1312
</note>
  <anchor x="332" y="714" name="top"/>
  <outline>
    <contour>
      <point x="641" y="286" type="curve" smooth="yes"/>
      <point x="649" y="286" type="line"/>
      <point x="630" y="383" type="line"/>
      <point x="481" y="383" type="line"/>
      <point x="481" y="358" type="line"/>
      <point x="595" y="358" type="line"/>
      <point x="603" y="312"/>
      <point x="620" y="286"/>
    </contour>
    <contour>
      <point x="343" y="445" type="line"/>
      <point x="492" y="445" type="line"/>
      <point x="492" y="470" type="line"/>
      <point x="343" y="470" type="line"/>
    </contour>
    <contour>
      <point x="481" y="358" type="line"/>
      <point x="507" y="358" type="line"/>
      <point x="507" y="557" type="line"/>
      <point x="481" y="557" type="line"/>
    </contour>
    <component base="ga.eth"/>
  </outline>
</glyph>
<glyph name="gwaa.eth" format="2">
  <advance width="432"/>
  <unicode hex="1313"/>
  <note>
uni1313
</note>
  <anchor x="183" y="725" name="top"/>
  <outline>
    <contour>
      <point x="326" y="0" type="line"/>
      <point x="352" y="0" type="line"/>
      <point x="352" y="146" type="line" smooth="yes"/>
      <point x="352" y="364"/>
      <point x="270" y="438"/>
      <point x="84" y="438" type="curve" smooth="yes"/>
      <point x="34" y="438" type="line"/>
      <point x="15" y="341" type="line"/>
      <point x="23" y="341" type="line" smooth="yes"/>
      <point x="47" y="341"/>
      <point x="63" y="375"/>
      <point x="69" y="413" type="curve"/>
      <point x="82" y="413" type="line" smooth="yes"/>
      <point x="260" y="413"/>
      <point x="326" y="349"/>
      <point x="326" y="141" type="curve" smooth="yes"/>
    </contour>
    <contour>
      <point x="233" y="395" type="line"/>
      <point x="259" y="395" type="line"/>
      <point x="259" y="524" type="line" smooth="yes"/>
      <point x="259" y="680"/>
      <point x="191" y="725"/>
      <point x="87" y="725" type="curve" smooth="yes"/>
      <point x="34" y="725" type="line"/>
      <point x="15" y="628" type="line"/>
      <point x="23" y="628" type="line" smooth="yes"/>
      <point x="47" y="628"/>
      <point x="63" y="663"/>
      <point x="69" y="700" type="curve"/>
      <point x="83" y="700" type="line" smooth="yes"/>
      <point x="179" y="700"/>
      <point x="233" y="664"/>
      <point x="233" y="519" type="curve" smooth="yes"/>
    </contour>
  </outline>
</glyph>
<glyph name="gwee.eth" format="2">
  <advance width="582"/>
  <unicode hex="1314"/>
  <note>
uni1314
</note>
  <anchor x="289" y="714" name="top"/>
  <outline>
    <contour>
      <point x="167" y="0" type="line"/>
      <point x="388" y="0" type="line"/>
      <point x="388" y="25" type="line"/>
      <point x="167" y="25" type="line"/>
    </contour>
    <component base="ga.eth"/>
    <component base="leftsingleflag" xOffset="7" yOffset="-363"/>
    <component base="baselinebowl" xOffset="299"/>
  </outline>
</glyph>
<glyph name="gwe.eth" format="2">
  <advance width="667"/>
  <unicode hex="1315"/>
  <note>
uni1315
</note>
  <anchor x="333" y="714" name="top"/>
  <outline>
    <contour>
      <point x="472" y="378" type="line"/>
      <point x="498" y="378" type="line"/>
      <point x="498" y="557" type="line"/>
      <point x="472" y="557" type="line"/>
    </contour>
    <contour>
      <point x="344" y="378" type="line"/>
      <point x="483" y="378" type="line"/>
      <point x="483" y="403" type="line"/>
      <point x="344" y="403" type="line"/>
    </contour>
    <component base="ga.eth"/>
    <component base="rightsingleflag" xOffset="438" yOffset="15"/>
  </outline>
</glyph>
<glyph name="gga.eth" format="2">
  <advance width="466"/>
  <unicode hex="1318"/>
  <note>
uni1318
</note>
  <anchor x="200" y="785" name="top"/>
  <outline>
    <contour>
      <point x="355" y="0" type="line"/>
      <point x="381" y="0" type="line"/>
      <point x="381" y="205" type="line" smooth="yes"/>
      <point x="381" y="435"/>
      <point x="301" y="511"/>
      <point x="103" y="511" type="curve" smooth="yes"/>
      <point x="50" y="511" type="line"/>
      <point x="31" y="414" type="line"/>
      <point x="39" y="414" type="line" smooth="yes"/>
      <point x="62" y="414"/>
      <point x="79" y="448"/>
      <point x="85" y="486" type="curve"/>
      <point x="99" y="486" type="line" smooth="yes"/>
      <point x="285" y="486"/>
      <point x="355" y="420"/>
      <point x="355" y="200" type="curve" smooth="yes"/>
    </contour>
    <contour>
      <point x="192" y="487" type="line"/>
      <point x="218" y="487" type="line"/>
      <point x="218" y="699" type="line"/>
      <point x="192" y="699" type="line"/>
    </contour>
    <component base="bone" yOffset="-59"/>
  </outline>
</glyph>
<glyph name="ggaa.eth" format="2">
  <advance width="466"/>
  <unicode hex="131B"/>
  <note>
uni131B
</note>
  <anchor x="200" y="785" name="top"/>
  <outline>
    <contour>
      <point x="23" y="-72" type="line"/>
      <point x="31" y="-72" type="line" smooth="yes"/>
      <point x="52" y="-72"/>
      <point x="69" y="-46"/>
      <point x="77" y="0" type="curve"/>
      <point x="202" y="0" type="line" smooth="yes"/>
      <point x="326" y="0"/>
      <point x="384" y="66"/>
      <point x="384" y="214" type="curve" smooth="yes"/>
      <point x="384" y="240" type="line" smooth="yes"/>
      <point x="384" y="470"/>
      <point x="303" y="546"/>
      <point x="106" y="546" type="curve" smooth="yes"/>
      <point x="54" y="546" type="line"/>
      <point x="38" y="450" type="line"/>
      <point x="46" y="450" type="line" smooth="yes"/>
      <point x="69" y="450"/>
      <point x="85" y="484"/>
      <point x="91" y="523" type="curve"/>
      <point x="104" y="523" type="line" smooth="yes"/>
      <point x="290" y="523"/>
      <point x="358" y="447"/>
      <point x="358" y="235" type="curve" smooth="yes"/>
      <point x="358" y="218" type="line" smooth="yes"/>
      <point x="358" y="79"/>
      <point x="315" y="25"/>
      <point x="199" y="25" type="curve" smooth="yes"/>
      <point x="42" y="25" type="line"/>
    </contour>
    <contour>
      <point x="195" y="520" type="line"/>
      <point x="221" y="520" type="line"/>
      <point x="221" y="699" type="line"/>
      <point x="195" y="699" type="line"/>
    </contour>
    <component base="bone" yOffset="-59"/>
  </outline>
</glyph>
<glyph name="gge.eth" format="2">
  <advance width="601"/>
  <unicode hex="131D"/>
  <note>
uni131D
</note>
  <anchor x="268" y="785" name="top"/>
  <outline>
    <contour>
      <point x="495" y="0" type="line"/>
      <point x="521" y="0" type="line"/>
      <point x="521" y="216" type="line" smooth="yes"/>
      <point x="521" y="446"/>
      <point x="441" y="522"/>
      <point x="244" y="522" type="curve" smooth="yes"/>
      <point x="143" y="522" type="line"/>
      <point x="203" y="499" type="line"/>
      <point x="241" y="499" type="line" smooth="yes"/>
      <point x="427" y="499"/>
      <point x="495" y="422"/>
      <point x="495" y="211" type="curve" smooth="yes"/>
    </contour>
    <contour>
      <point x="208" y="504" type="line"/>
      <point x="234" y="504" type="line"/>
      <point x="234" y="699" type="line"/>
      <point x="208" y="699" type="line"/>
    </contour>
    <component base="bonemiddle" yOffset="-59"/>
    <component base="ballbig" xOffset="6" yOffset="100"/>
  </outline>
</glyph>
<glyph name="ggo.eth" format="2">
  <advance width="487"/>
  <unicode hex="131E"/>
  <note>
uni131E
</note>
  <anchor x="243" y="844" name="top"/>
  <outline>
    <contour>
      <point x="392" y="0" type="line"/>
      <point x="418" y="0" type="line"/>
      <point x="418" y="157" type="line" smooth="yes"/>
      <point x="418" y="387"/>
      <point x="337" y="463"/>
      <point x="140" y="463" type="curve" smooth="yes"/>
      <point x="87" y="463" type="line"/>
      <point x="68" y="366" type="line"/>
      <point x="76" y="366" type="line" smooth="yes"/>
      <point x="99" y="366"/>
      <point x="116" y="399"/>
      <point x="122" y="438" type="curve"/>
      <point x="136" y="438" type="line" smooth="yes"/>
      <point x="322" y="438"/>
      <point x="392" y="372"/>
      <point x="392" y="152" type="curve" smooth="yes"/>
    </contour>
    <contour>
      <point x="228" y="438" type="line"/>
      <point x="254" y="438" type="line"/>
      <point x="254" y="448" type="line" smooth="yes"/>
      <point x="254" y="485"/>
      <point x="258" y="503"/>
      <point x="279" y="525" type="curve" smooth="yes"/>
      <point x="317" y="564"/>
      <point x="343" y="590"/>
      <point x="343" y="657" type="curve" smooth="yes"/>
      <point x="343" y="726"/>
      <point x="310" y="773"/>
      <point x="247" y="773" type="curve" smooth="yes"/>
      <point x="182" y="773"/>
      <point x="145" y="727"/>
      <point x="145" y="651" type="curve" smooth="yes"/>
      <point x="145" y="567"/>
      <point x="196" y="536"/>
      <point x="247" y="524" type="curve"/>
      <point x="234" y="508"/>
      <point x="228" y="485"/>
      <point x="228" y="452" type="curve" smooth="yes"/>
    </contour>
    <contour>
      <point x="264" y="544" type="curve"/>
      <point x="209" y="553"/>
      <point x="171" y="583"/>
      <point x="171" y="653" type="curve" smooth="yes"/>
      <point x="171" y="715"/>
      <point x="202" y="749"/>
      <point x="246" y="749" type="curve" smooth="yes"/>
      <point x="293" y="749"/>
      <point x="317" y="712"/>
      <point x="317" y="655" type="curve" smooth="yes"/>
      <point x="317" y="597"/>
      <point x="290" y="569"/>
    </contour>
    <component base="bonelong"/>
  </outline>
</glyph>
<glyph name="tha.eth" format="2">
  <advance width="774"/>
  <unicode hex="1320"/>
  <note>
uni1320
</note>
  <anchor x="381" y="714" name="top"/>
  <outline>
    <contour>
      <point x="69" y="0" type="line"/>
      <point x="95" y="0" type="line"/>
      <point x="95" y="360" type="line" smooth="yes"/>
      <point x="95" y="580"/>
      <point x="163" y="690"/>
      <point x="332" y="690" type="curve" smooth="yes"/>
      <point x="348" y="690"/>
      <point x="357" y="690"/>
      <point x="368" y="690" type="curve"/>
      <point x="368" y="0" type="line"/>
      <point x="394" y="0" type="line"/>
      <point x="394" y="608" type="line"/>
      <point x="419" y="645"/>
      <point x="464" y="690"/>
      <point x="537" y="690" type="curve" smooth="yes"/>
      <point x="624" y="690"/>
      <point x="668" y="632"/>
      <point x="668" y="481" type="curve" smooth="yes"/>
      <point x="668" y="0" type="line"/>
      <point x="694" y="0" type="line"/>
      <point x="694" y="491" type="line" smooth="yes"/>
      <point x="694" y="652"/>
      <point x="635" y="714"/>
      <point x="537" y="714" type="curve" smooth="yes"/>
      <point x="467" y="714"/>
      <point x="425" y="682"/>
      <point x="394" y="644" type="curve"/>
      <point x="394" y="714" type="line"/>
      <point x="329" y="714" type="line" smooth="yes"/>
      <point x="147" y="714"/>
      <point x="69" y="594"/>
      <point x="69" y="365" type="curve" smooth="yes"/>
    </contour>
  </outline>
</glyph>
<glyph name="the.eth" format="2">
  <advance width="779"/>
  <unicode hex="1325"/>
  <note>
uni1325
</note>
  <anchor x="384" y="714" name="top"/>
  <outline>
    <contour>
      <point x="430" y="0" type="line"/>
      <point x="455" y="0" type="line"/>
      <point x="455" y="425" type="line"/>
      <point x="369" y="425" type="line"/>
      <point x="369" y="600" type="line"/>
      <point x="397" y="642"/>
      <point x="442" y="690"/>
      <point x="525" y="690" type="curve" smooth="yes"/>
      <point x="625" y="690"/>
      <point x="673" y="619"/>
      <point x="673" y="467" type="curve" smooth="yes"/>
      <point x="673" y="262" type="line"/>
      <point x="699" y="262" type="line"/>
      <point x="699" y="478" type="line" smooth="yes"/>
      <point x="699" y="642"/>
      <point x="637" y="714"/>
      <point x="526" y="714" type="curve" smooth="yes"/>
      <point x="437" y="714"/>
      <point x="394" y="667"/>
      <point x="369" y="634" type="curve"/>
      <point x="369" y="714" type="line"/>
      <point x="309" y="714" type="line" smooth="yes"/>
      <point x="142" y="714"/>
      <point x="69" y="593"/>
      <point x="69" y="364" type="curve" smooth="yes"/>
      <point x="69" y="262" type="line"/>
      <point x="95" y="262" type="line"/>
      <point x="95" y="360" type="line" smooth="yes"/>
      <point x="95" y="579"/>
      <point x="159" y="691"/>
      <point x="312" y="691" type="curve" smooth="yes"/>
      <point x="322" y="691"/>
      <point x="332" y="691"/>
      <point x="343" y="691" type="curve"/>
      <point x="343" y="402" type="line"/>
      <point x="430" y="402" type="line"/>
    </contour>
  </outline>
</glyph>
<glyph name="tho.eth" format="2">
  <advance width="749"/>
  <unicode hex="1326"/>
  <note>
uni1326
</note>
  <anchor x="369" y="714" name="top"/>
  <outline>
    <contour>
      <point x="69" y="0" type="line"/>
      <point x="95" y="0" type="line"/>
      <point x="95" y="360" type="line" smooth="yes"/>
      <point x="95" y="580"/>
      <point x="163" y="691"/>
      <point x="323" y="691" type="curve" smooth="yes"/>
      <point x="336" y="691"/>
      <point x="345" y="691"/>
      <point x="356" y="691" type="curve"/>
      <point x="356" y="258" type="line"/>
      <point x="382" y="258" type="line"/>
      <point x="382" y="612" type="line"/>
      <point x="407" y="650"/>
      <point x="449" y="690"/>
      <point x="517" y="690" type="curve" smooth="yes"/>
      <point x="599" y="690"/>
      <point x="643" y="631"/>
      <point x="643" y="481" type="curve" smooth="yes"/>
      <point x="643" y="258" type="line"/>
      <point x="669" y="258" type="line"/>
      <point x="669" y="491" type="line" smooth="yes"/>
      <point x="669" y="653"/>
      <point x="610" y="714"/>
      <point x="518" y="714" type="curve" smooth="yes"/>
      <point x="453" y="714"/>
      <point x="409" y="679"/>
      <point x="382" y="645" type="curve"/>
      <point x="382" y="714" type="line"/>
      <point x="321" y="714" type="line" smooth="yes"/>
      <point x="147" y="714"/>
      <point x="69" y="594"/>
      <point x="69" y="365" type="curve" smooth="yes"/>
    </contour>
  </outline>
</glyph>
<glyph name="chaa.eth" format="2">
  <advance width="882"/>
  <unicode hex="132B"/>
  <note>
uni132B
</note>
  <anchor x="466" y="714" name="top"/>
  <outline>
    <contour>
      <point x="668" y="0" type="line"/>
      <point x="694" y="0" type="line"/>
      <point x="694" y="491" type="line" smooth="yes"/>
      <point x="694" y="652"/>
      <point x="635" y="714"/>
      <point x="537" y="714" type="curve" smooth="yes"/>
      <point x="467" y="714"/>
      <point x="425" y="682"/>
      <point x="394" y="644" type="curve"/>
      <point x="394" y="714" type="line"/>
      <point x="329" y="714" type="line" smooth="yes"/>
      <point x="147" y="714"/>
      <point x="69" y="594"/>
      <point x="69" y="365" type="curve" smooth="yes"/>
      <point x="69" y="246" type="line"/>
      <point x="95" y="246" type="line"/>
      <point x="95" y="360" type="line" smooth="yes"/>
      <point x="95" y="580"/>
      <point x="163" y="690"/>
      <point x="332" y="690" type="curve" smooth="yes"/>
      <point x="348" y="690"/>
      <point x="357" y="690"/>
      <point x="368" y="690" type="curve"/>
      <point x="368" y="246" type="line"/>
      <point x="394" y="246" type="line"/>
      <point x="394" y="608" type="line"/>
      <point x="419" y="645"/>
      <point x="464" y="690"/>
      <point x="537" y="690" type="curve" smooth="yes"/>
      <point x="624" y="690"/>
      <point x="668" y="632"/>
      <point x="668" y="481" type="curve" smooth="yes"/>
    </contour>
    <contour>
      <point x="69" y="246" type="line"/>
      <point x="129" y="246" type="line" smooth="yes"/>
      <point x="228" y="246"/>
      <point x="265" y="300"/>
      <point x="265" y="369" type="curve" smooth="yes"/>
      <point x="265" y="432"/>
      <point x="233" y="475"/>
      <point x="159" y="475" type="curve" smooth="yes"/>
      <point x="81" y="475" type="line"/>
    </contour>
    <contour>
      <point x="95" y="270" type="line"/>
      <point x="95" y="451" type="line"/>
      <point x="155" y="451" type="line" smooth="yes"/>
      <point x="216" y="451"/>
      <point x="238" y="418"/>
      <point x="238" y="367" type="curve" smooth="yes"/>
      <point x="238" y="310"/>
      <point x="210" y="270"/>
      <point x="128" y="270" type="curve" smooth="yes"/>
    </contour>
    <component base="bbowlnarrow" xOffset="328" yOffset="246"/>
    <component base="bbowlnarrow" xOffset="628"/>
  </outline>
</glyph>
<glyph name="che.eth" format="2">
  <advance width="902"/>
  <unicode hex="132D"/>
  <note>
uni132D
</note>
  <anchor x="476" y="714" name="top"/>
  <outline>
    <contour>
      <point x="69" y="249" type="line"/>
      <point x="95" y="249" type="line"/>
      <point x="95" y="360" type="line" smooth="yes"/>
      <point x="95" y="580"/>
      <point x="163" y="690"/>
      <point x="332" y="690" type="curve" smooth="yes"/>
      <point x="348" y="690"/>
      <point x="357" y="690"/>
      <point x="368" y="690" type="curve"/>
      <point x="368" y="401" type="line"/>
      <point x="394" y="401" type="line"/>
      <point x="394" y="608" type="line"/>
      <point x="421" y="645"/>
      <point x="469" y="690"/>
      <point x="547" y="690" type="curve" smooth="yes"/>
      <point x="641" y="690"/>
      <point x="688" y="632"/>
      <point x="688" y="481" type="curve" smooth="yes"/>
      <point x="688" y="249" type="line"/>
      <point x="714" y="249" type="line"/>
      <point x="714" y="491" type="line" smooth="yes"/>
      <point x="714" y="652"/>
      <point x="651" y="714"/>
      <point x="547" y="714" type="curve" smooth="yes"/>
      <point x="472" y="714"/>
      <point x="427" y="682"/>
      <point x="394" y="644" type="curve"/>
      <point x="394" y="714" type="line"/>
      <point x="329" y="714" type="line" smooth="yes"/>
      <point x="147" y="714"/>
      <point x="69" y="594"/>
      <point x="69" y="365" type="curve" smooth="yes"/>
    </contour>
    <contour>
      <point x="69" y="249" type="line"/>
      <point x="129" y="249" type="line" smooth="yes"/>
      <point x="228" y="249"/>
      <point x="265" y="303"/>
      <point x="265" y="372" type="curve" smooth="yes"/>
      <point x="265" y="435"/>
      <point x="233" y="478"/>
      <point x="159" y="478" type="curve" smooth="yes"/>
      <point x="84" y="478" type="line"/>
    </contour>
    <contour>
      <point x="95" y="273" type="line"/>
      <point x="95" y="454" type="line"/>
      <point x="155" y="454" type="line" smooth="yes"/>
      <point x="216" y="454"/>
      <point x="238" y="421"/>
      <point x="238" y="370" type="curve" smooth="yes"/>
      <point x="238" y="313"/>
      <point x="210" y="273"/>
      <point x="128" y="273" type="curve" smooth="yes"/>
    </contour>
    <contour>
      <point x="469" y="0" type="line"/>
      <point x="495" y="0" type="line"/>
      <point x="495" y="414" type="line"/>
      <point x="469" y="414" type="line"/>
    </contour>
    <contour>
      <point x="369" y="401" type="line"/>
      <point x="495" y="401" type="line"/>
      <point x="495" y="426" type="line"/>
      <point x="369" y="426" type="line"/>
    </contour>
    <component base="bbowlnarrow" xOffset="429"/>
    <component base="bbowlnarrow" xOffset="648" yOffset="249"/>
  </outline>
</glyph>
<glyph name="cho.eth" format="2">
  <advance width="882"/>
  <unicode hex="132E"/>
  <note>
uni132E
</note>
  <anchor x="466" y="714" name="top"/>
  <outline>
    <contour>
      <point x="69" y="0" type="line"/>
      <point x="95" y="0" type="line"/>
      <point x="95" y="360" type="line" smooth="yes"/>
      <point x="95" y="580"/>
      <point x="163" y="690"/>
      <point x="332" y="690" type="curve" smooth="yes"/>
      <point x="348" y="690"/>
      <point x="357" y="690"/>
      <point x="368" y="690" type="curve"/>
      <point x="368" y="226" type="line"/>
      <point x="394" y="226" type="line"/>
      <point x="394" y="608" type="line"/>
      <point x="419" y="645"/>
      <point x="464" y="690"/>
      <point x="537" y="690" type="curve" smooth="yes"/>
      <point x="624" y="690"/>
      <point x="668" y="632"/>
      <point x="668" y="481" type="curve" smooth="yes"/>
      <point x="668" y="226" type="line"/>
      <point x="694" y="226" type="line"/>
      <point x="694" y="491" type="line" smooth="yes"/>
      <point x="694" y="652"/>
      <point x="635" y="714"/>
      <point x="537" y="714" type="curve" smooth="yes"/>
      <point x="467" y="714"/>
      <point x="425" y="682"/>
      <point x="394" y="644" type="curve"/>
      <point x="394" y="714" type="line"/>
      <point x="329" y="714" type="line" smooth="yes"/>
      <point x="147" y="714"/>
      <point x="69" y="594"/>
      <point x="69" y="365" type="curve" smooth="yes"/>
    </contour>
    <component base="bbowlnarrow" xOffset="328" yOffset="226"/>
    <component base="bbowlnarrow" xOffset="628" yOffset="226"/>
    <component base="bbowlnarrow" xOffset="29"/>
  </outline>
</glyph>
<glyph name="pha.eth" format="2">
  <advance width="439"/>
  <unicode hex="1330"/>
  <note>
uni1330
</note>
  <anchor x="219" y="760" name="top"/>
  <outline>
    <contour>
      <point x="45" y="0" type="curve"/>
      <point x="71" y="0" type="line"/>
      <point x="74" y="142"/>
      <point x="110" y="202"/>
      <point x="223" y="306" type="curve" smooth="yes"/>
      <point x="307" y="383"/>
      <point x="343" y="417"/>
      <point x="343" y="499" type="curve" smooth="yes"/>
      <point x="343" y="597"/>
      <point x="291" y="653"/>
      <point x="214" y="653" type="curve" smooth="yes"/>
      <point x="134" y="653"/>
      <point x="86" y="592"/>
      <point x="86" y="499" type="curve" smooth="yes"/>
      <point x="86" y="398"/>
      <point x="144" y="349"/>
      <point x="216" y="321" type="curve"/>
      <point x="236" y="338" type="line"/>
      <point x="164" y="363"/>
      <point x="111" y="406"/>
      <point x="111" y="500" type="curve" smooth="yes"/>
      <point x="111" y="581"/>
      <point x="151" y="630"/>
      <point x="214" y="630" type="curve" smooth="yes"/>
      <point x="273" y="630"/>
      <point x="317" y="586"/>
      <point x="317" y="502" type="curve" smooth="yes"/>
      <point x="317" y="423"/>
      <point x="278" y="387"/>
      <point x="213" y="328" type="curve" smooth="yes"/>
      <point x="93" y="219"/>
      <point x="45" y="150"/>
    </contour>
    <contour>
      <point x="368" y="0" type="line"/>
      <point x="394" y="0" type="line"/>
      <point x="394" y="35" type="line" smooth="yes"/>
      <point x="394" y="173"/>
      <point x="325" y="261"/>
      <point x="204" y="301" type="curve"/>
      <point x="185" y="285" type="line"/>
      <point x="306" y="244"/>
      <point x="368" y="163"/>
      <point x="368" y="32" type="curve" smooth="yes"/>
    </contour>
    <contour>
      <point x="200" y="642" type="line"/>
      <point x="226" y="642" type="line"/>
      <point x="226" y="760" type="line"/>
      <point x="200" y="760" type="line"/>
    </contour>
  </outline>
</glyph>
<glyph name="phu.eth" format="2">
  <advance width="542"/>
  <unicode hex="1331"/>
  <note>
uni1331
</note>
  <anchor x="286" y="760" name="top"/>
  <outline>
    <contour>
      <point x="334" y="184" type="line"/>
      <point x="456" y="184" type="line"/>
      <point x="456" y="209" type="line"/>
      <point x="334" y="209" type="line"/>
    </contour>
    <component base="pha.eth"/>
    <component base="rightsingleflag" xOffset="313" yOffset="-179"/>
  </outline>
</glyph>
<glyph name="phaa.eth" format="2">
  <advance width="425"/>
  <unicode hex="1333"/>
  <note>
uni1333
</note>
  <anchor x="212" y="760" name="top"/>
  <outline>
    <contour>
      <point x="45" y="118" type="curve"/>
      <point x="71" y="118" type="line"/>
      <point x="101" y="207"/>
      <point x="135" y="239"/>
      <point x="210" y="306" type="curve" smooth="yes"/>
      <point x="286" y="374"/>
      <point x="330" y="414"/>
      <point x="330" y="502" type="curve" smooth="yes"/>
      <point x="330" y="601"/>
      <point x="275" y="653"/>
      <point x="201" y="653" type="curve" smooth="yes"/>
      <point x="122" y="653"/>
      <point x="71" y="593"/>
      <point x="71" y="499" type="curve" smooth="yes"/>
      <point x="71" y="398"/>
      <point x="130" y="349"/>
      <point x="202" y="321" type="curve"/>
      <point x="222" y="338" type="line"/>
      <point x="153" y="362"/>
      <point x="97" y="404"/>
      <point x="97" y="499" type="curve" smooth="yes"/>
      <point x="97" y="582"/>
      <point x="140" y="630"/>
      <point x="200" y="630" type="curve" smooth="yes"/>
      <point x="255" y="630"/>
      <point x="303" y="590"/>
      <point x="303" y="503" type="curve" smooth="yes"/>
      <point x="303" y="423"/>
      <point x="263" y="386"/>
      <point x="199" y="328" type="curve" smooth="yes"/>
      <point x="118" y="255"/>
      <point x="71" y="212"/>
    </contour>
    <contour>
      <point x="354" y="0" type="line"/>
      <point x="380" y="0" type="line"/>
      <point x="380" y="35" type="line" smooth="yes"/>
      <point x="380" y="173"/>
      <point x="311" y="261"/>
      <point x="190" y="301" type="curve"/>
      <point x="171" y="285" type="line"/>
      <point x="292" y="244"/>
      <point x="354" y="163"/>
      <point x="354" y="32" type="curve" smooth="yes"/>
    </contour>
    <contour>
      <point x="186" y="642" type="line"/>
      <point x="212" y="642" type="line"/>
      <point x="212" y="760" type="line"/>
      <point x="186" y="760" type="line"/>
    </contour>
  </outline>
</glyph>
<glyph name="phee.eth" format="2">
  <advance width="571"/>
  <unicode hex="1334"/>
  <note>
uni1334
</note>
  <anchor x="297" y="760" name="top"/>
  <outline>
    <contour>
      <point x="45" y="0" type="curve"/>
      <point x="71" y="0" type="line"/>
      <point x="74" y="142"/>
      <point x="110" y="202"/>
      <point x="223" y="306" type="curve" smooth="yes"/>
      <point x="307" y="383"/>
      <point x="343" y="417"/>
      <point x="343" y="505" type="curve" smooth="yes"/>
      <point x="343" y="597"/>
      <point x="291" y="653"/>
      <point x="214" y="653" type="curve" smooth="yes"/>
      <point x="134" y="653"/>
      <point x="86" y="592"/>
      <point x="86" y="499" type="curve" smooth="yes"/>
      <point x="86" y="398"/>
      <point x="144" y="349"/>
      <point x="216" y="321" type="curve"/>
      <point x="236" y="338" type="line"/>
      <point x="164" y="363"/>
      <point x="111" y="406"/>
      <point x="111" y="500" type="curve" smooth="yes"/>
      <point x="111" y="581"/>
      <point x="151" y="630"/>
      <point x="214" y="630" type="curve" smooth="yes"/>
      <point x="273" y="630"/>
      <point x="317" y="586"/>
      <point x="317" y="502" type="curve" smooth="yes"/>
      <point x="317" y="423"/>
      <point x="278" y="387"/>
      <point x="213" y="328" type="curve" smooth="yes"/>
      <point x="93" y="219"/>
      <point x="45" y="150"/>
    </contour>
    <contour>
      <point x="463" y="-15" type="curve" smooth="yes"/>
      <point x="516" y="-15"/>
      <point x="549" y="27"/>
      <point x="549" y="89" type="curve" smooth="yes"/>
      <point x="549" y="150"/>
      <point x="515" y="192"/>
      <point x="463" y="192" type="curve" smooth="yes"/>
      <point x="424" y="192"/>
      <point x="395" y="162"/>
      <point x="384" y="121" type="curve"/>
      <point x="357" y="214"/>
      <point x="293" y="269"/>
      <point x="212" y="299" type="curve"/>
      <point x="195" y="281" type="line"/>
      <point x="280" y="251"/>
      <point x="344" y="197"/>
      <point x="371" y="86" type="curve" smooth="yes"/>
      <point x="387" y="20"/>
      <point x="411" y="-15"/>
    </contour>
    <contour>
      <point x="463" y="9" type="curve" smooth="yes"/>
      <point x="426" y="9"/>
      <point x="402" y="40"/>
      <point x="402" y="89" type="curve" smooth="yes"/>
      <point x="402" y="135"/>
      <point x="426" y="168"/>
      <point x="463" y="168" type="curve" smooth="yes"/>
      <point x="501" y="168"/>
      <point x="523" y="135"/>
      <point x="523" y="89" type="curve" smooth="yes"/>
      <point x="523" y="42"/>
      <point x="501" y="9"/>
    </contour>
    <contour>
      <point x="200" y="642" type="line"/>
      <point x="226" y="642" type="line"/>
      <point x="226" y="760" type="line"/>
      <point x="200" y="760" type="line"/>
    </contour>
  </outline>
</glyph>
<glyph name="pho.eth" format="2">
  <advance width="426"/>
  <unicode hex="1336"/>
  <note>
uni1336
</note>
  <anchor x="213" y="760" name="top"/>
  <outline>
    <contour>
      <point x="45" y="0" type="curve"/>
      <point x="71" y="0" type="line"/>
      <point x="74" y="138"/>
      <point x="107" y="200"/>
      <point x="223" y="306" type="curve" smooth="yes"/>
      <point x="306" y="381"/>
      <point x="343" y="418"/>
      <point x="343" y="500" type="curve" smooth="yes"/>
      <point x="343" y="598"/>
      <point x="290" y="653"/>
      <point x="215" y="653" type="curve" smooth="yes"/>
      <point x="136" y="653"/>
      <point x="86" y="592"/>
      <point x="86" y="499" type="curve" smooth="yes"/>
      <point x="86" y="398"/>
      <point x="144" y="349"/>
      <point x="216" y="321" type="curve"/>
      <point x="236" y="338" type="line"/>
      <point x="167" y="362"/>
      <point x="111" y="404"/>
      <point x="111" y="499" type="curve" smooth="yes"/>
      <point x="111" y="582"/>
      <point x="153" y="630"/>
      <point x="214" y="630" type="curve" smooth="yes"/>
      <point x="273" y="630"/>
      <point x="317" y="586"/>
      <point x="317" y="502" type="curve" smooth="yes"/>
      <point x="317" y="423"/>
      <point x="278" y="387"/>
      <point x="213" y="328" type="curve" smooth="yes"/>
      <point x="93" y="219"/>
      <point x="45" y="150"/>
    </contour>
    <contour>
      <point x="354" y="129" type="curve"/>
      <point x="381" y="129" type="line"/>
      <point x="357" y="214"/>
      <point x="296" y="271"/>
      <point x="204" y="301" type="curve"/>
      <point x="185" y="285" type="line"/>
      <point x="273" y="256"/>
      <point x="329" y="205"/>
    </contour>
    <contour>
      <point x="200" y="642" type="line"/>
      <point x="226" y="642" type="line"/>
      <point x="226" y="760" type="line"/>
      <point x="200" y="760" type="line"/>
    </contour>
  </outline>
</glyph>
<glyph name="tsa.eth" format="2">
  <advance width="439"/>
  <unicode hex="1338"/>
  <note>
uni1338
</note>
  <anchor x="219" y="724" name="top"/>
  <outline>
    <contour>
      <point x="45" y="0" type="curve"/>
      <point x="71" y="0" type="line"/>
      <point x="73" y="204"/>
      <point x="111" y="275"/>
      <point x="223" y="378" type="curve" smooth="yes"/>
      <point x="305" y="453"/>
      <point x="343" y="488"/>
      <point x="343" y="572" type="curve" smooth="yes"/>
      <point x="343" y="672"/>
      <point x="288" y="724"/>
      <point x="215" y="724" type="curve" smooth="yes"/>
      <point x="136" y="724"/>
      <point x="86" y="663"/>
      <point x="86" y="570" type="curve" smooth="yes"/>
      <point x="86" y="469"/>
      <point x="144" y="421"/>
      <point x="216" y="393" type="curve"/>
      <point x="236" y="409" type="line"/>
      <point x="166" y="433"/>
      <point x="111" y="476"/>
      <point x="111" y="570" type="curve" smooth="yes"/>
      <point x="111" y="653"/>
      <point x="153" y="701"/>
      <point x="214" y="701" type="curve" smooth="yes"/>
      <point x="273" y="701"/>
      <point x="317" y="657"/>
      <point x="317" y="573" type="curve" smooth="yes"/>
      <point x="317" y="494"/>
      <point x="278" y="458"/>
      <point x="213" y="399" type="curve" smooth="yes"/>
      <point x="92" y="288"/>
      <point x="45" y="213"/>
    </contour>
    <contour>
      <point x="368" y="0" type="line"/>
      <point x="394" y="0" type="line"/>
      <point x="394" y="34" type="line" smooth="yes"/>
      <point x="394" y="235"/>
      <point x="325" y="331"/>
      <point x="204" y="371" type="curve"/>
      <point x="185" y="356" type="line"/>
      <point x="306" y="316"/>
      <point x="368" y="223"/>
      <point x="368" y="31" type="curve" smooth="yes"/>
    </contour>
  </outline>
</glyph>
<glyph name="tsaa.eth" format="2">
  <advance width="429"/>
  <unicode hex="133B"/>
  <note>
uni133B
</note>
  <anchor x="214" y="724" name="top"/>
  <outline>
    <contour>
      <point x="45" y="143" type="curve"/>
      <point x="71" y="143" type="line"/>
      <point x="91" y="251"/>
      <point x="128" y="301"/>
      <point x="214" y="378" type="curve" smooth="yes"/>
      <point x="286" y="442"/>
      <point x="333" y="484"/>
      <point x="333" y="574" type="curve" smooth="yes"/>
      <point x="333" y="672"/>
      <point x="278" y="724"/>
      <point x="205" y="724" type="curve" smooth="yes"/>
      <point x="126" y="724"/>
      <point x="75" y="663"/>
      <point x="75" y="570" type="curve" smooth="yes"/>
      <point x="75" y="468"/>
      <point x="136" y="420"/>
      <point x="206" y="393" type="curve"/>
      <point x="226" y="409" type="line"/>
      <point x="156" y="433"/>
      <point x="101" y="476"/>
      <point x="101" y="571" type="curve" smooth="yes"/>
      <point x="101" y="654"/>
      <point x="143" y="701"/>
      <point x="204" y="701" type="curve" smooth="yes"/>
      <point x="261" y="701"/>
      <point x="307" y="659"/>
      <point x="307" y="574" type="curve" smooth="yes"/>
      <point x="307" y="495"/>
      <point x="268" y="457"/>
      <point x="203" y="399" type="curve" smooth="yes"/>
      <point x="111" y="316"/>
      <point x="67" y="263"/>
    </contour>
    <contour>
      <point x="358" y="0" type="line"/>
      <point x="384" y="0" type="line"/>
      <point x="384" y="34" type="line" smooth="yes"/>
      <point x="384" y="235"/>
      <point x="315" y="333"/>
      <point x="194" y="373" type="curve"/>
      <point x="175" y="356" type="line"/>
      <point x="296" y="316"/>
      <point x="358" y="223"/>
      <point x="358" y="31" type="curve" smooth="yes"/>
    </contour>
  </outline>
</glyph>
<glyph name="tsee.eth" format="2">
  <advance width="570"/>
  <unicode hex="133C"/>
  <note>
uni133C
</note>
  <anchor x="296" y="724" name="top"/>
  <outline>
    <contour>
      <point x="45" y="0" type="curve"/>
      <point x="72" y="0" type="line"/>
      <point x="72" y="181"/>
      <point x="104" y="275"/>
      <point x="224" y="377" type="curve" smooth="yes"/>
      <point x="309" y="449"/>
      <point x="344" y="494"/>
      <point x="344" y="581" type="curve" smooth="yes"/>
      <point x="344" y="664"/>
      <point x="294" y="724"/>
      <point x="214" y="724" type="curve" smooth="yes"/>
      <point x="137" y="724"/>
      <point x="85" y="664"/>
      <point x="85" y="569" type="curve" smooth="yes"/>
      <point x="85" y="471"/>
      <point x="142" y="420"/>
      <point x="216" y="392" type="curve"/>
      <point x="236" y="410" type="line"/>
      <point x="165" y="434"/>
      <point x="111" y="478"/>
      <point x="111" y="569" type="curve" smooth="yes"/>
      <point x="111" y="652"/>
      <point x="153" y="699"/>
      <point x="213" y="699" type="curve" smooth="yes"/>
      <point x="279" y="699"/>
      <point x="318" y="648"/>
      <point x="318" y="581" type="curve" smooth="yes"/>
      <point x="318" y="505"/>
      <point x="293" y="467"/>
      <point x="214" y="400" type="curve" smooth="yes"/>
      <point x="87" y="292"/>
      <point x="45" y="194"/>
    </contour>
    <contour>
      <point x="462" y="-15" type="curve" smooth="yes"/>
      <point x="515" y="-15"/>
      <point x="548" y="27"/>
      <point x="548" y="89" type="curve" smooth="yes"/>
      <point x="548" y="150"/>
      <point x="514" y="192"/>
      <point x="462" y="192" type="curve" smooth="yes"/>
      <point x="423" y="192"/>
      <point x="395" y="165"/>
      <point x="384" y="124" type="curve"/>
      <point x="357" y="256"/>
      <point x="301" y="344"/>
      <point x="215" y="377" type="curve"/>
      <point x="192" y="359" type="line"/>
      <point x="281" y="330"/>
      <point x="337" y="250"/>
      <point x="368" y="86" type="curve" smooth="yes"/>
      <point x="380" y="21"/>
      <point x="405" y="-15"/>
    </contour>
    <contour>
      <point x="462" y="10" type="curve" smooth="yes"/>
      <point x="425" y="10"/>
      <point x="401" y="40"/>
      <point x="401" y="89" type="curve" smooth="yes"/>
      <point x="401" y="135"/>
      <point x="425" y="167"/>
      <point x="462" y="167" type="curve" smooth="yes"/>
      <point x="500" y="167"/>
      <point x="522" y="135"/>
      <point x="522" y="89" type="curve" smooth="yes"/>
      <point x="522" y="42"/>
      <point x="500" y="10"/>
    </contour>
  </outline>
</glyph>
<glyph name="tso.eth" format="2">
  <advance width="431"/>
  <unicode hex="133E"/>
  <note>
uni133E
</note>
  <anchor x="215" y="724" name="top"/>
  <outline>
    <contour>
      <point x="45" y="0" type="curve"/>
      <point x="71" y="0" type="line"/>
      <point x="73" y="204"/>
      <point x="111" y="275"/>
      <point x="223" y="378" type="curve" smooth="yes"/>
      <point x="305" y="453"/>
      <point x="343" y="488"/>
      <point x="343" y="572" type="curve" smooth="yes"/>
      <point x="343" y="672"/>
      <point x="288" y="724"/>
      <point x="215" y="724" type="curve" smooth="yes"/>
      <point x="136" y="724"/>
      <point x="86" y="663"/>
      <point x="86" y="570" type="curve" smooth="yes"/>
      <point x="86" y="469"/>
      <point x="144" y="421"/>
      <point x="216" y="393" type="curve"/>
      <point x="236" y="409" type="line"/>
      <point x="166" y="433"/>
      <point x="111" y="476"/>
      <point x="111" y="570" type="curve" smooth="yes"/>
      <point x="111" y="653"/>
      <point x="153" y="701"/>
      <point x="214" y="701" type="curve" smooth="yes"/>
      <point x="273" y="701"/>
      <point x="317" y="657"/>
      <point x="317" y="573" type="curve" smooth="yes"/>
      <point x="317" y="494"/>
      <point x="278" y="458"/>
      <point x="213" y="399" type="curve" smooth="yes"/>
      <point x="92" y="288"/>
      <point x="45" y="213"/>
    </contour>
    <contour>
      <point x="359" y="144" type="curve"/>
      <point x="386" y="144" type="line"/>
      <point x="365" y="272"/>
      <point x="302" y="336"/>
      <point x="204" y="373" type="curve"/>
      <point x="185" y="356" type="line"/>
      <point x="280" y="325"/>
      <point x="338" y="261"/>
    </contour>
  </outline>
</glyph>
<glyph name="tza.eth" format="2">
  <advance width="483"/>
  <unicode hex="1340"/>
  <note>
uni1340
</note>
  <anchor x="241" y="725" name="top"/>
  <outline>
    <contour>
      <point x="82" y="353" type="line"/>
      <point x="398" y="353" type="line"/>
      <point x="398" y="378" type="line"/>
      <point x="82" y="378" type="line"/>
    </contour>
    <component base="aPhr.eth"/>
  </outline>
</glyph>
<glyph name="tzi.eth" format="2">
  <advance width="428"/>
  <unicode hex="1342"/>
  <note>
uni1342
</note>
  <anchor x="234" y="724" name="top"/>
  <outline>
    <contour>
      <point x="173" y="0" type="line"/>
      <point x="288" y="0" type="line"/>
      <point x="288" y="25" type="line"/>
      <point x="173" y="25" type="line"/>
    </contour>
    <component base="tzaa.eth"/>
    <component base="rightdoubleflag" xOffset="199"/>
  </outline>
</glyph>
<glyph name="tzaa.eth" format="2">
  <advance width="377"/>
  <unicode hex="1343"/>
  <note>
uni1343
</note>
  <anchor x="198" y="724" name="top"/>
  <outline>
    <contour>
      <point x="167" y="0" type="line"/>
      <point x="194" y="0" type="line"/>
      <point x="208" y="87" type="line" smooth="yes"/>
      <point x="220" y="162"/>
      <point x="233" y="223"/>
      <point x="269" y="304" type="curve" smooth="yes"/>
      <point x="300" y="374"/>
      <point x="342" y="440"/>
      <point x="342" y="545" type="curve" smooth="yes"/>
      <point x="342" y="660"/>
      <point x="291" y="724"/>
      <point x="204" y="724" type="curve" smooth="yes"/>
      <point x="109" y="724"/>
      <point x="55" y="649"/>
      <point x="55" y="520" type="curve" smooth="yes"/>
      <point x="55" y="365"/>
      <point x="134" y="302"/>
      <point x="237" y="299" type="curve"/>
      <point x="212" y="239"/>
      <point x="196" y="179"/>
      <point x="182" y="93" type="curve" smooth="yes"/>
    </contour>
    <contour>
      <point x="250" y="322" type="curve"/>
      <point x="152" y="322"/>
      <point x="84" y="377"/>
      <point x="80" y="513" type="curve"/>
      <point x="315" y="513" type="line"/>
      <point x="308" y="438"/>
      <point x="275" y="373"/>
    </contour>
    <contour>
      <point x="80" y="536" type="line"/>
      <point x="83" y="637"/>
      <point x="126" y="701"/>
      <point x="202" y="701" type="curve" smooth="yes"/>
      <point x="271" y="701"/>
      <point x="317" y="650"/>
      <point x="317" y="536" type="curve"/>
    </contour>
  </outline>
</glyph>
<glyph name="tzee.eth" format="2">
  <advance width="431"/>
  <unicode hex="1344"/>
  <note>
uni1344
</note>
  <anchor x="234" y="724" name="top"/>
  <outline>
    <contour>
      <point x="170" y="0" type="line"/>
      <point x="279" y="0" type="line" smooth="yes"/>
      <point x="376" y="0"/>
      <point x="413" y="51"/>
      <point x="413" y="123" type="curve" smooth="yes"/>
      <point x="413" y="186"/>
      <point x="381" y="229"/>
      <point x="308" y="229" type="curve" smooth="yes"/>
      <point x="213" y="229" type="line"/>
    </contour>
    <contour>
      <point x="193" y="24" type="line"/>
      <point x="224" y="205" type="line"/>
      <point x="304" y="205" type="line" smooth="yes"/>
      <point x="364" y="205"/>
      <point x="386" y="172"/>
      <point x="386" y="121" type="curve" smooth="yes"/>
      <point x="386" y="64"/>
      <point x="355" y="24"/>
      <point x="278" y="24" type="curve" smooth="yes"/>
    </contour>
    <component base="tzaa.eth"/>
  </outline>
</glyph>
<glyph name="tze.eth" format="2">
  <advance width="483"/>
  <unicode hex="1345"/>
  <note>
uni1345
</note>
  <anchor x="241" y="760" name="top"/>
  <outline>
    <contour>
      <point x="80" y="290" type="line"/>
      <point x="401" y="290" type="line"/>
      <point x="401" y="316" type="line"/>
      <point x="80" y="316" type="line"/>
    </contour>
    <component base="ePhr.eth"/>
  </outline>
</glyph>
<glyph name="tzo.eth" format="2">
  <advance width="392"/>
  <unicode hex="1346"/>
  <note>
uni1346
</note>
  <anchor x="196" y="725" name="top"/>
  <outline>
    <contour>
      <point x="112" y="538" type="line"/>
      <point x="337" y="538" type="line"/>
      <point x="337" y="564" type="line"/>
      <point x="112" y="564" type="line"/>
    </contour>
    <component base="oPhr.eth"/>
  </outline>
</glyph>
<glyph name="fa.eth" format="2">
  <advance width="493"/>
  <unicode hex="1348"/>
  <note>
uni1348
</note>
  <anchor x="265" y="735" name="top"/>
  <outline>
    <contour>
      <point x="183" y="0" type="curve" smooth="yes"/>
      <point x="412" y="0" type="line"/>
      <point x="433" y="25" type="line"/>
      <point x="249" y="25" type="line"/>
      <point x="282" y="50"/>
      <point x="306" y="95"/>
      <point x="306" y="173" type="curve" smooth="yes"/>
      <point x="306" y="278"/>
      <point x="250" y="332"/>
      <point x="177" y="349" type="curve"/>
      <point x="235" y="389"/>
      <point x="278" y="426"/>
      <point x="311" y="473" type="curve" smooth="yes"/>
      <point x="363" y="548"/>
      <point x="380" y="624"/>
      <point x="380" y="735" type="curve"/>
      <point x="354" y="735" type="line"/>
      <point x="354" y="627"/>
      <point x="336" y="553"/>
      <point x="290" y="488" type="curve" smooth="yes"/>
      <point x="256" y="440"/>
      <point x="213" y="407"/>
      <point x="166" y="371" type="curve" smooth="yes"/>
      <point x="88" y="311"/>
      <point x="52" y="256"/>
      <point x="52" y="161" type="curve" smooth="yes"/>
      <point x="52" y="55"/>
      <point x="100" y="0"/>
    </contour>
    <contour>
      <point x="183" y="25" type="curve" smooth="yes"/>
      <point x="121" y="25"/>
      <point x="78" y="69"/>
      <point x="78" y="163" type="curve" smooth="yes"/>
      <point x="78" y="250"/>
      <point x="112" y="295"/>
      <point x="154" y="331" type="curve"/>
      <point x="230" y="317"/>
      <point x="280" y="269"/>
      <point x="280" y="171" type="curve" smooth="yes"/>
      <point x="280" y="85"/>
      <point x="246" y="25"/>
    </contour>
    <component base="rightdoubleflag" xOffset="264"/>
  </outline>
</glyph>
<glyph name="fu.eth" format="2">
  <advance width="457"/>
  <unicode hex="1349"/>
  <note>
uni1349
</note>
  <anchor x="247" y="761" name="top"/>
  <outline>
    <contour>
      <point x="80" y="0" type="curve"/>
      <point x="107" y="0" type="line"/>
      <point x="112" y="103"/>
      <point x="134" y="164"/>
      <point x="212" y="210" type="curve" smooth="yes"/>
      <point x="273" y="246"/>
      <point x="300" y="298"/>
      <point x="300" y="386" type="curve" smooth="yes"/>
      <point x="300" y="489"/>
      <point x="266" y="536"/>
      <point x="215" y="552" type="curve"/>
      <point x="304" y="577"/>
      <point x="361" y="648"/>
      <point x="370" y="761" type="curve"/>
      <point x="344" y="761" type="line"/>
      <point x="334" y="658"/>
      <point x="288" y="592"/>
      <point x="173" y="564" type="curve" smooth="yes"/>
      <point x="83" y="542"/>
      <point x="52" y="477"/>
      <point x="52" y="380" type="curve" smooth="yes"/>
      <point x="52" y="275"/>
      <point x="96" y="217"/>
      <point x="168" y="212" type="curve"/>
      <point x="116" y="174"/>
      <point x="86" y="114"/>
    </contour>
    <contour>
      <point x="175" y="236" type="curve" smooth="yes"/>
      <point x="117" y="236"/>
      <point x="78" y="284"/>
      <point x="78" y="380" type="curve" smooth="yes"/>
      <point x="78" y="492"/>
      <point x="125" y="534"/>
      <point x="179" y="534" type="curve" smooth="yes"/>
      <point x="239" y="534"/>
      <point x="273" y="486"/>
      <point x="273" y="386" type="curve" smooth="yes"/>
      <point x="273" y="291"/>
      <point x="236" y="236"/>
    </contour>
    <contour>
      <point x="208" y="216" type="line"/>
      <point x="306" y="216" type="line"/>
      <point x="306" y="241" type="line"/>
      <point x="208" y="241" type="line"/>
    </contour>
    <component base="rightdoubleflag" xOffset="228" yOffset="216"/>
  </outline>
</glyph>
